<svg width="178" height="272" viewBox="0 0 178 272" fill="none" xmlns="http://www.w3.org/2000/svg">
<rect x="0.000488281" y="0.000244141" width="177" height="272" fill="#2E2E2E"/>
<path d="M159.22 36.9449C166.693 42.177 172.616 49.0214 176.999 57.0725V146.361C171.964 159.805 164.908 173.311 155.847 186.252C116.49 242.459 54.191 266.742 16.6977 240.488C9.83616 235.684 4.28095 229.52 0.024917 222.31L0 128.265C4.94606 115.751 11.6403 103.222 20.0713 91.1812C59.4279 34.9742 121.727 10.6918 159.22 36.9449Z" fill="white"/>
<path d="M155.786 186.312C165.102 173.012 172.356 159.132 177.532 145.315L92.0064 137.001L79.1553 247.57C106.457 238.186 134.412 216.827 155.786 186.312Z" fill="#EF4343"/>
<path d="M0.0693608 222.473C4.32539 229.774 9.88061 236.016 16.7421 240.881C34.4299 253.422 57.6384 254.574 81.3544 246.317L93.8544 137.375L0.0444336 127.242L0.0693608 222.473Z" fill="#004FC5"/>
<path d="M20.2209 90.6899C11.7899 102.731 5.10763 115.268 0.183594 127.797L94.5753 138.212L106.703 27.9812C76.47 34.3391 44.0811 56.6139 20.2209 90.6899Z" fill="#E7C200"/>
<path d="M176.705 56.7026C172.249 48.6004 166.248 41.7015 158.695 36.4128C143.772 25.9639 125.016 23.358 105.356 27.4698L93.3223 137.266L176.627 147.722C176.807 147.251 176.984 146.78 177.159 146.309L176.705 56.7026Z" fill="#00B453"/>
<path d="M30.6072 31.4325C32.0207 29.4144 33.1213 27.3083 33.9067 25.2119L20.9299 23.9504L18.98 40.7272C23.1224 39.3033 27.3641 36.0624 30.6072 31.4325Z" fill="#EF4343"/>
<path d="M6.98083 36.9197C7.6266 38.0274 8.4695 38.9745 9.51059 39.7127C12.1944 41.6156 15.7158 41.7904 19.3142 40.5375L21.2109 24.0078L6.97705 22.4702L6.98083 36.9197Z" fill="#004FC5"/>
<path d="M10.0383 16.924C8.75907 18.7509 7.74517 20.6533 6.99805 22.5543L21.3201 24.1345L23.1603 7.40918C18.573 8.37386 13.6586 11.7536 10.0383 16.924Z" fill="#E7C200"/>
<path d="M33.7816 11.767C33.1055 10.5377 32.1949 9.49088 31.0489 8.68842C28.7847 7.10301 25.9388 6.70761 22.9558 7.33149L21.1299 23.9909L33.7697 25.5775C33.797 25.506 33.8239 25.4345 33.8505 25.3631L33.7816 11.767Z" fill="#00B453"/>
<path d="M169.607 257.468C171.021 255.45 172.121 253.344 172.907 251.248L159.93 249.986L157.98 266.763C162.122 265.339 166.364 262.098 169.607 257.468Z" fill="#EF4343"/>
<path d="M145.981 262.955C146.627 264.063 147.469 265.01 148.511 265.748C151.194 267.651 154.716 267.826 158.314 266.573L160.211 250.043L145.977 248.506L145.981 262.955Z" fill="#004FC5"/>
<path d="M149.038 242.959C147.759 244.786 146.745 246.689 145.998 248.59L160.32 250.17L162.16 233.445C157.573 234.409 152.659 237.789 149.038 242.959Z" fill="#E7C200"/>
<path d="M172.782 237.802C172.105 236.573 171.195 235.526 170.049 234.724C167.785 233.138 164.939 232.743 161.956 233.367L160.13 250.026L172.77 251.613C172.797 251.541 172.824 251.47 172.85 251.398L172.782 237.802Z" fill="#00B453"/>
</svg>
