<svg width="178" height="274" viewBox="0 0 178 274" fill="none" xmlns="http://www.w3.org/2000/svg">
<rect x="0.19043" y="0.59082" width="177" height="272" fill="#00B453"/>
<path d="M159.41 37.5355C166.882 42.7676 172.806 49.612 177.189 57.6631V146.952C172.154 160.396 165.098 173.901 156.037 186.843C116.68 243.05 54.3809 267.332 16.8876 241.079C10.0261 236.275 4.47089 230.111 0.214858 222.901L0.189941 128.855C5.136 116.342 11.8302 103.813 20.2612 91.7718C59.6178 35.5648 121.917 11.2824 159.41 37.5355Z" fill="white"/>
<path d="M17.7684 15.84C17.7684 15.18 17.5684 14.62 17.1684 14.16C16.7884 13.68 16.1684 13.44 15.3084 13.44C14.4484 13.44 13.6284 13.9 12.8484 14.82C11.4484 16.44 10.5484 18.93 10.1484 22.29C11.7284 21.59 13.3184 21.24 14.9184 21.24C16.5184 21.24 17.8784 21.78 18.9984 22.86C20.1384 23.92 20.7084 25.27 20.7084 26.91C20.7084 29.07 19.9984 30.8 18.5784 32.1C17.1584 33.38 15.4984 34.02 13.5984 34.02C11.6984 34.02 10.0584 33.25 8.6784 31.71C7.2984 30.17 6.6084 27.9 6.6084 24.9C6.6084 21.48 7.3084 18.45 8.7084 15.81C9.4084 14.49 10.3584 13.43 11.5584 12.63C12.7584 11.83 14.1284 11.43 15.6684 11.43C17.2284 11.43 18.4684 11.87 19.3884 12.75C20.3284 13.63 20.7984 14.61 20.7984 15.69C20.7984 16.43 20.5584 17.06 20.0784 17.58C19.6184 18.08 18.9384 18.33 18.0384 18.33C17.6184 18.33 17.2184 18.23 16.8384 18.03C17.4584 17.59 17.7684 16.86 17.7684 15.84ZM17.4384 27.39C17.4384 26.23 17.1184 25.29 16.4784 24.57C15.8584 23.83 14.9284 23.46 13.6884 23.46C12.4484 23.46 11.2184 23.69 9.9984 24.15V24.93C9.9984 28.25 10.5484 30.35 11.6484 31.23C12.2084 31.67 12.8984 31.89 13.7184 31.89C14.8384 31.89 15.7384 31.43 16.4184 30.51C17.0984 29.57 17.4384 28.53 17.4384 27.39Z" fill="white"/>
<path d="M168.768 246.84C168.768 246.18 168.568 245.62 168.168 245.16C167.788 244.68 167.168 244.44 166.308 244.44C165.448 244.44 164.628 244.9 163.848 245.82C162.448 247.44 161.548 249.93 161.148 253.29C162.728 252.59 164.318 252.24 165.918 252.24C167.518 252.24 168.878 252.78 169.998 253.86C171.138 254.92 171.708 256.27 171.708 257.91C171.708 260.07 170.998 261.8 169.578 263.1C168.158 264.38 166.498 265.02 164.598 265.02C162.698 265.02 161.058 264.25 159.678 262.71C158.298 261.17 157.608 258.9 157.608 255.9C157.608 252.48 158.308 249.45 159.708 246.81C160.408 245.49 161.358 244.43 162.558 243.63C163.758 242.83 165.128 242.43 166.668 242.43C168.228 242.43 169.468 242.87 170.388 243.75C171.328 244.63 171.798 245.61 171.798 246.69C171.798 247.43 171.558 248.06 171.078 248.58C170.618 249.08 169.938 249.33 169.038 249.33C168.618 249.33 168.218 249.23 167.838 249.03C168.458 248.59 168.768 247.86 168.768 246.84ZM168.438 258.39C168.438 257.23 168.118 256.29 167.478 255.57C166.858 254.83 165.928 254.46 164.688 254.46C163.448 254.46 162.218 254.69 160.998 255.15V255.93C160.998 259.25 161.548 261.35 162.648 262.23C163.208 262.67 163.898 262.89 164.718 262.89C165.838 262.89 166.738 262.43 167.418 261.51C168.098 260.57 168.438 259.53 168.438 258.39Z" fill="white"/>
<path d="M103.074 111.36C103.074 108.72 102.274 106.48 100.674 104.64C99.1536 102.72 96.6736 101.76 93.2336 101.76C89.7936 101.76 86.5136 103.6 83.3936 107.28C77.7936 113.76 74.1936 123.72 72.5936 137.16C78.9136 134.36 85.2736 132.96 91.6736 132.96C98.0736 132.96 103.514 135.12 107.994 139.44C112.554 143.68 114.834 149.08 114.834 155.64C114.834 164.28 111.994 171.2 106.314 176.4C100.634 181.52 93.9936 184.08 86.3936 184.08C78.7936 184.08 72.2336 181 66.7136 174.84C61.1936 168.68 58.4336 159.6 58.4336 147.6C58.4336 133.92 61.2336 121.8 66.8336 111.24C69.6336 105.96 73.4336 101.72 78.2336 98.52C83.0336 95.32 88.5136 93.72 94.6736 93.72C100.914 93.72 105.874 95.48 109.554 99C113.314 102.52 115.194 106.44 115.194 110.76C115.194 113.72 114.234 116.24 112.314 118.32C110.474 120.32 107.754 121.32 104.154 121.32C102.474 121.32 100.874 120.92 99.3536 120.12C101.834 118.36 103.074 115.44 103.074 111.36ZM101.754 157.56C101.754 152.92 100.474 149.16 97.9136 146.28C95.4336 143.32 91.7136 141.84 86.7536 141.84C81.7936 141.84 76.8736 142.76 71.9936 144.6V147.72C71.9936 161 74.1936 169.4 78.5936 172.92C80.8336 174.68 83.5936 175.56 86.8736 175.56C91.3536 175.56 94.9536 173.72 97.6736 170.04C100.394 166.28 101.754 162.12 101.754 157.56Z" fill="#00B453"/>
</svg>
