<svg width="178" height="274" viewBox="0 0 178 274" fill="none" xmlns="http://www.w3.org/2000/svg">
<rect x="0.19043" y="0.590576" width="177" height="272" fill="#EF4343"/>
<path d="M159.41 37.5355C166.882 42.7676 172.806 49.612 177.189 57.6631V146.952C172.154 160.396 165.098 173.901 156.037 186.843C116.68 243.05 54.3809 267.332 16.8876 241.079C10.0261 236.275 4.47089 230.111 0.214858 222.901L0.189941 128.855C5.136 116.342 11.8302 103.813 20.2612 91.7718C59.6178 35.5648 121.917 11.2824 159.41 37.5355Z" fill="white"/>
<path d="M17.3829 16.56C17.3829 15.7 17.1429 15 16.6629 14.46C16.2029 13.92 15.5329 13.65 14.6529 13.65C13.7929 13.65 13.1229 13.89 12.6429 14.37C12.1629 14.83 11.9229 15.48 11.9229 16.32C11.9229 17.14 12.2729 17.95 12.9729 18.75C12.6129 18.85 12.2729 18.9 11.9529 18.9C11.0529 18.9 10.3429 18.63 9.82293 18.09C9.30293 17.55 9.04293 16.89 9.04293 16.11C9.04293 14.77 9.55293 13.67 10.5729 12.81C11.6129 11.93 13.0129 11.49 14.7729 11.49C16.5329 11.49 17.9029 11.99 18.8829 12.99C19.8829 13.97 20.3829 15.15 20.3829 16.53C20.3829 17.57 20.0529 18.56 19.3929 19.5C18.7329 20.42 17.7229 21.19 16.3629 21.81C17.6229 22.01 18.6529 22.62 19.4529 23.64C20.2529 24.64 20.6529 25.82 20.6529 27.18C20.6529 29 19.9829 30.59 18.6429 31.95C17.3029 33.31 15.4229 33.99 13.0029 33.99C11.0629 33.99 9.55293 33.52 8.47293 32.58C7.39293 31.64 6.85293 30.55 6.85293 29.31C6.85293 28.35 7.15293 27.53 7.75293 26.85C8.37293 26.15 9.22293 25.8 10.3029 25.8C10.6429 25.8 11.0229 25.87 11.4429 26.01C11.0229 26.31 10.6829 26.74 10.4229 27.3C10.1629 27.86 10.0329 28.41 10.0329 28.95C10.0329 30.89 11.0929 31.86 13.2129 31.86C14.3129 31.86 15.2629 31.48 16.0629 30.72C16.8629 29.94 17.2629 28.94 17.2629 27.72C17.2629 26.5 16.8829 25.44 16.1229 24.54C15.3829 23.62 14.3629 23.05 13.0629 22.83C12.7429 22.89 12.3129 22.96 11.7729 23.04L11.6229 22.02C13.4629 21.72 14.8829 21.03 15.8829 19.95C16.8829 18.87 17.3829 17.74 17.3829 16.56Z" fill="white"/>
<path d="M168.383 247.56C168.383 246.7 168.143 246 167.663 245.46C167.203 244.92 166.533 244.65 165.653 244.65C164.793 244.65 164.123 244.89 163.643 245.37C163.163 245.83 162.923 246.48 162.923 247.32C162.923 248.14 163.273 248.95 163.973 249.75C163.613 249.85 163.273 249.9 162.953 249.9C162.053 249.9 161.343 249.63 160.823 249.09C160.303 248.55 160.043 247.89 160.043 247.11C160.043 245.77 160.553 244.67 161.573 243.81C162.613 242.93 164.013 242.49 165.773 242.49C167.533 242.49 168.903 242.99 169.883 243.99C170.883 244.97 171.383 246.15 171.383 247.53C171.383 248.57 171.053 249.56 170.393 250.5C169.733 251.42 168.723 252.19 167.363 252.81C168.623 253.01 169.653 253.62 170.453 254.64C171.253 255.64 171.653 256.82 171.653 258.18C171.653 260 170.983 261.59 169.643 262.95C168.303 264.31 166.423 264.99 164.003 264.99C162.063 264.99 160.553 264.52 159.473 263.58C158.393 262.64 157.853 261.55 157.853 260.31C157.853 259.35 158.153 258.53 158.753 257.85C159.373 257.15 160.223 256.8 161.303 256.8C161.643 256.8 162.023 256.87 162.443 257.01C162.023 257.31 161.683 257.74 161.423 258.3C161.163 258.86 161.033 259.41 161.033 259.95C161.033 261.89 162.093 262.86 164.213 262.86C165.313 262.86 166.263 262.48 167.063 261.72C167.863 260.94 168.263 259.94 168.263 258.72C168.263 257.5 167.883 256.44 167.123 255.54C166.383 254.62 165.363 254.05 164.063 253.83C163.743 253.89 163.313 253.96 162.773 254.04L162.623 253.02C164.463 252.72 165.883 252.03 166.883 250.95C167.883 249.87 168.383 248.74 168.383 247.56Z" fill="white"/>
<path d="M99.5317 114.24C99.5317 110.8 98.5717 108 96.6517 105.84C94.8117 103.68 92.1317 102.6 88.6117 102.6C85.1717 102.6 82.4917 103.56 80.5717 105.48C78.6517 107.32 77.6917 109.92 77.6917 113.28C77.6917 116.56 79.0917 119.8 81.8917 123C80.4517 123.4 79.0917 123.6 77.8117 123.6C74.2117 123.6 71.3717 122.52 69.2917 120.36C67.2117 118.2 66.1717 115.56 66.1717 112.44C66.1717 107.08 68.2117 102.68 72.2917 99.24C76.4517 95.72 82.0517 93.96 89.0917 93.96C96.1317 93.96 101.612 95.96 105.532 99.96C109.532 103.88 111.532 108.6 111.532 114.12C111.532 118.28 110.212 122.24 107.572 126C104.932 129.68 100.892 132.76 95.4517 135.24C100.492 136.04 104.612 138.48 107.812 142.56C111.012 146.56 112.612 151.28 112.612 156.72C112.612 164 109.932 170.36 104.572 175.8C99.2117 181.24 91.6917 183.96 82.0117 183.96C74.2517 183.96 68.2117 182.08 63.8917 178.32C59.5717 174.56 57.4117 170.2 57.4117 165.24C57.4117 161.4 58.6117 158.12 61.0117 155.4C63.4917 152.6 66.8917 151.2 71.2117 151.2C72.5717 151.2 74.0917 151.48 75.7717 152.04C74.0917 153.24 72.7317 154.96 71.6917 157.2C70.6517 159.44 70.1317 161.64 70.1317 163.8C70.1317 171.56 74.3717 175.44 82.8517 175.44C87.2517 175.44 91.0517 173.92 94.2517 170.88C97.4517 167.76 99.0517 163.76 99.0517 158.88C99.0517 154 97.5317 149.76 94.4917 146.16C91.5317 142.48 87.4517 140.2 82.2517 139.32C80.9717 139.56 79.2517 139.84 77.0917 140.16L76.4917 136.08C83.8517 134.88 89.5317 132.12 93.5317 127.8C97.5317 123.48 99.5317 118.96 99.5317 114.24Z" fill="#EF4343"/>
</svg>
