<svg width="178" height="274" viewBox="0 0 178 274" fill="none" xmlns="http://www.w3.org/2000/svg">
<rect x="0.19043" y="0.590576" width="177" height="272" fill="#00B453"/>
<path d="M159.41 37.5355C166.882 42.7676 172.806 49.612 177.189 57.6631V146.952C172.154 160.396 165.098 173.901 156.037 186.843C116.68 243.05 54.3809 267.332 16.8876 241.079C10.0261 236.275 4.47089 230.111 0.214858 222.901L0.189941 128.855C5.136 116.342 11.8302 103.813 20.2612 91.7718C59.6178 35.5648 121.917 11.2824 159.41 37.5355Z" fill="white"/>
<path d="M11.2513 30.36L12.6613 30.39C12.7413 29.29 12.9813 27.09 13.3813 23.79C13.8013 20.49 14.0913 17.98 14.2513 16.26C12.0913 17.56 10.7513 18.21 10.2313 18.21C9.73125 18.21 9.30125 17.83 8.94125 17.07C8.60125 16.29 8.43125 15.63 8.43125 15.09C9.41125 14.89 10.8113 14.5 12.6313 13.92C14.4513 13.32 16.1113 12.66 17.6113 11.94C17.6113 13.02 17.3513 15.72 16.8313 20.04C16.3113 24.36 15.9913 27.84 15.8713 30.48C17.7313 30.44 19.2613 30.18 20.4613 29.7C20.3813 31.1 20.1313 32.1 19.7113 32.7C19.2913 33.28 18.5413 33.57 17.4613 33.57C17.0813 33.57 16.2513 33.48 14.9713 33.3C13.6913 33.12 12.3713 33.03 11.0113 33.03C9.67125 33.03 8.41125 33.23 7.23125 33.63C7.23125 33.35 7.32125 33 7.50125 32.58C7.68125 32.14 7.90125 31.78 8.16125 31.5C8.42125 31.2 8.82125 30.94 9.36125 30.72C9.90125 30.48 10.5313 30.36 11.2513 30.36Z" fill="white"/>
<path d="M162.251 261.36L163.661 261.39C163.741 260.29 163.981 258.09 164.381 254.79C164.801 251.49 165.091 248.98 165.251 247.26C163.091 248.56 161.751 249.21 161.231 249.21C160.731 249.21 160.301 248.83 159.941 248.07C159.601 247.29 159.431 246.63 159.431 246.09C160.411 245.89 161.811 245.5 163.631 244.92C165.451 244.32 167.111 243.66 168.611 242.94C168.611 244.02 168.351 246.72 167.831 251.04C167.311 255.36 166.991 258.84 166.871 261.48C168.731 261.44 170.261 261.18 171.461 260.7C171.381 262.1 171.131 263.1 170.711 263.7C170.291 264.28 169.541 264.57 168.461 264.57C168.081 264.57 167.251 264.48 165.971 264.3C164.691 264.12 163.371 264.03 162.011 264.03C160.671 264.03 159.411 264.23 158.231 264.63C158.231 264.35 158.321 264 158.501 263.58C158.681 263.14 158.901 262.78 159.161 262.5C159.421 262.2 159.821 261.94 160.361 261.72C160.901 261.48 161.531 261.36 162.251 261.36Z" fill="white"/>
<path d="M77.005 169.44L82.645 169.56C82.965 165.16 83.925 156.36 85.525 143.16C87.205 129.96 88.365 119.92 89.005 113.04C80.365 118.24 75.005 120.84 72.925 120.84C70.925 120.84 69.205 119.32 67.765 116.28C66.405 113.16 65.725 110.52 65.725 108.36C69.645 107.56 75.245 106 82.525 103.68C89.805 101.28 96.445 98.64 102.445 95.76C102.445 100.08 101.405 110.88 99.325 128.16C97.245 145.44 95.965 159.36 95.485 169.92C102.925 169.76 109.045 168.72 113.845 166.8C113.525 172.4 112.525 176.4 110.845 178.8C109.165 181.12 106.165 182.28 101.845 182.28C100.325 182.28 97.005 181.92 91.885 181.2C86.765 180.48 81.485 180.12 76.045 180.12C70.685 180.12 65.645 180.92 60.925 182.52C60.925 181.4 61.285 180 62.005 178.32C62.725 176.56 63.605 175.12 64.645 174C65.685 172.8 67.285 171.76 69.445 170.88C71.605 169.92 74.125 169.44 77.005 169.44Z" fill="#00B453"/>
</svg>
