<svg width="178" height="274" viewBox="0 0 178 274" fill="none" xmlns="http://www.w3.org/2000/svg">
<rect x="0.19043" y="0.590576" width="177" height="272" fill="#E7C200"/>
<path d="M159.41 37.5355C166.882 42.7676 172.806 49.612 177.189 57.6631V146.952C172.154 160.396 165.098 173.901 156.037 186.843C116.68 243.05 54.3809 267.332 16.8876 241.079C10.0261 236.275 4.47089 230.111 0.214858 222.901L0.189941 128.855C5.136 116.342 11.8302 103.813 20.2612 91.7718C59.6178 35.5648 121.917 11.2824 159.41 37.5355Z" fill="white"/>
<path d="M15.1467 14.04C13.5667 14.04 12.1867 15.09 11.0067 17.19C9.84668 19.27 9.26668 21.48 9.26668 23.82C9.26668 26.14 9.61668 28.02 10.3167 29.46C11.0167 30.9 12.0367 31.62 13.3767 31.62C14.4767 31.62 15.4367 31.12 16.2567 30.12C17.8567 28.16 18.6567 25.32 18.6567 21.6C18.6567 18.98 18.3267 17.07 17.6667 15.87C17.0067 14.65 16.1667 14.04 15.1467 14.04ZM16.8567 12.21C18.4567 12.21 19.6867 12.95 20.5467 14.43C21.4267 15.91 21.8667 17.81 21.8667 20.13C21.8667 23.53 21.1467 26.56 19.7067 29.22C19.0067 30.56 18.0467 31.64 16.8267 32.46C15.6267 33.28 14.1967 33.69 12.5367 33.69C10.8767 33.69 9.39668 32.86 8.09668 31.2C6.79668 29.54 6.14668 27.16 6.14668 24.06C6.14668 20.94 6.77668 18.26 8.03668 16.02C9.31668 13.76 11.0067 12.32 13.1067 11.7C13.5867 11.7 13.8467 12.12 13.8867 12.96C14.9667 12.46 15.9567 12.21 16.8567 12.21Z" fill="white"/>
<path d="M166.147 245.04C164.567 245.04 163.187 246.09 162.007 248.19C160.847 250.27 160.267 252.48 160.267 254.82C160.267 257.14 160.617 259.02 161.317 260.46C162.017 261.9 163.037 262.62 164.377 262.62C165.477 262.62 166.437 262.12 167.257 261.12C168.857 259.16 169.657 256.32 169.657 252.6C169.657 249.98 169.327 248.07 168.667 246.87C168.007 245.65 167.167 245.04 166.147 245.04ZM167.857 243.21C169.457 243.21 170.687 243.95 171.547 245.43C172.427 246.91 172.867 248.81 172.867 251.13C172.867 254.53 172.147 257.56 170.707 260.22C170.007 261.56 169.047 262.64 167.827 263.46C166.627 264.28 165.197 264.69 163.537 264.69C161.877 264.69 160.397 263.86 159.097 262.2C157.797 260.54 157.147 258.16 157.147 255.06C157.147 251.94 157.777 249.26 159.037 247.02C160.317 244.76 162.007 243.32 164.107 242.7C164.587 242.7 164.847 243.12 164.887 243.96C165.967 243.46 166.957 243.21 167.857 243.21Z" fill="white"/>
<path d="M92.5867 104.16C86.2667 104.16 80.7467 108.36 76.0267 116.76C71.3867 125.08 69.0667 133.92 69.0667 143.28C69.0667 152.56 70.4667 160.08 73.2667 165.84C76.0667 171.6 80.1467 174.48 85.5067 174.48C89.9067 174.48 93.7467 172.48 97.0267 168.48C103.427 160.64 106.627 149.28 106.627 134.4C106.627 123.92 105.307 116.28 102.667 111.48C100.027 106.6 96.6667 104.16 92.5867 104.16ZM99.4267 96.84C105.827 96.84 110.747 99.8 114.187 105.72C117.707 111.64 119.467 119.24 119.467 128.52C119.467 142.12 116.587 154.24 110.827 164.88C108.027 170.24 104.187 174.56 99.3067 177.84C94.5067 181.12 88.7867 182.76 82.1467 182.76C75.5067 182.76 69.5867 179.44 64.3867 172.8C59.1867 166.16 56.5867 156.64 56.5867 144.24C56.5867 131.76 59.1067 121.04 64.1467 112.08C69.2667 103.04 76.0267 97.28 84.4267 94.8C86.3467 94.8 87.3867 96.48 87.5467 99.84C91.8667 97.84 95.8267 96.84 99.4267 96.84Z" fill="#E7C200"/>
</svg>
