<svg width="178" height="273" viewBox="0 0 178 273" fill="none" xmlns="http://www.w3.org/2000/svg">
<rect x="0.19043" y="0.59082" width="177" height="272" fill="#004FC5"/>
<path d="M159.41 37.5355C166.882 42.7676 172.806 49.612 177.189 57.6631V146.952C172.154 160.396 165.098 173.901 156.037 186.843C116.68 243.05 54.3809 267.332 16.8876 241.079C10.0261 236.275 4.47089 230.111 0.214858 222.901L0.189941 128.855C5.136 116.342 11.8302 103.813 20.2612 91.7718C59.6178 35.5648 121.917 11.2824 159.41 37.5355Z" fill="white"/>
<path d="M11.8975 21.4131H17.9326V23.4346H11.8975V29.6748H9.86133V23.4346H3.85547V21.4131H9.86133V15.1436H11.8975V21.4131ZM35.042 33H20.9648V30.9053L26.6045 25.2363C28.3232 23.498 29.4561 22.2578 30.0029 21.5156C30.5498 20.7734 30.96 20.0508 31.2334 19.3477C31.5068 18.6445 31.6436 17.8877 31.6436 17.0771C31.6436 15.9346 31.2969 15.0312 30.6035 14.3672C29.9102 13.6934 28.9482 13.3564 27.7178 13.3564C26.8291 13.3564 25.9844 13.5029 25.1836 13.7959C24.3926 14.0889 23.5088 14.6211 22.5322 15.3926L21.2432 13.7373C23.2158 12.0967 25.3643 11.2764 27.6885 11.2764C29.7002 11.2764 31.2773 11.7939 32.4199 12.8291C33.5625 13.8545 34.1338 15.2363 34.1338 16.9746C34.1338 18.332 33.7529 19.6748 32.9912 21.0029C32.2295 22.3311 30.8037 24.0107 28.7139 26.042L24.0264 30.627V30.7441H35.042V33Z" fill="white"/>
<path d="M148.897 252.413H154.933V254.435H148.897V260.675H146.861V254.435H140.855V252.413H146.861V246.144H148.897V252.413ZM172.042 264H157.965V261.905L163.604 256.236C165.323 254.498 166.456 253.258 167.003 252.516C167.55 251.773 167.96 251.051 168.233 250.348C168.507 249.645 168.644 248.888 168.644 248.077C168.644 246.935 168.297 246.031 167.604 245.367C166.91 244.693 165.948 244.356 164.718 244.356C163.829 244.356 162.984 244.503 162.184 244.796C161.393 245.089 160.509 245.621 159.532 246.393L158.243 244.737C160.216 243.097 162.364 242.276 164.688 242.276C166.7 242.276 168.277 242.794 169.42 243.829C170.562 244.854 171.134 246.236 171.134 247.975C171.134 249.332 170.753 250.675 169.991 252.003C169.229 253.331 167.804 255.011 165.714 257.042L161.026 261.627V261.744H172.042V264Z" fill="white"/>
<rect x="40.5" y="105.5" width="66" height="104" rx="9.5" fill="#004FC5" stroke="#111111"/>
<rect x="83.5" y="64.5" width="66" height="104" rx="9.5" fill="#004FC5" stroke="#111111"/>
</svg>
