<svg width="178" height="274" viewBox="0 0 178 274" fill="none" xmlns="http://www.w3.org/2000/svg">
<rect x="0.19043" y="0.59082" width="177" height="272" fill="#004FC5"/>
<path d="M159.41 37.5355C166.882 42.7676 172.806 49.612 177.189 57.6631V146.952C172.154 160.396 165.098 173.901 156.037 186.843C116.68 243.05 54.3809 267.332 16.8876 241.079C10.0261 236.275 4.47089 230.111 0.214858 222.901L0.189941 128.855C5.136 116.342 11.8302 103.813 20.2612 91.7718C59.6178 35.5648 121.917 11.2824 159.41 37.5355Z" fill="white"/>
<path d="M21.4379 13.38C21.4379 14.68 20.9179 15.33 19.8779 15.33C18.5379 15.33 16.1379 15.03 12.6779 14.43L11.7479 20.4C12.3279 20.3 12.9879 20.25 13.7279 20.25C16.0279 20.25 17.8579 20.86 19.2179 22.08C20.5779 23.3 21.2579 24.87 21.2579 26.79C21.2579 28.69 20.5579 30.37 19.1579 31.83C17.7579 33.27 15.8979 33.99 13.5779 33.99C11.8779 33.99 10.4479 33.59 9.28785 32.79C8.12785 31.97 7.54785 30.85 7.54785 29.43C7.54785 28.43 7.83785 27.6 8.41785 26.94C9.01785 26.26 9.78785 25.92 10.7279 25.92C11.2079 25.92 11.5979 25.95 11.8979 26.01C11.1179 26.87 10.7279 27.79 10.7279 28.77C10.7279 29.73 10.9879 30.49 11.5079 31.05C12.0279 31.59 12.8179 31.86 13.8779 31.86C14.9579 31.86 15.8879 31.45 16.6679 30.63C17.4679 29.79 17.8679 28.66 17.8679 27.24C17.8679 25.8 17.3879 24.57 16.4279 23.55C15.4879 22.53 14.0679 22.02 12.1679 22.02C11.2079 22.02 10.1579 22.15 9.01785 22.41L10.4879 13.86C9.92785 13.5 9.60785 12.88 9.52785 12C10.5879 12.14 11.8279 12.21 13.2479 12.21C16.0079 12.21 18.3079 12.1 20.1479 11.88L21.1679 11.76C21.3479 12.12 21.4379 12.66 21.4379 13.38Z" fill="white"/>
<path d="M172.438 244.38C172.438 245.68 171.918 246.33 170.878 246.33C169.538 246.33 167.138 246.03 163.678 245.43L162.748 251.4C163.328 251.3 163.988 251.25 164.728 251.25C167.028 251.25 168.858 251.86 170.218 253.08C171.578 254.3 172.258 255.87 172.258 257.79C172.258 259.69 171.558 261.37 170.158 262.83C168.758 264.27 166.898 264.99 164.578 264.99C162.878 264.99 161.448 264.59 160.288 263.79C159.128 262.97 158.548 261.85 158.548 260.43C158.548 259.43 158.838 258.6 159.418 257.94C160.018 257.26 160.788 256.92 161.728 256.92C162.208 256.92 162.598 256.95 162.898 257.01C162.118 257.87 161.728 258.79 161.728 259.77C161.728 260.73 161.988 261.49 162.508 262.05C163.028 262.59 163.818 262.86 164.878 262.86C165.958 262.86 166.888 262.45 167.668 261.63C168.468 260.79 168.868 259.66 168.868 258.24C168.868 256.8 168.388 255.57 167.428 254.55C166.488 253.53 165.068 253.02 163.168 253.02C162.208 253.02 161.158 253.15 160.018 253.41L161.488 244.86C160.928 244.5 160.608 243.88 160.528 243C161.588 243.14 162.828 243.21 164.248 243.21C167.008 243.21 169.308 243.1 171.148 242.88L172.168 242.76C172.348 243.12 172.438 243.66 172.438 244.38Z" fill="white"/>
<path d="M115.751 101.52C115.751 106.72 113.671 109.32 109.511 109.32C104.151 109.32 94.5514 108.12 80.7114 105.72L76.9914 129.6C79.3114 129.2 81.9514 129 84.9114 129C94.1114 129 101.431 131.44 106.871 136.32C112.311 141.2 115.031 147.48 115.031 155.16C115.031 162.76 112.231 169.48 106.631 175.32C101.031 181.08 93.5914 183.96 84.3114 183.96C77.5114 183.96 71.7914 182.36 67.1514 179.16C62.5114 175.88 60.1914 171.4 60.1914 165.72C60.1914 161.72 61.3514 158.4 63.6714 155.76C66.0714 153.04 69.1514 151.68 72.9114 151.68C74.8314 151.68 76.3914 151.8 77.5914 152.04C74.4714 155.48 72.9114 159.16 72.9114 163.08C72.9114 166.92 73.9514 169.96 76.0314 172.2C78.1114 174.36 81.2714 175.44 85.5114 175.44C89.8314 175.44 93.5514 173.8 96.6714 170.52C99.8714 167.16 101.471 162.64 101.471 156.96C101.471 151.2 99.5514 146.28 95.7114 142.2C91.9514 138.12 86.2714 136.08 78.6714 136.08C74.8314 136.08 70.6314 136.6 66.0714 137.64L71.9514 103.44C69.7114 102 68.4314 99.52 68.1114 96C72.3514 96.56 77.3114 96.84 82.9914 96.84C94.0314 96.84 103.231 96.4 110.591 95.52L114.671 95.04C115.391 96.48 115.751 98.64 115.751 101.52Z" fill="#004FC5"/>
</svg>
