<svg width="178" height="274" viewBox="0 0 178 274" fill="none" xmlns="http://www.w3.org/2000/svg">
<rect x="0.19043" y="0.590576" width="177" height="272" fill="#00B453"/>
<path d="M159.41 37.5355C166.882 42.7676 172.806 49.612 177.189 57.6631V146.952C172.154 160.396 165.098 173.901 156.037 186.843C116.68 243.05 54.3809 267.332 16.8876 241.079C10.0261 236.275 4.47089 230.111 0.214858 222.901L0.189941 128.855C5.136 116.342 11.8302 103.813 20.2612 91.7718C59.6178 35.5648 121.917 11.2824 159.41 37.5355Z" fill="white"/>
<path d="M11.28 19.5C10.24 19.5 9.41996 19.2 8.81996 18.6C8.21996 17.98 7.91996 17.24 7.91996 16.38C7.91996 15.08 8.45996 13.93 9.53996 12.93C10.64 11.93 12.14 11.43 14.04 11.43C15.96 11.43 17.55 11.91 18.81 12.87C20.09 13.81 20.73 15.26 20.73 17.22C20.73 19.16 19.84 21.32 18.06 23.7C16.28 26.06 13.75 28.28 10.47 30.36H11.28C15.88 30.36 18.99 30.04 20.61 29.4C20.53 30.72 20.16 31.75 19.5 32.49C18.86 33.21 18.04 33.57 17.04 33.57C16.76 33.57 15.82 33.48 14.22 33.3C12.62 33.12 11.01 33.03 9.38996 33.03C7.76996 33.03 6.25996 33.23 4.85996 33.63C4.85996 33.19 5.00996 32.75 5.30996 32.31C5.84996 31.51 6.58996 30.95 7.52996 30.63C8.34996 29.93 8.90996 29.45 9.20996 29.19C9.52996 28.93 10.12 28.41 10.98 27.63C11.84 26.83 12.48 26.2 12.9 25.74C13.32 25.26 13.86 24.62 14.52 23.82C15.2 23.02 15.7 22.3 16.02 21.66C16.9 20 17.34 18.57 17.34 17.37C17.34 16.15 17.02 15.21 16.38 14.55C15.74 13.89 14.98 13.56 14.1 13.56C13.24 13.56 12.52 13.83 11.94 14.37C11.36 14.89 11.07 15.64 11.07 16.62C11.07 17.6 11.45 18.53 12.21 19.41C11.91 19.47 11.6 19.5 11.28 19.5Z" fill="white"/>
<path d="M162.28 250.5C161.24 250.5 160.42 250.2 159.82 249.6C159.22 248.98 158.92 248.24 158.92 247.38C158.92 246.08 159.46 244.93 160.54 243.93C161.64 242.93 163.14 242.43 165.04 242.43C166.96 242.43 168.55 242.91 169.81 243.87C171.09 244.81 171.73 246.26 171.73 248.22C171.73 250.16 170.84 252.32 169.06 254.7C167.28 257.06 164.75 259.28 161.47 261.36H162.28C166.88 261.36 169.99 261.04 171.61 260.4C171.53 261.72 171.16 262.75 170.5 263.49C169.86 264.21 169.04 264.57 168.04 264.57C167.76 264.57 166.82 264.48 165.22 264.3C163.62 264.12 162.01 264.03 160.39 264.03C158.77 264.03 157.26 264.23 155.86 264.63C155.86 264.19 156.01 263.75 156.31 263.31C156.85 262.51 157.59 261.95 158.53 261.63C159.35 260.93 159.91 260.45 160.21 260.19C160.53 259.93 161.12 259.41 161.98 258.63C162.84 257.83 163.48 257.2 163.9 256.74C164.32 256.26 164.86 255.62 165.52 254.82C166.2 254.02 166.7 253.3 167.02 252.66C167.9 251 168.34 249.57 168.34 248.37C168.34 247.15 168.02 246.21 167.38 245.55C166.74 244.89 165.98 244.56 165.1 244.56C164.24 244.56 163.52 244.83 162.94 245.37C162.36 245.89 162.07 246.64 162.07 247.62C162.07 248.6 162.45 249.53 163.21 250.41C162.91 250.47 162.6 250.5 162.28 250.5Z" fill="white"/>
<path d="M77.1198 126C72.9598 126 69.6798 124.8 67.2798 122.4C64.8798 119.92 63.6798 116.96 63.6798 113.52C63.6798 108.32 65.8398 103.72 70.1598 99.72C74.5598 95.72 80.5598 93.72 88.1598 93.72C95.8398 93.72 102.2 95.64 107.24 99.48C112.36 103.24 114.92 109.04 114.92 116.88C114.92 124.64 111.36 133.28 104.24 142.8C97.1198 152.24 86.9998 161.12 73.8798 169.44H77.1198C95.5198 169.44 107.96 168.16 114.44 165.6C114.12 170.88 112.64 175 110 177.96C107.44 180.84 104.16 182.28 100.16 182.28C99.0398 182.28 95.2798 181.92 88.8798 181.2C82.4798 180.48 76.0398 180.12 69.5598 180.12C63.0798 180.12 57.0398 180.92 51.4398 182.52C51.4398 180.76 52.0398 179 53.2398 177.24C55.3998 174.04 58.3598 171.8 62.1198 170.52C65.3998 167.72 67.6398 165.8 68.8398 164.76C70.1198 163.72 72.4798 161.64 75.9198 158.52C79.3598 155.32 81.9198 152.8 83.5998 150.96C85.2798 149.04 87.4398 146.48 90.0798 143.28C92.7998 140.08 94.7998 137.2 96.0798 134.64C99.5998 128 101.36 122.28 101.36 117.48C101.36 112.6 100.08 108.84 97.5198 106.2C94.9598 103.56 91.9198 102.24 88.3998 102.24C84.9598 102.24 82.0798 103.32 79.7598 105.48C77.4398 107.56 76.2798 110.56 76.2798 114.48C76.2798 118.4 77.7998 122.12 80.8398 125.64C79.6398 125.88 78.3998 126 77.1198 126Z" fill="#00B453"/>
</svg>
