<svg width="178" height="274" viewBox="0 0 178 274" fill="none" xmlns="http://www.w3.org/2000/svg">
<rect x="0.19043" y="0.590576" width="177" height="272" fill="#E7C200"/>
<path d="M159.41 37.5355C166.882 42.7676 172.806 49.612 177.189 57.6631V146.952C172.154 160.396 165.098 173.901 156.037 186.843C116.68 243.05 54.3809 267.332 16.8876 241.079C10.0261 236.275 4.47089 230.111 0.214858 222.901L0.189941 128.855C5.136 116.342 11.8302 103.813 20.2612 91.7718C59.6178 35.5648 121.917 11.2824 159.41 37.5355Z" fill="white"/>
<path d="M6.52715 26.4C6.52715 26.24 6.55715 26.12 6.61715 26.04C11.0171 19.02 13.5871 13.77 14.3271 10.29C14.4671 10.33 14.7071 10.47 15.0471 10.71C15.4071 10.95 15.6971 11.18 15.9171 11.4C16.4571 11.94 16.7271 12.58 16.7271 13.32C16.7271 14.06 16.3571 15.07 15.6171 16.35C14.8971 17.61 13.8671 19.23 12.5271 21.21C11.2071 23.19 10.1871 24.82 9.46715 26.1C11.0471 26.08 13.3771 25.96 16.4571 25.74C16.7171 23.88 16.8471 22.53 16.8471 21.69C16.8471 20.83 16.8271 20.06 16.7871 19.38C17.1071 19.34 17.3771 19.32 17.5971 19.32C18.3171 19.32 18.8571 19.54 19.2171 19.98C19.5771 20.42 19.7571 21.03 19.7571 21.81C19.7571 22.57 19.6271 23.79 19.3671 25.47L21.2271 25.26C21.3671 25.76 21.4371 26.29 21.4371 26.85C21.4371 28.05 20.6771 28.65 19.1571 28.65H18.9771C18.9171 29.39 18.8871 30.34 18.8871 31.5C18.8871 32.64 18.9471 33.49 19.0671 34.05C18.6671 34.09 18.3471 34.11 18.1071 34.11C17.2071 34.11 16.5371 33.85 16.0971 33.33C15.6571 32.83 15.4371 32.19 15.4371 31.41C15.4371 31.13 15.5971 30.19 15.9171 28.59L7.27715 28.26C6.77715 27.94 6.52715 27.32 6.52715 26.4Z" fill="white"/>
<path d="M157.527 257.4C157.527 257.24 157.557 257.12 157.617 257.04C162.017 250.02 164.587 244.77 165.327 241.29C165.467 241.33 165.707 241.47 166.047 241.71C166.407 241.95 166.697 242.18 166.917 242.4C167.457 242.94 167.727 243.58 167.727 244.32C167.727 245.06 167.357 246.07 166.617 247.35C165.897 248.61 164.867 250.23 163.527 252.21C162.207 254.19 161.187 255.82 160.467 257.1C162.047 257.08 164.377 256.96 167.457 256.74C167.717 254.88 167.847 253.53 167.847 252.69C167.847 251.83 167.827 251.06 167.787 250.38C168.107 250.34 168.377 250.32 168.597 250.32C169.317 250.32 169.857 250.54 170.217 250.98C170.577 251.42 170.757 252.03 170.757 252.81C170.757 253.57 170.627 254.79 170.367 256.47L172.227 256.26C172.367 256.76 172.437 257.29 172.437 257.85C172.437 259.05 171.677 259.65 170.157 259.65H169.977C169.917 260.39 169.887 261.34 169.887 262.5C169.887 263.64 169.947 264.49 170.067 265.05C169.667 265.09 169.347 265.11 169.107 265.11C168.207 265.11 167.537 264.85 167.097 264.33C166.657 263.83 166.437 263.19 166.437 262.41C166.437 262.13 166.597 261.19 166.917 259.59L158.277 259.26C157.777 258.94 157.527 258.32 157.527 257.4Z" fill="white"/>
<path d="M56.1086 153.6C56.1086 152.96 56.2286 152.48 56.4686 152.16C74.0686 124.08 84.3486 103.08 87.3086 89.16C87.8686 89.32 88.8286 89.88 90.1886 90.84C91.6286 91.8 92.7886 92.72 93.6686 93.6C95.8286 95.76 96.9086 98.32 96.9086 101.28C96.9086 104.24 95.4286 108.28 92.4686 113.4C89.5886 118.44 85.4686 124.92 80.1086 132.84C74.8286 140.76 70.7486 147.28 67.8686 152.4C74.1886 152.32 83.5086 151.84 95.8286 150.96C96.8686 143.52 97.3886 138.12 97.3886 134.76C97.3886 131.32 97.3086 128.24 97.1486 125.52C98.4286 125.36 99.5086 125.28 100.389 125.28C103.269 125.28 105.429 126.16 106.869 127.92C108.309 129.68 109.029 132.12 109.029 135.24C109.029 138.28 108.509 143.16 107.469 149.88L114.909 149.04C115.469 151.04 115.749 153.16 115.749 155.4C115.749 160.2 112.709 162.6 106.629 162.6H105.909C105.669 165.56 105.549 169.36 105.549 174C105.549 178.56 105.789 181.96 106.269 184.2C104.669 184.36 103.389 184.44 102.429 184.44C98.8286 184.44 96.1486 183.4 94.3886 181.32C92.6286 179.32 91.7486 176.76 91.7486 173.64C91.7486 172.52 92.3886 168.76 93.6686 162.36L59.1086 161.04C57.1086 159.76 56.1086 157.28 56.1086 153.6Z" fill="#E7C200"/>
</svg>
