<svg width="177" height="272" viewBox="0 0 177 272" fill="none" xmlns="http://www.w3.org/2000/svg">
<rect x="0.000488281" width="177" height="272" fill="#2E2E2E"/>
<path d="M159.22 36.9449C166.693 42.177 172.616 49.0214 176.999 57.0725V146.361C171.964 159.805 164.908 173.311 155.847 186.252C116.49 242.459 54.191 266.742 16.6977 240.488C9.83616 235.684 4.28095 229.52 0.024917 222.31L0 128.265C4.94606 115.751 11.6403 103.222 20.0713 91.1812C59.4279 34.9742 121.727 10.6918 159.22 36.9449Z" fill="#CD2222"/>
<path d="M52.0468 140.926L75.1242 165.674C78.3089 169.122 79.8442 172.94 79.7302 177.128C79.6328 181.3 77.8754 185.229 74.4577 188.915L73.2295 190.154C69.2465 193.868 65.0695 195.753 60.6984 195.81C56.3273 195.867 52.369 194.028 48.8235 190.293L25.6995 165.495L30.449 161.066L53.4332 185.714C55.8885 188.347 58.5249 189.721 61.3423 189.835C64.1442 189.933 66.8867 188.731 69.5697 186.229C72.2861 183.696 73.6849 181.036 73.7661 178.25C73.8639 175.448 72.6851 172.731 70.2298 170.098L47.2223 145.425L52.0468 140.926ZM121.533 144.175L116.709 148.674L72.2313 137.713L98.3856 165.76L93.5611 170.259L59.621 133.863L64.4456 129.364L109.09 140.403L82.8187 112.231L87.5932 107.779L121.533 144.175ZM142.18 93.0951C145.506 96.6614 147.812 100.337 149.098 104.122C150.369 107.891 150.558 111.501 149.663 114.952C148.769 118.403 146.855 121.496 143.922 124.232C141.056 126.905 137.862 128.574 134.34 129.241C130.803 129.892 127.205 129.492 123.548 128.042C119.891 126.56 116.446 124.119 113.211 120.717L110.764 118.092C107.5 114.592 105.226 110.934 103.94 107.116C102.655 103.299 102.46 99.6482 103.355 96.1648C104.252 92.6492 106.133 89.555 109 86.882C111.916 84.1625 115.143 82.4775 118.68 81.8272C122.219 81.1446 125.839 81.5854 129.541 83.1496C133.227 84.6971 136.725 87.2456 140.036 90.7953L142.18 93.0951ZM135.214 95.1976C131.189 90.8814 127.238 88.3815 123.36 87.6979C119.467 86.9977 115.962 88.1006 112.846 91.0066C109.813 93.8349 108.502 97.2232 108.912 101.171C109.323 105.087 111.415 109.118 115.188 113.265L117.683 115.939C121.583 120.122 125.527 122.598 129.515 123.366C133.504 124.102 137.04 123.032 140.123 120.157C143.222 117.267 144.573 113.904 144.175 110.069C143.761 106.217 141.614 102.16 137.732 97.8973L135.214 95.1976Z" fill="#FFB800"/>
<path d="M52.0468 140.926L52.7782 140.244L52.0962 139.513L51.3648 140.195L52.0468 140.926ZM75.1242 165.674L75.8589 164.995L75.8556 164.992L75.1242 165.674ZM79.7302 177.128L78.7305 177.101L78.7305 177.105L79.7302 177.128ZM74.4577 188.915L75.1678 189.619L75.1796 189.607L75.191 189.595L74.4577 188.915ZM73.2295 190.154L73.9115 190.885L73.9258 190.872L73.9396 190.858L73.2295 190.154ZM48.8235 190.293L48.0921 190.975L48.0982 190.981L48.8235 190.293ZM25.6995 165.495L25.0175 164.764L24.2862 165.446L24.9682 166.177L25.6995 165.495ZM30.449 161.066L31.1804 160.384L30.4984 159.653L29.767 160.335L30.449 161.066ZM61.3423 189.835L61.3017 190.834L61.3074 190.835L61.3423 189.835ZM73.7661 178.25L72.7667 178.215L72.7665 178.221L73.7661 178.25ZM47.2223 145.425L46.5403 144.694L45.809 145.376L46.491 146.107L47.2223 145.425ZM51.3155 141.608L74.3929 166.356L75.8556 164.992L52.7782 140.244L51.3155 141.608ZM74.3896 166.352C77.4204 169.634 78.8366 173.206 78.7305 177.101L80.7298 177.155C80.8518 172.674 79.1973 168.61 75.8589 164.995L74.3896 166.352ZM78.7305 177.105C78.6399 180.985 77.0117 184.69 73.7245 188.235L75.191 189.595C78.739 185.769 80.6258 181.616 80.7299 177.151L78.7305 177.105ZM73.7476 188.211L72.5193 189.45L73.9396 190.858L75.1678 189.619L73.7476 188.211ZM72.5475 189.422C68.6998 193.01 64.7508 194.757 60.6854 194.81L60.7114 196.81C65.3882 196.749 69.7933 194.725 73.9115 190.885L72.5475 189.422ZM60.6854 194.81C56.6429 194.863 52.9396 193.177 49.5488 189.604L48.0982 190.981C51.7984 194.879 56.0117 196.871 60.7114 196.81L60.6854 194.81ZM49.5549 189.611L26.4309 164.813L24.9682 166.177L48.0922 190.975L49.5549 189.611ZM26.3815 166.227L31.131 161.798L29.767 160.335L25.0175 164.764L26.3815 166.227ZM29.7177 161.748L52.7018 186.396L54.1645 185.032L31.1804 160.384L29.7177 161.748ZM52.7018 186.396C55.2847 189.166 58.1538 190.707 61.3017 190.834L61.3829 188.836C58.8961 188.735 56.4924 187.528 54.1645 185.032L52.7018 186.396ZM61.3074 190.835C64.4488 190.944 67.4369 189.585 70.2517 186.96L68.8877 185.498C66.3364 187.877 63.8396 188.922 61.3772 188.836L61.3074 190.835ZM70.2517 186.96C73.0963 184.308 74.6744 181.412 74.7656 178.279L72.7665 178.221C72.6954 180.66 71.4759 183.084 68.8877 185.498L70.2517 186.96ZM74.7655 178.285C74.875 175.148 73.5436 172.185 70.9611 169.416L69.4984 170.78C71.8267 173.276 72.8528 175.748 72.7667 178.215L74.7655 178.285ZM70.9611 169.416L47.9537 144.743L46.491 146.107L69.4984 170.78L70.9611 169.416ZM47.9043 146.156L52.7288 141.658L51.3648 140.195L46.5403 144.694L47.9043 146.156ZM121.533 144.175L122.215 144.906L122.947 144.224L122.265 143.493L121.533 144.175ZM116.709 148.674L116.469 149.645L116.995 149.774L117.391 149.405L116.709 148.674ZM72.2313 137.713L72.4705 136.742L69.209 135.939L71.4999 138.395L72.2313 137.713ZM98.3856 165.76L99.0676 166.492L99.799 165.81L99.117 165.078L98.3856 165.76ZM93.5611 170.259L92.8298 170.941L93.5118 171.673L94.2431 170.991L93.5611 170.259ZM59.621 133.863L58.9391 133.132L58.2077 133.814L58.8897 134.545L59.621 133.863ZM64.4456 129.364L64.6856 128.393L64.1597 128.263L63.7636 128.633L64.4456 129.364ZM109.09 140.403L108.85 141.374L112.115 142.181L109.821 139.721L109.09 140.403ZM82.8187 112.231L82.1367 111.5L81.4053 112.182L82.0873 112.913L82.8187 112.231ZM87.5932 107.779L88.3245 107.097L87.6425 106.365L86.9112 107.047L87.5932 107.779ZM120.851 143.444L116.027 147.943L117.391 149.405L122.215 144.906L120.851 143.444ZM116.948 147.703L72.4705 136.742L71.992 138.684L116.469 149.645L116.948 147.703ZM71.4999 138.395L97.6543 166.442L99.117 165.078L72.9626 137.031L71.4999 138.395ZM97.7036 165.029L92.8791 169.528L94.2431 170.991L99.0676 166.492L97.7036 165.029ZM94.2925 169.577L60.3524 133.181L58.8897 134.545L92.8298 170.941L94.2925 169.577ZM60.303 134.594L65.1276 130.096L63.7636 128.633L58.9391 133.132L60.303 134.594ZM64.2055 130.335L108.85 141.374L109.33 139.432L64.6856 128.393L64.2055 130.335ZM109.821 139.721L83.55 111.549L82.0873 112.913L108.358 141.085L109.821 139.721ZM83.5007 112.962L88.2752 108.51L86.9112 107.047L82.1367 111.5L83.5007 112.962ZM86.8618 108.461L120.802 144.857L122.265 143.493L88.3245 107.097L86.8618 108.461ZM149.098 104.122L150.046 103.803L150.045 103.801L149.098 104.122ZM134.34 129.241L134.521 130.225L134.526 130.224L134.34 129.241ZM123.548 128.042L123.172 128.969L123.179 128.972L123.548 128.042ZM113.211 120.717L112.48 121.399L112.486 121.406L113.211 120.717ZM103.355 96.1648L104.324 96.4138L104.324 96.412L103.355 96.1648ZM118.68 81.8272L118.861 82.8107L118.87 82.8091L118.68 81.8272ZM129.541 83.1496L129.152 84.0707L129.154 84.0716L129.541 83.1496ZM123.36 87.6979L123.183 88.6821L123.187 88.6827L123.36 87.6979ZM108.912 101.171L107.917 101.275L107.917 101.276L108.912 101.171ZM115.188 113.265L114.449 113.938L114.457 113.947L115.188 113.265ZM129.515 123.366L129.326 124.348L129.334 124.349L129.515 123.366ZM144.175 110.069L145.17 109.966L145.169 109.962L144.175 110.069ZM137.732 97.8973L138.471 97.224L138.463 97.2153L137.732 97.8973ZM141.449 93.777C144.699 97.2621 146.919 100.819 148.152 104.444L150.045 103.801C148.704 99.8553 146.313 96.0606 142.911 92.4131L141.449 93.777ZM148.151 104.442C149.367 108.049 149.535 111.46 148.695 114.701L150.631 115.203C151.58 111.542 151.372 107.734 150.046 103.803L148.151 104.442ZM148.695 114.701C147.854 117.946 146.052 120.878 143.24 123.5L144.604 124.963C147.658 122.115 149.683 118.861 150.631 115.203L148.695 114.701ZM143.24 123.5C140.499 126.057 137.473 127.63 134.154 128.259L134.526 130.224C138.251 129.519 141.613 127.752 144.604 124.963L143.24 123.5ZM134.159 128.258C130.823 128.871 127.416 128.5 123.916 127.113L123.179 128.972C126.994 130.484 130.782 130.912 134.521 130.225L134.159 128.258ZM123.923 127.116C120.421 125.696 117.091 123.346 113.936 120.028L112.486 121.406C115.801 124.891 119.361 127.425 123.172 128.969L123.923 127.116ZM113.942 120.035L111.495 117.41L110.032 118.774L112.48 121.399L113.942 120.035ZM111.495 117.41C108.311 113.995 106.12 110.457 104.888 106.797L102.992 107.435C104.331 111.411 106.69 115.189 110.032 118.774L111.495 117.41ZM104.888 106.797C103.656 103.14 103.482 99.6878 104.324 96.4138L102.387 95.9158C101.437 99.6086 101.653 103.457 102.992 107.435L104.888 106.797ZM104.324 96.412C105.17 93.0969 106.944 90.1666 109.682 87.6134L108.318 86.1507C105.323 88.9433 103.334 92.2016 102.386 95.9177L104.324 96.412ZM109.682 87.6134C112.474 85.0093 115.532 83.4228 118.861 82.8107L118.5 80.8437C114.754 81.5322 111.358 83.3156 108.318 86.1507L109.682 87.6134ZM118.87 82.8091C122.192 82.1683 125.611 82.5745 129.152 84.0707L129.93 82.2284C126.067 80.5964 122.246 80.1209 118.491 80.8453L118.87 82.8091ZM129.154 84.0716C132.685 85.554 136.07 88.0094 139.304 91.4773L140.767 90.1133C137.381 86.4819 133.77 83.8402 129.928 82.2275L129.154 84.0716ZM139.304 91.4773L141.449 93.777L142.911 92.4131L140.767 90.1133L139.304 91.4773ZM135.946 94.5156C131.843 90.1159 127.709 87.449 123.534 86.7131L123.187 88.6827C126.768 89.3139 130.536 91.6468 134.483 95.8796L135.946 94.5156ZM123.537 86.7137C119.307 85.9528 115.49 87.1735 112.164 90.2753L113.528 91.738C116.434 89.0276 119.627 88.0425 123.183 88.6821L123.537 86.7137ZM112.164 90.2753C108.914 93.3062 107.473 96.9987 107.917 101.275L109.907 101.068C109.53 97.4477 110.712 94.3637 113.528 91.738L112.164 90.2753ZM107.917 101.276C108.359 105.477 110.591 109.698 114.449 113.938L115.928 112.592C112.24 108.538 110.288 104.698 109.906 101.067L107.917 101.276ZM114.457 113.947L116.951 116.621L118.414 115.257L115.92 112.583L114.457 113.947ZM116.951 116.621C120.939 120.898 125.061 123.526 129.326 124.348L129.704 122.384C125.994 121.669 122.227 119.347 118.414 115.257L116.951 116.621ZM129.334 124.349C133.648 125.145 137.501 123.969 140.805 120.888L139.441 119.426C136.579 122.095 133.36 123.058 129.696 122.382L129.334 124.349ZM140.805 120.888C144.107 117.809 145.604 114.146 145.17 109.966L143.18 110.172C143.543 113.661 142.337 116.724 139.441 119.426L140.805 120.888ZM145.169 109.962C144.724 105.819 142.43 101.571 138.471 97.224L136.993 98.5706C140.798 102.749 142.798 106.616 143.181 110.176L145.169 109.962ZM138.463 97.2153L135.946 94.5156L134.483 95.8796L137.001 98.5793L138.463 97.2153Z" fill="black"/>
</svg>
