<svg width="336" height="336" viewBox="0 0 336 336" fill="none" xmlns="http://www.w3.org/2000/svg">
<rect x="79.1899" y="30.5908" width="177" height="272" fill="#00B453"/>
<path d="M238.41 67.5355C245.882 72.7676 251.806 79.612 256.189 87.6631V176.952C251.154 190.396 244.098 203.901 235.037 216.843C195.68 273.05 133.381 297.332 95.8876 271.079C89.0261 266.275 83.4709 260.111 79.2149 252.901L79.1899 158.855C84.136 146.342 90.8302 133.813 99.2612 121.772C138.618 65.5648 200.917 41.2824 238.41 67.5355Z" fill="white"/>
<rect x="90.2413" y="45.7061" width="8.79359" height="6.02182" transform="rotate(-45 90.2413 45.7061)" fill="white" stroke="black"/>
<path d="M94.0348 36.5629L104.783 35.4234L103.643 46.1715L94.0348 36.5629Z" fill="white" stroke="black"/>
<path d="M94.0538 50.4097L94.0411 50.4224L94.0253 50.4381L94.0096 50.4539L93.9938 50.4696L93.9781 50.4854L93.9624 50.5011L93.9467 50.5168L93.931 50.5324L93.9154 50.5481L93.8997 50.5638L93.8841 50.5794L93.8684 50.595L93.8528 50.6107L93.8372 50.6263L93.8216 50.6418L93.8061 50.6574L93.7905 50.673L93.775 50.6885L93.7595 50.704L93.744 50.7195L93.7285 50.735L93.713 50.7505L93.6975 50.766L93.6821 50.7814L93.6666 50.7968L93.6512 50.8123L93.6358 50.8277L93.6204 50.843L93.6051 50.8584L93.5897 50.8738L93.5744 50.8891L93.559 50.9044L93.5437 50.9197L93.5284 50.935L93.5132 50.9503L93.4979 50.9656L93.4827 50.9808L93.4674 50.996L93.4522 51.0112L93.437 51.0264L93.4219 51.0416L93.4067 51.0568L93.3916 51.0719L93.3764 51.087L93.3613 51.1021L93.3462 51.1172L93.3312 51.1323L93.3161 51.1474L93.3011 51.1624L93.286 51.1774L93.271 51.1924L93.256 51.2074L93.2411 51.2224L93.2261 51.2374L93.2112 51.2523L93.1963 51.2672L93.1814 51.2821L93.1665 51.297L93.1516 51.3119L93.1368 51.3267L93.122 51.3415L93.1071 51.3563L93.0924 51.3711L93.0776 51.3859L93.0628 51.4007L93.0481 51.4154L93.0334 51.4301L93.0187 51.4448L93.004 51.4595L92.9893 51.4742L92.9747 51.4888L92.9601 51.5034L92.9455 51.518L92.9309 51.5326L92.9163 51.5472L92.9018 51.5617L92.8872 51.5762L92.8727 51.5908L92.8582 51.6052L92.8438 51.6197L92.8293 51.6342L92.8149 51.6486L92.8005 51.663L92.7861 51.6774L92.7717 51.6918L92.7574 51.7061L92.743 51.7204L92.7287 51.7348L92.7144 51.749L92.7002 51.7633L92.6859 51.7776L92.6717 51.7918L92.6575 51.806L92.6433 51.8202L92.6291 51.8343L92.615 51.8485L92.6009 51.8626L92.5868 51.8767L92.5727 51.8908L92.5586 51.9049L92.5446 51.9189L92.5306 51.9329L92.5166 51.9469L92.5026 51.9609L92.4886 51.9749L92.4747 51.9888L92.4608 52.0027L92.4469 52.0166L92.433 52.0305L92.4192 52.0443L92.4054 52.0581L92.3916 52.0719L92.3778 52.0857L92.364 52.0995L92.3503 52.1132L92.3366 52.1269L92.3229 52.1406L92.3092 52.1543L92.2956 52.1679L92.2819 52.1815L92.2683 52.1951L92.2548 52.2087L92.2412 52.2223L92.2277 52.2358L92.2142 52.2493L92.2007 52.2628L92.1872 52.2763L92.1738 52.2897L92.1604 52.3031L92.147 52.3165L92.1336 52.3299L92.1202 52.3432L92.1069 52.3566L92.0936 52.3699L92.0803 52.3831L92.0671 52.3964L92.0539 52.4096L92.0407 52.4228L92.0275 52.436L92.0143 52.4491L92.0012 52.4623L91.9881 52.4754L91.975 52.4885L91.962 52.5015L91.9489 52.5146L91.9359 52.5276L91.9229 52.5405L91.91 52.5535L91.897 52.5664L91.8841 52.5794L91.8712 52.5922L91.8584 52.6051L91.8455 52.6179L91.8327 52.6307L91.82 52.6435L91.8072 52.6563L91.7945 52.669L91.7818 52.6817L91.7691 52.6944L91.7564 52.7071L91.7438 52.7197L91.7312 52.7323L91.7186 52.7449L91.7061 52.7574L91.6935 52.77L91.681 52.7825L91.6686 52.7949L91.6561 52.8074L91.6437 52.8198L91.6313 52.8322L91.6189 52.8446L91.6066 52.8569L91.5943 52.8692L91.582 52.8815L91.5697 52.8938L91.5575 52.906L91.5453 52.9182L91.5331 52.9304L91.5209 52.9425L91.5088 52.9547L91.4967 52.9668L91.4846 52.9788L91.4726 52.9909L91.4606 53.0029L91.4486 53.0149L91.4366 53.0269L91.4247 53.0388L91.4128 53.0507L91.4009 53.0626L91.3891 53.0744L91.3772 53.0863L91.3654 53.098L91.3537 53.1098L91.3419 53.1215L91.3302 53.1333L91.3185 53.1449L91.3069 53.1566L91.2953 53.1682L91.2837 53.1798L91.2721 53.1914L91.2606 53.2029L91.2491 53.2144L91.2376 53.2259L91.2261 53.2374L91.2147 53.2488L91.2033 53.2602L91.1919 53.2715L91.1806 53.2829L91.1693 53.2942L91.158 53.3055L91.1468 53.3167L91.1356 53.3279L91.1244 53.3391L91.1132 53.3503L91.1021 53.3614L91.091 53.3725L91.0799 53.3835L91.0689 53.3946L91.0579 53.4056L91.0469 53.4166L91.036 53.4275L91.025 53.4384L91.0142 53.4493L91.0033 53.4602L90.9925 53.471L90.9817 53.4818L90.9709 53.4926L90.9602 53.5033L90.9495 53.514L90.9388 53.5247L90.9282 53.5353L90.9176 53.5459L90.907 53.5565L90.8965 53.567L90.8859 53.5775L90.8755 53.588L90.865 53.5985L90.8546 53.6089L90.8442 53.6193L90.8338 53.6296L90.8235 53.64L90.8132 53.6502L90.803 53.6605L90.7927 53.6707L90.7825 53.6809L90.7724 53.6911L90.7623 53.7012L90.7522 53.7113L90.7421 53.7214L90.7321 53.7314L90.7221 53.7414L90.7121 53.7514L90.7021 53.7613L90.6922 53.7712L90.6824 53.7811L90.6725 53.7909L90.6627 53.8007L90.653 53.8105L90.6432 53.8203L90.6335 53.83L90.6238 53.8396L90.6142 53.8493L90.6046 53.8589L90.595 53.8684L90.5855 53.878L90.576 53.8875L90.5665 53.897L90.5571 53.9064L90.5477 53.9158L90.5383 53.9252L90.529 53.9345L90.5197 53.9438L90.5104 53.9531L90.5012 53.9623L90.492 53.9715L90.4828 53.9806L90.4737 53.9898L90.4646 53.9989L90.4556 54.0079L90.4465 54.0169L90.4375 54.0259L90.4286 54.0349L90.4197 54.0438L90.4108 54.0527L90.4019 54.0615L90.3931 54.0703L90.3844 54.0791L90.3756 54.0879L90.3669 54.0966L90.3582 54.1052L90.3496 54.1139L90.341 54.1225L90.3324 54.131L90.3239 54.1396L90.3154 54.1481L90.307 54.1565L90.2985 54.1649L90.2902 54.1733L90.2818 54.1817L90.2735 54.19L90.2652 54.1982L90.257 54.2065L90.2488 54.2147L90.2406 54.2229L90.2325 54.231L90.2244 54.2391L90.2164 54.2471L90.2083 54.2551L90.2004 54.2631L90.1924 54.2711L90.1845 54.279L90.1766 54.2868L90.1688 54.2947L90.161 54.3025L90.1533 54.3102L90.1455 54.3179L90.1379 54.3256L90.1302 54.3333L90.1226 54.3409L90.115 54.3484L90.1075 54.356L90.1 54.3635L90.0926 54.3709L90.0851 54.3783L90.0778 54.3857L90.0704 54.393L90.0631 54.4003L90.0559 54.4076L90.0486 54.4148L90.0415 54.422L90.0343 54.4292L90.0272 54.4363L90.0201 54.4433L90.0131 54.4504L90.0061 54.4574L89.9992 54.4643L89.9922 54.4712L89.9854 54.4781L89.9785 54.4849L89.9717 54.4917L89.965 54.4985L89.9583 54.5052L89.9516 54.5119L89.945 54.5185L89.9384 54.5251L89.9318 54.5317L89.9253 54.5382L89.9188 54.5447L89.9124 54.5511L89.906 54.5575L89.8996 54.5639L89.8933 54.5702L89.887 54.5764L89.8808 54.5827L89.8746 54.5889L89.8684 54.595L89.8623 54.6011L89.8563 54.6072L89.8502 54.6133L89.8442 54.6192L89.8383 54.6252L89.8324 54.6311L89.8265 54.637L89.8207 54.6428L89.8149 54.6486L89.8092 54.6543L89.8091 54.6544C87.7158 52.2176 87.7158 48.6017 89.8091 46.1649L94.0538 50.4097Z" fill="white" stroke="black"/>
<rect x="89.7705" y="46.9009" width="1.7367" height="5.00668" transform="rotate(-45 89.7705 46.9009)" fill="white"/>
<rect x="98.3661" y="58.9028" width="8.79359" height="6.02182" transform="rotate(135 98.3661 58.9028)" fill="white" stroke="black"/>
<path d="M94.5726 68.046L83.8245 69.1855L84.964 58.4374L94.5726 68.046Z" fill="white" stroke="black"/>
<path d="M94.5536 54.1992L94.5663 54.1865L94.5821 54.1707L94.5978 54.155L94.6136 54.1393L94.6293 54.1235L94.645 54.1078L94.6607 54.0921L94.6764 54.0764L94.6921 54.0608L94.7077 54.0451L94.7234 54.0295L94.739 54.0138L94.7546 53.9982L94.7702 53.9826L94.7858 53.9671L94.8013 53.9515L94.8169 53.9359L94.8324 53.9204L94.848 53.9049L94.8635 53.8894L94.879 53.8739L94.8944 53.8584L94.9099 53.8429L94.9254 53.8275L94.9408 53.812L94.9562 53.7966L94.9716 53.7812L94.987 53.7658L95.0024 53.7505L95.0177 53.7351L95.0331 53.7198L95.0484 53.7045L95.0637 53.6891L95.079 53.6739L95.0943 53.6586L95.1095 53.6433L95.1248 53.6281L95.14 53.6129L95.1552 53.5976L95.1704 53.5825L95.1856 53.5673L95.2007 53.5521L95.2159 53.537L95.231 53.5218L95.2461 53.5067L95.2612 53.4916L95.2763 53.4766L95.2913 53.4615L95.3064 53.4465L95.3214 53.4315L95.3364 53.4164L95.3514 53.4015L95.3663 53.3865L95.3813 53.3715L95.3962 53.3566L95.4111 53.3417L95.426 53.3268L95.4409 53.3119L95.4558 53.297L95.4706 53.2822L95.4855 53.2674L95.5003 53.2525L95.5151 53.2378L95.5298 53.223L95.5446 53.2082L95.5593 53.1935L95.5741 53.1788L95.5888 53.1641L95.6034 53.1494L95.6181 53.1347L95.6327 53.1201L95.6474 53.1055L95.662 53.0909L95.6765 53.0763L95.6911 53.0617L95.7057 53.0472L95.7202 53.0326L95.7347 53.0181L95.7492 53.0036L95.7637 52.9892L95.7781 52.9747L95.7925 52.9603L95.8069 52.9459L95.8213 52.9315L95.8357 52.9171L95.8501 52.9028L95.8644 52.8884L95.8787 52.8741L95.893 52.8598L95.9073 52.8456L95.9215 52.8313L95.9357 52.8171L95.9499 52.8029L95.9641 52.7887L95.9783 52.7745L95.9924 52.7604L96.0066 52.7463L96.0207 52.7322L96.0347 52.7181L96.0488 52.704L96.0628 52.69L96.0769 52.676L96.0909 52.662L96.1048 52.648L96.1188 52.634L96.1327 52.6201L96.1466 52.6062L96.1605 52.5923L96.1744 52.5784L96.1882 52.5646L96.2021 52.5508L96.2159 52.537L96.2297 52.5232L96.2434 52.5094L96.2571 52.4957L96.2709 52.482L96.2845 52.4683L96.2982 52.4546L96.3119 52.441L96.3255 52.4273L96.3391 52.4137L96.3527 52.4002L96.3662 52.3866L96.3798 52.3731L96.3933 52.3596L96.4067 52.3461L96.4202 52.3326L96.4337 52.3192L96.4471 52.3058L96.4605 52.2924L96.4738 52.279L96.4872 52.2657L96.5005 52.2523L96.5138 52.239L96.5271 52.2258L96.5403 52.2125L96.5536 52.1993L96.5668 52.1861L96.5799 52.1729L96.5931 52.1597L96.6062 52.1466L96.6193 52.1335L96.6324 52.1204L96.6455 52.1074L96.6585 52.0943L96.6715 52.0813L96.6845 52.0683L96.6975 52.0554L96.7104 52.0424L96.7233 52.0295L96.7362 52.0167L96.749 52.0038L96.7619 51.991L96.7747 51.9781L96.7875 51.9654L96.8002 51.9526L96.813 51.9399L96.8257 51.9272L96.8383 51.9145L96.851 51.9018L96.8636 51.8892L96.8762 51.8766L96.8888 51.864L96.9014 51.8515L96.9139 51.8389L96.9264 51.8264L96.9389 51.814L96.9513 51.8015L96.9637 51.7891L96.9761 51.7767L96.9885 51.7643L97.0008 51.752L97.0132 51.7397L97.0254 51.7274L97.0377 51.7151L97.0499 51.7029L97.0622 51.6907L97.0743 51.6785L97.0865 51.6663L97.0986 51.6542L97.1107 51.6421L97.1228 51.63L97.1348 51.618L97.1468 51.606L97.1588 51.594L97.1708 51.582L97.1827 51.5701L97.1946 51.5582L97.2065 51.5463L97.2184 51.5345L97.2302 51.5226L97.242 51.5108L97.2538 51.4991L97.2655 51.4873L97.2772 51.4756L97.2889 51.4639L97.3005 51.4523L97.3122 51.4407L97.3238 51.4291L97.3353 51.4175L97.3469 51.406L97.3584 51.3945L97.3699 51.383L97.3813 51.3715L97.3927 51.3601L97.4041 51.3487L97.4155 51.3373L97.4268 51.326L97.4381 51.3147L97.4494 51.3034L97.4606 51.2922L97.4719 51.281L97.483 51.2698L97.4942 51.2586L97.5053 51.2475L97.5164 51.2364L97.5275 51.2253L97.5385 51.2143L97.5495 51.2033L97.5605 51.1923L97.5715 51.1814L97.5824 51.1705L97.5933 51.1596L97.6041 51.1487L97.6149 51.1379L97.6257 51.1271L97.6365 51.1163L97.6472 51.1056L97.6579 51.0949L97.6686 51.0842L97.6792 51.0736L97.6898 51.063L97.7004 51.0524L97.711 51.0419L97.7215 51.0313L97.732 51.0209L97.7424 51.0104L97.7528 51L97.7632 50.9896L97.7736 50.9793L97.7839 50.9689L97.7942 50.9586L97.8045 50.9484L97.8147 50.9381L97.8249 50.928L97.835 50.9178L97.8452 50.9077L97.8553 50.8976L97.8653 50.8875L97.8754 50.8775L97.8854 50.8675L97.8953 50.8575L97.9053 50.8476L97.9152 50.8376L97.925 50.8278L97.9349 50.8179L97.9447 50.8081L97.9545 50.7984L97.9642 50.7886L97.9739 50.7789L97.9836 50.7693L97.9932 50.7596L98.0028 50.75L98.0124 50.7404L98.0219 50.7309L98.0314 50.7214L98.0409 50.7119L98.0503 50.7025L98.0597 50.6931L98.0691 50.6837L98.0784 50.6744L98.0877 50.6651L98.097 50.6558L98.1062 50.6466L98.1154 50.6374L98.1246 50.6282L98.1337 50.6191L98.1428 50.61L98.1519 50.601L98.1609 50.5919L98.1699 50.583L98.1788 50.574L98.1877 50.5651L98.1966 50.5562L98.2055 50.5474L98.2143 50.5385L98.2231 50.5298L98.2318 50.521L98.2405 50.5123L98.2492 50.5036L98.2578 50.495L98.2664 50.4864L98.275 50.4778L98.2835 50.4693L98.292 50.4608L98.3005 50.4524L98.3089 50.444L98.3173 50.4356L98.3256 50.4272L98.3339 50.4189L98.3422 50.4106L98.3504 50.4024L98.3586 50.3942L98.3668 50.386L98.3749 50.3779L98.383 50.3698L98.3911 50.3618L98.3991 50.3537L98.4071 50.3458L98.415 50.3378L98.4229 50.3299L98.4308 50.322L98.4386 50.3142L98.4464 50.3064L98.4542 50.2987L98.4619 50.2909L98.4696 50.2833L98.4772 50.2756L98.4848 50.268L98.4924 50.2604L98.4999 50.2529L98.5074 50.2454L98.5149 50.238L98.5223 50.2306L98.5297 50.2232L98.537 50.2158L98.5443 50.2085L98.5516 50.2013L98.5588 50.1941L98.566 50.1869L98.5731 50.1797L98.5802 50.1726L98.5873 50.1655L98.5943 50.1585L98.6013 50.1515L98.6083 50.1446L98.6152 50.1377L98.622 50.1308L98.6289 50.1239L98.6357 50.1172L98.6424 50.1104L98.6491 50.1037L98.6558 50.097L98.6625 50.0904L98.6691 50.0838L98.6756 50.0772L98.6821 50.0707L98.6886 50.0642L98.695 50.0578L98.7014 50.0514L98.7078 50.045L98.7141 50.0387L98.7204 50.0324L98.7266 50.0262L98.7328 50.02L98.739 50.0139L98.7451 50.0077L98.7512 50.0017L98.7572 49.9956L98.7632 49.9896L98.7691 49.9837L98.775 49.9778L98.7809 49.9719L98.7867 49.9661L98.7925 49.9603L98.7983 49.9546L98.7983 49.9545C100.892 52.3913 100.892 56.0072 98.7983 58.4439L94.5536 54.1992Z" fill="white" stroke="black"/>
<rect x="98.8301" y="57.6528" width="1.70588" height="4.98128" transform="rotate(134 98.8301 57.6528)" fill="white"/>
<rect x="237.242" y="274.706" width="8.79359" height="6.02182" transform="rotate(-45 237.242 274.706)" fill="white" stroke="black"/>
<path d="M241.035 265.563L251.783 264.423L250.644 275.172L241.035 265.563Z" fill="white" stroke="black"/>
<path d="M241.054 279.41L241.042 279.422L241.026 279.438L241.01 279.454L240.994 279.47L240.979 279.485L240.963 279.501L240.947 279.517L240.932 279.532L240.916 279.548L240.9 279.564L240.885 279.579L240.869 279.595L240.853 279.611L240.838 279.626L240.822 279.642L240.807 279.657L240.791 279.673L240.775 279.688L240.76 279.704L240.744 279.72L240.729 279.735L240.713 279.751L240.698 279.766L240.683 279.781L240.667 279.797L240.652 279.812L240.636 279.828L240.621 279.843L240.606 279.858L240.59 279.874L240.575 279.889L240.56 279.904L240.544 279.92L240.529 279.935L240.514 279.95L240.498 279.966L240.483 279.981L240.468 279.996L240.453 280.011L240.438 280.026L240.422 280.042L240.407 280.057L240.392 280.072L240.377 280.087L240.362 280.102L240.347 280.117L240.332 280.132L240.317 280.147L240.302 280.162L240.287 280.177L240.272 280.192L240.257 280.207L240.242 280.222L240.227 280.237L240.212 280.252L240.197 280.267L240.182 280.282L240.167 280.297L240.152 280.312L240.137 280.327L240.122 280.342L240.108 280.356L240.093 280.371L240.078 280.386L240.063 280.401L240.049 280.415L240.034 280.43L240.019 280.445L240.004 280.459L239.99 280.474L239.975 280.489L239.961 280.503L239.946 280.518L239.931 280.533L239.917 280.547L239.902 280.562L239.888 280.576L239.873 280.591L239.859 280.605L239.844 280.62L239.83 280.634L239.815 280.649L239.801 280.663L239.787 280.677L239.772 280.692L239.758 280.706L239.744 280.72L239.729 280.735L239.715 280.749L239.701 280.763L239.686 280.778L239.672 280.792L239.658 280.806L239.644 280.82L239.63 280.834L239.615 280.848L239.601 280.863L239.587 280.877L239.573 280.891L239.559 280.905L239.545 280.919L239.531 280.933L239.517 280.947L239.503 280.961L239.489 280.975L239.475 280.989L239.461 281.003L239.447 281.017L239.434 281.03L239.42 281.044L239.406 281.058L239.392 281.072L239.378 281.086L239.365 281.099L239.351 281.113L239.337 281.127L239.323 281.141L239.31 281.154L239.296 281.168L239.282 281.182L239.269 281.195L239.255 281.209L239.242 281.222L239.228 281.236L239.215 281.249L239.201 281.263L239.188 281.276L239.174 281.29L239.161 281.303L239.147 281.317L239.134 281.33L239.121 281.343L239.107 281.357L239.094 281.37L239.081 281.383L239.068 281.396L239.054 281.41L239.041 281.423L239.028 281.436L239.015 281.449L239.002 281.462L238.989 281.475L238.976 281.488L238.962 281.502L238.949 281.515L238.936 281.528L238.923 281.541L238.91 281.554L238.898 281.566L238.885 281.579L238.872 281.592L238.859 281.605L238.846 281.618L238.833 281.631L238.82 281.644L238.808 281.656L238.795 281.669L238.782 281.682L238.77 281.694L238.757 281.707L238.744 281.72L238.732 281.732L238.719 281.745L238.707 281.757L238.694 281.77L238.682 281.782L238.669 281.795L238.657 281.807L238.644 281.82L238.632 281.832L238.619 281.845L238.607 281.857L238.595 281.869L238.582 281.882L238.57 281.894L238.558 281.906L238.546 281.918L238.534 281.93L238.521 281.943L238.509 281.955L238.497 281.967L238.485 281.979L238.473 281.991L238.461 282.003L238.449 282.015L238.437 282.027L238.425 282.039L238.413 282.051L238.401 282.063L238.39 282.074L238.378 282.086L238.366 282.098L238.354 282.11L238.342 282.122L238.331 282.133L238.319 282.145L238.307 282.157L238.296 282.168L238.284 282.18L238.273 282.191L238.261 282.203L238.25 282.214L238.238 282.226L238.227 282.237L238.215 282.249L238.204 282.26L238.192 282.272L238.181 282.283L238.17 282.294L238.159 282.305L238.147 282.317L238.136 282.328L238.125 282.339L238.114 282.35L238.103 282.361L238.091 282.372L238.08 282.384L238.069 282.395L238.058 282.406L238.047 282.417L238.036 282.428L238.026 282.438L238.015 282.449L238.004 282.46L237.993 282.471L237.982 282.482L237.971 282.493L237.961 282.503L237.95 282.514L237.939 282.525L237.929 282.535L237.918 282.546L237.907 282.556L237.897 282.567L237.886 282.578L237.876 282.588L237.865 282.598L237.855 282.609L237.845 282.619L237.834 282.63L237.824 282.64L237.814 282.65L237.803 282.661L237.793 282.671L237.783 282.681L237.773 282.691L237.763 282.701L237.753 282.711L237.743 282.721L237.733 282.731L237.723 282.741L237.713 282.751L237.703 282.761L237.693 282.771L237.683 282.781L237.673 282.791L237.663 282.801L237.653 282.811L237.644 282.82L237.634 282.83L237.624 282.84L237.615 282.849L237.605 282.859L237.596 282.868L237.586 282.878L237.576 282.887L237.567 282.897L237.558 282.906L237.548 282.916L237.539 282.925L237.529 282.934L237.52 282.944L237.511 282.953L237.502 282.962L237.492 282.971L237.483 282.981L237.474 282.99L237.465 282.999L237.456 283.008L237.447 283.017L237.438 283.026L237.429 283.035L237.42 283.044L237.411 283.053L237.402 283.062L237.394 283.07L237.385 283.079L237.376 283.088L237.367 283.097L237.359 283.105L237.35 283.114L237.341 283.122L237.333 283.131L237.324 283.14L237.316 283.148L237.307 283.157L237.299 283.165L237.291 283.173L237.282 283.182L237.274 283.19L237.266 283.198L237.257 283.206L237.249 283.215L237.241 283.223L237.233 283.231L237.225 283.239L237.217 283.247L237.209 283.255L237.201 283.263L237.193 283.271L237.185 283.279L237.177 283.287L237.169 283.295L237.162 283.302L237.154 283.31L237.146 283.318L237.138 283.326L237.131 283.333L237.123 283.341L237.116 283.348L237.108 283.356L237.101 283.363L237.093 283.371L237.086 283.378L237.078 283.386L237.071 283.393L237.064 283.4L237.056 283.408L237.049 283.415L237.042 283.422L237.035 283.429L237.028 283.436L237.021 283.443L237.014 283.45L237.007 283.457L237 283.464L236.993 283.471L236.986 283.478L236.979 283.485L236.972 283.492L236.965 283.498L236.959 283.505L236.952 283.512L236.945 283.519L236.939 283.525L236.932 283.532L236.926 283.538L236.919 283.545L236.913 283.551L236.906 283.557L236.9 283.564L236.894 283.57L236.888 283.576L236.881 283.583L236.875 283.589L236.869 283.595L236.863 283.601L236.857 283.607L236.851 283.613L236.845 283.619L236.839 283.625L236.833 283.631L236.827 283.637L236.821 283.643L236.815 283.649L236.81 283.654L236.81 283.654C234.716 281.218 234.716 277.602 236.81 275.165L241.054 279.41Z" fill="white" stroke="black"/>
<rect x="236.771" y="275.901" width="1.7367" height="5.00668" transform="rotate(-45 236.771 275.901)" fill="white"/>
<rect x="245.367" y="287.903" width="8.79359" height="6.02182" transform="rotate(135 245.367 287.903)" fill="white" stroke="black"/>
<path d="M241.573 297.046L230.825 298.185L231.964 287.437L241.573 297.046Z" fill="white" stroke="black"/>
<path d="M241.554 283.199L241.567 283.187L241.583 283.171L241.598 283.155L241.614 283.139L241.63 283.124L241.645 283.108L241.661 283.092L241.677 283.076L241.693 283.061L241.708 283.045L241.724 283.029L241.739 283.014L241.755 282.998L241.771 282.983L241.786 282.967L241.802 282.951L241.817 282.936L241.833 282.92L241.848 282.905L241.864 282.889L241.879 282.874L241.895 282.858L241.91 282.843L241.926 282.827L241.941 282.812L241.957 282.797L241.972 282.781L241.987 282.766L242.003 282.75L242.018 282.735L242.034 282.72L242.049 282.704L242.064 282.689L242.079 282.674L242.095 282.659L242.11 282.643L242.125 282.628L242.14 282.613L242.156 282.598L242.171 282.582L242.186 282.567L242.201 282.552L242.216 282.537L242.231 282.522L242.247 282.507L242.262 282.492L242.277 282.477L242.292 282.462L242.307 282.446L242.322 282.431L242.337 282.416L242.352 282.401L242.367 282.386L242.382 282.372L242.397 282.357L242.412 282.342L242.427 282.327L242.441 282.312L242.456 282.297L242.471 282.282L242.486 282.267L242.501 282.253L242.516 282.238L242.53 282.223L242.545 282.208L242.56 282.193L242.575 282.179L242.589 282.164L242.604 282.149L242.619 282.135L242.633 282.12L242.648 282.105L242.662 282.091L242.677 282.076L242.692 282.062L242.706 282.047L242.721 282.033L242.735 282.018L242.75 282.004L242.764 281.989L242.779 281.975L242.793 281.96L242.807 281.946L242.822 281.931L242.836 281.917L242.851 281.903L242.865 281.888L242.879 281.874L242.893 281.86L242.908 281.846L242.922 281.831L242.936 281.817L242.95 281.803L242.965 281.789L242.979 281.775L242.993 281.76L243.007 281.746L243.021 281.732L243.035 281.718L243.049 281.704L243.063 281.69L243.077 281.676L243.091 281.662L243.105 281.648L243.119 281.634L243.133 281.62L243.147 281.606L243.161 281.592L243.175 281.578L243.189 281.565L243.203 281.551L243.216 281.537L243.23 281.523L243.244 281.509L243.258 281.496L243.271 281.482L243.285 281.468L243.299 281.455L243.312 281.441L243.326 281.427L243.34 281.414L243.353 281.4L243.367 281.387L243.38 281.373L243.394 281.36L243.407 281.346L243.421 281.333L243.434 281.319L243.448 281.306L243.461 281.292L243.474 281.279L243.488 281.266L243.501 281.252L243.514 281.239L243.528 281.226L243.541 281.213L243.554 281.199L243.567 281.186L243.58 281.173L243.594 281.16L243.607 281.147L243.62 281.134L243.633 281.12L243.646 281.107L243.659 281.094L243.672 281.081L243.685 281.068L243.698 281.055L243.711 281.042L243.724 281.03L243.737 281.017L243.75 281.004L243.762 280.991L243.775 280.978L243.788 280.965L243.801 280.953L243.813 280.94L243.826 280.927L243.839 280.914L243.851 280.902L243.864 280.889L243.877 280.877L243.889 280.864L243.902 280.851L243.914 280.839L243.927 280.826L243.939 280.814L243.952 280.802L243.964 280.789L243.977 280.777L243.989 280.764L244.001 280.752L244.014 280.74L244.026 280.727L244.038 280.715L244.05 280.703L244.063 280.691L244.075 280.678L244.087 280.666L244.099 280.654L244.111 280.642L244.123 280.63L244.135 280.618L244.147 280.606L244.159 280.594L244.171 280.582L244.183 280.57L244.195 280.558L244.207 280.546L244.219 280.534L244.231 280.523L244.242 280.511L244.254 280.499L244.266 280.487L244.278 280.476L244.289 280.464L244.301 280.452L244.313 280.441L244.324 280.429L244.336 280.418L244.347 280.406L244.359 280.394L244.37 280.383L244.382 280.372L244.393 280.36L244.405 280.349L244.416 280.337L244.427 280.326L244.439 280.315L244.45 280.303L244.461 280.292L244.472 280.281L244.484 280.27L244.495 280.259L244.506 280.248L244.517 280.236L244.528 280.225L244.539 280.214L244.55 280.203L244.561 280.192L244.572 280.181L244.583 280.17L244.594 280.16L244.605 280.149L244.615 280.138L244.626 280.127L244.637 280.116L244.648 280.106L244.658 280.095L244.669 280.084L244.68 280.074L244.69 280.063L244.701 280.052L244.711 280.042L244.722 280.031L244.732 280.021L244.743 280.01L244.753 280L244.764 279.99L244.774 279.979L244.784 279.969L244.795 279.959L244.805 279.948L244.815 279.938L244.825 279.928L244.836 279.918L244.846 279.908L244.856 279.898L244.866 279.887L244.876 279.877L244.886 279.867L244.896 279.857L244.906 279.848L244.916 279.838L244.926 279.828L244.935 279.818L244.945 279.808L244.955 279.798L244.965 279.789L244.974 279.779L244.984 279.769L244.994 279.76L245.003 279.75L245.013 279.74L245.022 279.731L245.032 279.721L245.041 279.712L245.051 279.702L245.06 279.693L245.07 279.684L245.079 279.674L245.088 279.665L245.097 279.656L245.107 279.647L245.116 279.637L245.125 279.628L245.134 279.619L245.143 279.61L245.152 279.601L245.161 279.592L245.17 279.583L245.179 279.574L245.188 279.565L245.197 279.556L245.206 279.547L245.215 279.539L245.224 279.53L245.232 279.521L245.241 279.512L245.25 279.504L245.258 279.495L245.267 279.486L245.275 279.478L245.284 279.469L245.292 279.461L245.301 279.452L245.309 279.444L245.318 279.436L245.326 279.427L245.334 279.419L245.343 279.411L245.351 279.402L245.359 279.394L245.367 279.386L245.375 279.378L245.384 279.37L245.392 279.362L245.4 279.354L245.408 279.346L245.415 279.338L245.423 279.33L245.431 279.322L245.439 279.314L245.447 279.306L245.455 279.299L245.462 279.291L245.47 279.283L245.478 279.276L245.485 279.268L245.493 279.26L245.5 279.253L245.508 279.245L245.515 279.238L245.523 279.231L245.53 279.223L245.537 279.216L245.545 279.209L245.552 279.201L245.559 279.194L245.566 279.187L245.574 279.18L245.581 279.173L245.588 279.166L245.595 279.159L245.602 279.152L245.609 279.145L245.616 279.138L245.623 279.131L245.629 279.124L245.636 279.117L245.643 279.11L245.65 279.104L245.656 279.097L245.663 279.09L245.67 279.084L245.676 279.077L245.683 279.071L245.689 279.064L245.696 279.058L245.702 279.051L245.708 279.045L245.715 279.039L245.721 279.032L245.727 279.026L245.733 279.02L245.739 279.014L245.746 279.008L245.752 279.002L245.758 278.996L245.764 278.99L245.77 278.984L245.776 278.978L245.781 278.972L245.787 278.966L245.793 278.96L245.799 278.955L245.799 278.955C247.892 281.391 247.892 285.007 245.799 287.444L241.554 283.199Z" fill="white" stroke="black"/>
<rect x="245.831" y="286.653" width="1.70588" height="4.98128" transform="rotate(134 245.831 286.653)" fill="white"/>
<rect x="147.16" y="138.22" width="43.0852" height="30.6082" transform="rotate(-45 147.16 138.22)" fill="#00B453" stroke="black"/>
<path d="M162.88 95.7094L217.062 89.9652L211.317 144.147L162.88 95.7094Z" fill="#00B453" stroke="black"/>
<path d="M169.273 159.394L169.266 159.401L169.194 159.473L169.122 159.545L169.05 159.617L168.978 159.689L168.906 159.761L168.834 159.832L168.763 159.904L168.691 159.976L168.619 160.047L168.548 160.119L168.476 160.19L168.405 160.262L168.334 160.333L168.262 160.404L168.191 160.475L168.12 160.547L168.049 160.618L167.978 160.689L167.907 160.76L167.836 160.831L167.765 160.901L167.694 160.972L167.624 161.043L167.553 161.114L167.482 161.184L167.412 161.255L167.341 161.325L167.271 161.396L167.201 161.466L167.13 161.536L167.06 161.606L166.99 161.677L166.92 161.747L166.85 161.817L166.78 161.887L166.71 161.957L166.64 162.026L166.57 162.096L166.501 162.166L166.431 162.235L166.362 162.305L166.292 162.374L166.223 162.444L166.153 162.513L166.084 162.582L166.015 162.652L165.946 162.721L165.877 162.79L165.808 162.859L165.739 162.928L165.67 162.996L165.601 163.065L165.533 163.134L165.464 163.202L165.396 163.271L165.327 163.339L165.259 163.408L165.19 163.476L165.122 163.544L165.054 163.613L164.986 163.681L164.918 163.749L164.85 163.817L164.782 163.884L164.714 163.952L164.647 164.02L164.579 164.088L164.511 164.155L164.444 164.223L164.377 164.29L164.309 164.357L164.242 164.425L164.175 164.492L164.108 164.559L164.041 164.626L163.974 164.693L163.907 164.759L163.84 164.826L163.774 164.893L163.707 164.959L163.641 165.026L163.574 165.092L163.508 165.159L163.442 165.225L163.375 165.291L163.309 165.357L163.243 165.423L163.177 165.489L163.112 165.555L163.046 165.621L162.98 165.686L162.915 165.752L162.849 165.817L162.784 165.883L162.718 165.948L162.653 166.013L162.588 166.078L162.523 166.143L162.458 166.208L162.393 166.273L162.328 166.338L162.264 166.403L162.199 166.467L162.135 166.532L162.07 166.596L162.006 166.661L161.942 166.725L161.878 166.789L161.814 166.853L161.75 166.917L161.686 166.981L161.622 167.045L161.558 167.108L161.495 167.172L161.431 167.235L161.368 167.299L161.305 167.362L161.241 167.425L161.178 167.488L161.115 167.551L161.052 167.614L160.989 167.677L160.927 167.74L160.864 167.802L160.802 167.865L160.739 167.927L160.677 167.99L160.615 168.052L160.552 168.114L160.49 168.176L160.429 168.238L160.367 168.3L160.305 168.362L160.243 168.423L160.182 168.485L160.12 168.546L160.059 168.607L159.998 168.669L159.937 168.73L159.876 168.791L159.815 168.852L159.754 168.913L159.693 168.973L159.633 169.034L159.572 169.094L159.512 169.155L159.451 169.215L159.391 169.275L159.331 169.335L159.271 169.395L159.211 169.455L159.152 169.515L159.092 169.575L159.032 169.634L158.973 169.694L158.914 169.753L158.854 169.812L158.795 169.871L158.736 169.93L158.677 169.989L158.619 170.048L158.56 170.107L158.501 170.165L158.443 170.224L158.385 170.282L158.326 170.34L158.268 170.398L158.21 170.456L158.152 170.514L158.095 170.572L158.037 170.629L157.979 170.687L157.922 170.744L157.865 170.802L157.808 170.859L157.75 170.916L157.693 170.973L157.637 171.03L157.58 171.087L157.523 171.143L157.467 171.2L157.41 171.256L157.354 171.312L157.298 171.369L157.242 171.425L157.186 171.481L157.13 171.536L157.075 171.592L157.019 171.648L156.964 171.703L156.908 171.758L156.853 171.814L156.798 171.869L156.743 171.924L156.688 171.978L156.633 172.033L156.579 172.088L156.524 172.142L156.47 172.196L156.416 172.251L156.362 172.305L156.308 172.359L156.254 172.413L156.2 172.466L156.147 172.52L156.093 172.573L156.04 172.627L155.987 172.68L155.933 172.733L155.881 172.786L155.828 172.839L155.775 172.892L155.722 172.944L155.67 172.997L155.618 173.049L155.565 173.101L155.513 173.153L155.461 173.205L155.41 173.257L155.358 173.309L155.306 173.36L155.255 173.412L155.204 173.463L155.153 173.514L155.102 173.565L155.051 173.616L155 173.667L154.949 173.717L154.899 173.768L154.848 173.818L154.798 173.868L154.748 173.918L154.698 173.968L154.648 174.018L154.599 174.068L154.549 174.117L154.5 174.167L154.45 174.216L154.401 174.265L154.352 174.314L154.303 174.363L154.255 174.412L154.206 174.46L154.158 174.509L154.109 174.557L154.061 174.605L154.013 174.653L153.965 174.701L153.917 174.749L153.87 174.797L153.822 174.844L153.775 174.891L153.728 174.939L153.681 174.986L153.634 175.033L153.587 175.079L153.541 175.126L153.494 175.172L153.448 175.219L153.402 175.265L153.356 175.311L153.31 175.357L153.264 175.403L153.218 175.448L153.173 175.494L153.128 175.539L153.082 175.584L153.037 175.629L152.992 175.674L152.948 175.719L152.903 175.763L152.859 175.808L152.814 175.852L152.77 175.896L152.726 175.94L152.683 175.984L152.639 176.028L152.595 176.071L152.552 176.115L152.509 176.158L152.466 176.201L152.423 176.244L152.38 176.287L152.337 176.329L152.295 176.372L152.252 176.414L152.21 176.456L152.168 176.498L152.126 176.54L152.085 176.582L152.043 176.623L152.002 176.665L151.961 176.706L151.919 176.747L151.879 176.788L151.838 176.829L151.797 176.869L151.757 176.91L151.716 176.95L151.676 176.99L151.636 177.03L151.596 177.07L151.557 177.11L151.517 177.149L151.478 177.189L151.439 177.228L151.4 177.267L151.361 177.306L151.322 177.344L151.284 177.383L151.245 177.421L151.207 177.46L151.169 177.498L151.131 177.536L151.093 177.573L151.056 177.611L151.018 177.648L150.981 177.686L150.944 177.723L150.907 177.76L150.87 177.796L150.834 177.833L150.797 177.869L150.761 177.906L150.725 177.942L150.689 177.978L150.653 178.013L150.618 178.049L150.582 178.084L150.547 178.12L150.512 178.155L150.477 178.19L150.442 178.224L150.408 178.259L150.373 178.293L150.339 178.328L150.305 178.362L150.271 178.396L150.237 178.429L150.204 178.463L150.17 178.496L150.137 178.529L150.104 178.562L150.071 178.595L150.039 178.628L150.006 178.66L149.974 178.693L149.942 178.725L149.91 178.757L149.878 178.789L149.846 178.82L149.815 178.852L149.783 178.883L149.752 178.914L149.721 178.945L149.69 178.976L149.66 179.007L149.63 179.037L149.599 179.067L149.569 179.097L149.539 179.127L149.51 179.157L149.48 179.186L149.451 179.216L149.422 179.245L149.393 179.274L149.364 179.303L149.335 179.331L149.307 179.36L149.279 179.388L149.251 179.416L149.223 179.444L149.195 179.472L149.167 179.499L149.14 179.526L149.113 179.554L149.086 179.581L149.059 179.607L149.033 179.634L149.006 179.66L148.98 179.687L148.954 179.713L148.928 179.739L148.902 179.764L148.877 179.79L148.852 179.815L148.826 179.84L148.802 179.865L148.777 179.89L148.752 179.914L148.728 179.939L148.704 179.963L148.68 179.987L148.656 180.011L148.632 180.034L148.609 180.058L148.586 180.081L148.563 180.104L148.54 180.127L148.517 180.149L148.495 180.172L148.473 180.194L148.45 180.216L148.429 180.238L148.407 180.26L148.385 180.281L148.364 180.302L148.343 180.323L148.322 180.344L148.301 180.365L148.281 180.386L148.261 180.406L148.241 180.426L148.221 180.446L148.201 180.466L148.181 180.485L148.162 180.504L148.143 180.524L148.124 180.543L148.105 180.561L148.087 180.58L148.068 180.598L148.05 180.616L148.032 180.634L148.015 180.652L147.997 180.669L147.98 180.687L147.963 180.704L147.946 180.721L147.929 180.738L147.913 180.754L147.896 180.77L147.88 180.786L147.864 180.802L147.848 180.818L147.833 180.834L147.818 180.849L147.803 180.864L147.788 180.879L147.773 180.894L147.759 180.908L147.744 180.922L147.73 180.936L147.716 180.95L147.703 180.964L147.689 180.977L147.676 180.99L147.663 181.004L147.65 181.016L147.638 181.029L147.632 181.034C135.952 168.979 135.952 149.808 147.632 137.753L169.273 159.394Z" fill="#00B453" stroke="black"/>
<rect x="147" y="138.994" width="4.11515" height="29.7348" transform="rotate(-45 147 138.994)" fill="#00B453"/>
<rect x="188.685" y="197.626" width="43.0852" height="30.6082" transform="rotate(135 188.685 197.626)" fill="#00B453" stroke="black"/>
<path d="M172.966 240.136L118.784 245.881L124.528 191.699L172.966 240.136Z" fill="#00B453" stroke="black"/>
<path d="M166.573 176.452L166.58 176.445L166.652 176.373L166.724 176.301L166.796 176.229L166.868 176.157L166.94 176.085L167.011 176.013L167.083 175.942L167.155 175.87L167.226 175.799L167.298 175.727L167.369 175.656L167.441 175.584L167.512 175.513L167.583 175.442L167.655 175.37L167.726 175.299L167.797 175.228L167.868 175.157L167.939 175.086L168.01 175.015L168.081 174.944L168.151 174.874L168.222 174.803L168.293 174.732L168.363 174.662L168.434 174.591L168.504 174.521L168.575 174.45L168.645 174.38L168.715 174.309L168.786 174.239L168.856 174.169L168.926 174.099L168.996 174.029L169.066 173.959L169.136 173.889L169.205 173.819L169.275 173.75L169.345 173.68L169.415 173.61L169.484 173.541L169.554 173.471L169.623 173.402L169.692 173.333L169.761 173.263L169.831 173.194L169.9 173.125L169.969 173.056L170.038 172.987L170.107 172.918L170.176 172.849L170.244 172.781L170.313 172.712L170.382 172.643L170.45 172.575L170.519 172.506L170.587 172.438L170.655 172.37L170.724 172.301L170.792 172.233L170.86 172.165L170.928 172.097L170.996 172.029L171.064 171.961L171.131 171.893L171.199 171.826L171.267 171.758L171.334 171.691L171.402 171.623L171.469 171.556L171.536 171.488L171.604 171.421L171.671 171.354L171.738 171.287L171.805 171.22L171.872 171.153L171.939 171.086L172.005 171.02L172.072 170.953L172.139 170.886L172.205 170.82L172.272 170.753L172.338 170.687L172.404 170.621L172.47 170.555L172.536 170.489L172.602 170.423L172.668 170.357L172.734 170.291L172.8 170.225L172.865 170.159L172.931 170.094L172.997 170.028L173.062 169.963L173.127 169.898L173.192 169.832L173.258 169.767L173.323 169.702L173.388 169.637L173.452 169.572L173.517 169.508L173.582 169.443L173.647 169.378L173.711 169.314L173.775 169.249L173.84 169.185L173.904 169.121L173.968 169.057L174.032 168.993L174.096 168.929L174.16 168.865L174.224 168.801L174.287 168.737L174.351 168.674L174.414 168.61L174.478 168.547L174.541 168.484L174.604 168.42L174.667 168.357L174.73 168.294L174.793 168.231L174.856 168.169L174.919 168.106L174.982 168.043L175.044 167.981L175.107 167.918L175.169 167.856L175.231 167.794L175.293 167.732L175.355 167.67L175.417 167.608L175.479 167.546L175.541 167.484L175.602 167.423L175.664 167.361L175.725 167.3L175.787 167.238L175.848 167.177L175.909 167.116L175.97 167.055L176.031 166.994L176.092 166.933L176.152 166.872L176.213 166.812L176.274 166.751L176.334 166.691L176.394 166.631L176.454 166.57L176.514 166.51L176.574 166.45L176.634 166.391L176.694 166.331L176.754 166.271L176.813 166.212L176.873 166.152L176.932 166.093L176.991 166.034L177.05 165.975L177.109 165.916L177.168 165.857L177.227 165.798L177.286 165.739L177.344 165.681L177.403 165.622L177.461 165.564L177.519 165.506L177.577 165.448L177.635 165.39L177.693 165.332L177.751 165.274L177.809 165.216L177.866 165.159L177.924 165.101L177.981 165.044L178.038 164.987L178.095 164.93L178.152 164.873L178.209 164.816L178.266 164.759L178.322 164.702L178.379 164.646L178.435 164.59L178.492 164.533L178.548 164.477L178.604 164.421L178.66 164.365L178.715 164.309L178.771 164.254L178.827 164.198L178.882 164.143L178.937 164.087L178.993 164.032L179.048 163.977L179.103 163.922L179.158 163.867L179.212 163.813L179.267 163.758L179.321 163.704L179.376 163.649L179.43 163.595L179.484 163.541L179.538 163.487L179.592 163.433L179.645 163.379L179.699 163.326L179.753 163.272L179.806 163.219L179.859 163.166L179.912 163.113L179.965 163.06L180.018 163.007L180.071 162.954L180.123 162.902L180.176 162.849L180.228 162.797L180.28 162.745L180.332 162.693L180.384 162.641L180.436 162.589L180.488 162.537L180.539 162.486L180.591 162.434L180.642 162.383L180.693 162.332L180.744 162.281L180.795 162.23L180.846 162.179L180.896 162.128L180.947 162.078L180.997 162.028L181.048 161.977L181.098 161.927L181.148 161.877L181.197 161.827L181.247 161.778L181.297 161.728L181.346 161.679L181.395 161.63L181.444 161.58L181.493 161.531L181.542 161.483L181.591 161.434L181.64 161.385L181.688 161.337L181.736 161.289L181.785 161.24L181.833 161.192L181.88 161.144L181.928 161.097L181.976 161.049L182.023 161.002L182.071 160.954L182.118 160.907L182.165 160.86L182.212 160.813L182.258 160.766L182.305 160.72L182.352 160.673L182.398 160.627L182.444 160.581L182.49 160.535L182.536 160.489L182.582 160.443L182.627 160.397L182.673 160.352L182.718 160.307L182.763 160.262L182.808 160.217L182.853 160.172L182.898 160.127L182.943 160.082L182.987 160.038L183.031 159.994L183.075 159.949L183.119 159.906L183.163 159.862L183.207 159.818L183.25 159.774L183.294 159.731L183.337 159.688L183.38 159.645L183.423 159.602L183.466 159.559L183.508 159.516L183.551 159.474L183.593 159.432L183.635 159.389L183.677 159.347L183.719 159.306L183.761 159.264L183.803 159.222L183.844 159.181L183.885 159.14L183.926 159.099L183.967 159.058L184.008 159.017L184.049 158.976L184.089 158.936L184.129 158.896L184.169 158.855L184.209 158.815L184.249 158.776L184.289 158.736L184.328 158.696L184.368 158.657L184.407 158.618L184.446 158.579L184.485 158.54L184.524 158.501L184.562 158.463L184.601 158.424L184.639 158.386L184.677 158.348L184.715 158.31L184.752 158.272L184.79 158.235L184.827 158.197L184.865 158.16L184.902 158.123L184.939 158.086L184.975 158.049L185.012 158.013L185.048 157.976L185.085 157.94L185.121 157.904L185.157 157.868L185.192 157.832L185.228 157.797L185.263 157.761L185.299 157.726L185.334 157.691L185.369 157.656L185.403 157.621L185.438 157.587L185.472 157.552L185.507 157.518L185.541 157.484L185.575 157.45L185.608 157.416L185.642 157.383L185.675 157.35L185.709 157.316L185.742 157.283L185.774 157.25L185.807 157.218L185.84 157.185L185.872 157.153L185.904 157.121L185.936 157.089L185.968 157.057L186 157.025L186.031 156.994L186.062 156.962L186.094 156.931L186.124 156.9L186.155 156.87L186.186 156.839L186.216 156.809L186.246 156.778L186.276 156.748L186.306 156.719L186.336 156.689L186.366 156.659L186.395 156.63L186.424 156.601L186.453 156.572L186.482 156.543L186.51 156.514L186.539 156.486L186.567 156.458L186.595 156.43L186.623 156.402L186.651 156.374L186.678 156.347L186.706 156.319L186.733 156.292L186.76 156.265L186.787 156.238L186.813 156.212L186.84 156.185L186.866 156.159L186.892 156.133L186.918 156.107L186.943 156.081L186.969 156.056L186.994 156.031L187.019 156.006L187.044 155.981L187.069 155.956L187.093 155.931L187.118 155.907L187.142 155.883L187.166 155.859L187.19 155.835L187.213 155.812L187.237 155.788L187.26 155.765L187.283 155.742L187.306 155.719L187.328 155.696L187.351 155.674L187.373 155.652L187.395 155.63L187.417 155.608L187.439 155.586L187.46 155.565L187.482 155.543L187.503 155.522L187.524 155.501L187.544 155.481L187.565 155.46L187.585 155.44L187.605 155.42L187.625 155.4L187.645 155.38L187.664 155.361L187.684 155.341L187.703 155.322L187.722 155.303L187.74 155.284L187.759 155.266L187.777 155.248L187.795 155.229L187.813 155.212L187.831 155.194L187.849 155.176L187.866 155.159L187.883 155.142L187.9 155.125L187.917 155.108L187.933 155.092L187.95 155.075L187.966 155.059L187.982 155.043L187.997 155.028L188.013 155.012L188.028 154.997L188.043 154.982L188.058 154.967L188.073 154.952L188.087 154.938L188.101 154.923L188.115 154.909L188.129 154.896L188.143 154.882L188.156 154.868L188.17 154.855L188.183 154.842L188.195 154.829L188.208 154.817L188.213 154.812C199.894 166.866 199.894 186.038 188.213 198.093L166.573 176.452Z" fill="#00B453" stroke="black"/>
<rect x="188.408" y="197.271" width="1.79781" height="29.7336" transform="rotate(135 188.408 197.271)" fill="#00B453"/>
</svg>
