<svg width="178" height="273" viewBox="0 0 178 273" fill="none" xmlns="http://www.w3.org/2000/svg">
<rect x="0.19043" y="0.59082" width="177" height="272" fill="#EF4343"/>
<path d="M159.41 37.5355C166.882 42.7676 172.806 49.612 177.189 57.6631V146.952C172.154 160.396 165.098 173.901 156.037 186.843C116.68 243.05 54.3809 267.332 16.8876 241.079C10.0261 236.275 4.47089 230.111 0.214858 222.901L0.189941 128.855C5.136 116.342 11.8302 103.813 20.2612 91.7718C59.6178 35.5648 121.917 11.2824 159.41 37.5355Z" fill="white"/>
<path d="M10.5347 15.7062L17.4598 8.78105L22.425 13.7462L15.4999 20.6713L10.5347 15.7062Z" fill="white"/>
<path d="M26.3454 4.86133L25.0304 17.2658L13.941 6.17642L26.3454 4.86133Z" fill="white"/>
<path d="M15.7611 20.4101C13.0189 23.1523 10.796 25.3752 10.796 25.3752C8.05377 22.6331 8.05377 18.1871 10.796 15.4449L15.7611 20.4101Z" fill="white"/>
<path d="M10.7708 16.901L11.9988 15.673L15.5391 19.2133L14.311 20.4413L10.7708 16.901Z" fill="white"/>
<path d="M20.0735 28.9031L13.1483 35.8282L8.18316 30.863L15.1083 23.9379L20.0735 28.9031Z" fill="white"/>
<path d="M4.2627 39.7479L5.57778 27.3435L16.6672 38.4329L4.2627 39.7479Z" fill="white"/>
<path d="M14.847 24.1992C17.5892 21.457 19.8122 19.234 19.8122 19.234C22.5544 21.9762 22.5544 26.4222 19.8122 29.1644L14.847 24.1992Z" fill="white"/>
<path d="M19.8303 27.6532L18.6453 28.8803L15.062 25.42L16.247 24.1929L19.8303 27.6532Z" fill="white"/>
<path d="M157.535 244.706L164.46 237.781L169.425 242.746L162.5 249.671L157.535 244.706Z" fill="white"/>
<path d="M173.346 233.861L172.031 246.266L160.941 235.176L173.346 233.861Z" fill="white"/>
<path d="M162.762 249.41C160.019 252.152 157.796 254.375 157.796 254.375C155.054 251.633 155.054 247.187 157.796 244.445L162.762 249.41Z" fill="white"/>
<path d="M157.771 245.901L158.999 244.673L162.54 248.213L161.312 249.441L157.771 245.901Z" fill="white"/>
<path d="M167.074 257.903L160.149 264.828L155.184 259.863L162.109 252.938L167.074 257.903Z" fill="white"/>
<path d="M151.263 268.748L152.578 256.343L163.668 267.433L151.263 268.748Z" fill="white"/>
<path d="M161.847 253.199C164.59 250.457 166.813 248.234 166.813 248.234C169.555 250.976 169.555 255.422 166.813 258.164L161.847 253.199Z" fill="white"/>
<path d="M166.831 256.653L165.646 257.88L162.063 254.42L163.248 253.193L166.831 256.653Z" fill="white"/>
<path d="M67.4535 108.22L98.6264 77.0472L120.977 99.3976L89.8039 130.571L67.4535 108.22Z" fill="#EF4343"/>
<path d="M138.624 59.4033L132.705 115.241L82.7864 65.3231L138.624 59.4033Z" fill="#EF4343"/>
<path d="M90.9802 129.394C78.6364 141.738 68.6298 151.745 68.6298 151.745C56.286 139.401 56.286 119.388 68.6298 107.044L90.9802 129.394Z" fill="#EF4343"/>
<path d="M68.0009 108.994L70.9107 106.084L91.9364 127.11L89.0266 130.02L68.0009 108.994Z" fill="#EF4343"/>
<path d="M110.393 167.626L79.2196 198.799L56.8692 176.449L88.0421 145.276L110.393 167.626Z" fill="#EF4343"/>
<path d="M39.2217 216.443L45.1414 160.605L95.0596 210.524L39.2217 216.443Z" fill="#EF4343"/>
<path d="M86.8658 146.452C99.2096 134.109 109.216 124.102 109.216 124.102C121.56 136.446 121.56 156.459 109.216 168.803L86.8658 146.452Z" fill="#EF4343"/>
<path d="M109.408 167.271L108.136 168.543L87.1115 147.518L88.3827 146.247L109.408 167.271Z" fill="#EF4343"/>
</svg>
