<svg width="178" height="274" viewBox="0 0 178 274" fill="none" xmlns="http://www.w3.org/2000/svg">
<rect x="0.19043" y="0.59082" width="177" height="272" fill="#EF4343"/>
<path d="M159.41 37.5355C166.882 42.7676 172.806 49.612 177.189 57.6631V146.952C172.154 160.396 165.098 173.901 156.037 186.843C116.68 243.05 54.3809 267.332 16.8876 241.079C10.0261 236.275 4.47089 230.111 0.214858 222.901L0.189941 128.855C5.136 116.342 11.8302 103.813 20.2612 91.7718C59.6178 35.5648 121.917 11.2824 159.41 37.5355Z" fill="white"/>
<path d="M10.0556 29.52C10.0556 30.16 10.2556 30.73 10.6556 31.23C11.0556 31.73 11.6456 31.98 12.4256 31.98C14.0456 31.98 15.2956 31.13 16.1756 29.43C17.0756 27.73 17.6356 25.49 17.8556 22.71C16.5756 23.87 15.1156 24.45 13.4756 24.45C11.8356 24.45 10.4356 23.91 9.27559 22.83C8.11559 21.75 7.53559 20.29 7.53559 18.45C7.53559 16.59 8.16559 14.96 9.42559 13.56C10.7056 12.14 12.5356 11.43 14.9156 11.43C16.4356 11.43 17.8456 12.08 19.1456 13.38C19.7856 14.02 20.2956 14.9 20.6756 16.02C21.0756 17.14 21.2756 18.49 21.2756 20.07C21.2756 21.63 21.0956 23.22 20.7356 24.84C20.3956 26.44 19.8756 27.94 19.1756 29.34C18.4756 30.74 17.5056 31.87 16.2656 32.73C15.0456 33.57 13.6456 33.99 12.0656 33.99C10.4856 33.99 9.24559 33.57 8.34559 32.73C7.46559 31.87 7.02559 30.93 7.02559 29.91C7.02559 28.87 7.32559 28.01 7.92559 27.33C8.54559 26.63 9.39559 26.28 10.4756 26.28C10.8156 26.28 11.1956 26.35 11.6156 26.49C10.5756 27.23 10.0556 28.24 10.0556 29.52ZM17.9456 20.73L17.9756 19.8C17.9756 17.94 17.7056 16.44 17.1656 15.3C16.6256 14.14 15.7656 13.56 14.5856 13.56C13.4056 13.56 12.4756 14.06 11.7956 15.06C11.1356 16.04 10.8056 17.11 10.8056 18.27C10.8056 19.43 11.0556 20.38 11.5556 21.12C12.0756 21.86 12.8356 22.23 13.8356 22.23C15.3156 22.23 16.6856 21.73 17.9456 20.73Z" fill="white"/>
<path d="M161.056 260.52C161.056 261.16 161.256 261.73 161.656 262.23C162.056 262.73 162.646 262.98 163.426 262.98C165.046 262.98 166.296 262.13 167.176 260.43C168.076 258.73 168.636 256.49 168.856 253.71C167.576 254.87 166.116 255.45 164.476 255.45C162.836 255.45 161.436 254.91 160.276 253.83C159.116 252.75 158.536 251.29 158.536 249.45C158.536 247.59 159.166 245.96 160.426 244.56C161.706 243.14 163.536 242.43 165.916 242.43C167.436 242.43 168.846 243.08 170.146 244.38C170.786 245.02 171.296 245.9 171.676 247.02C172.076 248.14 172.276 249.49 172.276 251.07C172.276 252.63 172.096 254.22 171.736 255.84C171.396 257.44 170.876 258.94 170.176 260.34C169.476 261.74 168.506 262.87 167.266 263.73C166.046 264.57 164.646 264.99 163.066 264.99C161.486 264.99 160.246 264.57 159.346 263.73C158.466 262.87 158.026 261.93 158.026 260.91C158.026 259.87 158.326 259.01 158.926 258.33C159.546 257.63 160.396 257.28 161.476 257.28C161.816 257.28 162.196 257.35 162.616 257.49C161.576 258.23 161.056 259.24 161.056 260.52ZM168.946 251.73L168.976 250.8C168.976 248.94 168.706 247.44 168.166 246.3C167.626 245.14 166.766 244.56 165.586 244.56C164.406 244.56 163.476 245.06 162.796 246.06C162.136 247.04 161.806 248.11 161.806 249.27C161.806 250.43 162.056 251.38 162.556 252.12C163.076 252.86 163.836 253.23 164.836 253.23C166.316 253.23 167.686 252.73 168.946 251.73Z" fill="white"/>
<path d="M72.2223 166.08C72.2223 168.64 73.0223 170.92 74.6223 172.92C76.2223 174.92 78.5823 175.92 81.7023 175.92C88.1823 175.92 93.1823 172.52 96.7023 165.72C100.302 158.92 102.542 149.96 103.422 138.84C98.3023 143.48 92.4623 145.8 85.9023 145.8C79.3423 145.8 73.7423 143.64 69.1023 139.32C64.4623 135 62.1423 129.16 62.1423 121.8C62.1423 114.36 64.6623 107.84 69.7023 102.24C74.8223 96.56 82.1423 93.72 91.6623 93.72C97.7423 93.72 103.382 96.32 108.582 101.52C111.142 104.08 113.182 107.6 114.702 112.08C116.302 116.56 117.102 121.96 117.102 128.28C117.102 134.52 116.382 140.88 114.942 147.36C113.582 153.76 111.502 159.76 108.702 165.36C105.902 170.96 102.022 175.48 97.0623 178.92C92.1823 182.28 86.5823 183.96 80.2623 183.96C73.9423 183.96 68.9823 182.28 65.3823 178.92C61.8623 175.48 60.1023 171.72 60.1023 167.64C60.1023 163.48 61.3023 160.04 63.7023 157.32C66.1823 154.52 69.5823 153.12 73.9023 153.12C75.2623 153.12 76.7823 153.4 78.4623 153.96C74.3023 156.92 72.2223 160.96 72.2223 166.08ZM103.782 130.92L103.902 127.2C103.902 119.76 102.822 113.76 100.662 109.2C98.5023 104.56 95.0623 102.24 90.3423 102.24C85.6223 102.24 81.9023 104.24 79.1823 108.24C76.5423 112.16 75.2223 116.44 75.2223 121.08C75.2223 125.72 76.2223 129.52 78.2223 132.48C80.3023 135.44 83.3423 136.92 87.3423 136.92C93.2623 136.92 98.7423 134.92 103.782 130.92Z" fill="#EF4343"/>
</svg>
