<svg width="178" height="274" viewBox="0 0 178 274" fill="none" xmlns="http://www.w3.org/2000/svg">
<rect x="0.19043" y="0.59082" width="177" height="272" fill="#E7C200"/>
<path d="M159.41 37.5355C166.882 42.7676 172.806 49.612 177.189 57.6631V146.952C172.154 160.396 165.098 173.901 156.037 186.843C116.68 243.05 54.3809 267.332 16.8876 241.079C10.0261 236.275 4.47089 230.111 0.214858 222.901L0.189941 128.855C5.136 116.342 11.8302 103.813 20.2612 91.7718C59.6178 35.5648 121.917 11.2824 159.41 37.5355Z" fill="white"/>
<path d="M21.8186 10.05C22.0986 10.57 22.2386 11.14 22.2386 11.76C22.2386 12.38 21.7686 13.67 20.8286 15.63C19.8886 17.57 18.8386 19.61 17.6786 21.75C16.5386 23.89 15.4186 26.23 14.3186 28.77C13.2386 31.31 12.5886 33.39 12.3686 35.01C12.2086 35.01 11.9186 34.93 11.4986 34.77C11.0986 34.61 10.7686 34.44 10.5086 34.26C10.2686 34.08 10.0486 33.8 9.84859 33.42C9.64859 33.04 9.54859 32.55 9.54859 31.95C9.54859 31.35 10.0386 30.12 11.0186 28.26C11.9986 26.38 13.2986 24.03 14.9186 21.21C16.5586 18.37 17.7886 16.11 18.6086 14.43C13.8686 15.17 10.9786 15.54 9.93859 15.54C8.91859 15.54 8.40859 14.83 8.40859 13.41C8.40859 12.67 8.49859 12.12 8.67859 11.76C11.1186 12.06 13.3786 12.21 15.4586 12.21C17.5386 12.21 18.9386 12.18 19.6586 12.12C20.2186 10.76 20.5886 9.61 20.7686 8.67C20.8686 8.75 20.9986 8.87 21.1586 9.03C21.3386 9.17 21.5586 9.51 21.8186 10.05Z" fill="white"/>
<path d="M172.819 241.05C173.099 241.57 173.239 242.14 173.239 242.76C173.239 243.38 172.769 244.67 171.829 246.63C170.889 248.57 169.839 250.61 168.679 252.75C167.539 254.89 166.419 257.23 165.319 259.77C164.239 262.31 163.589 264.39 163.369 266.01C163.209 266.01 162.919 265.93 162.499 265.77C162.099 265.61 161.769 265.44 161.509 265.26C161.269 265.08 161.049 264.8 160.849 264.42C160.649 264.04 160.549 263.55 160.549 262.95C160.549 262.35 161.039 261.12 162.019 259.26C162.999 257.38 164.299 255.03 165.919 252.21C167.559 249.37 168.789 247.11 169.609 245.43C164.869 246.17 161.979 246.54 160.939 246.54C159.919 246.54 159.409 245.83 159.409 244.41C159.409 243.67 159.499 243.12 159.679 242.76C162.119 243.06 164.379 243.21 166.459 243.21C168.539 243.21 169.939 243.18 170.659 243.12C171.219 241.76 171.589 240.61 171.769 239.67C171.869 239.75 171.999 239.87 172.159 240.03C172.339 240.17 172.559 240.51 172.819 241.05Z" fill="white"/>
<path d="M117.274 88.2C118.394 90.28 118.954 92.56 118.954 95.04C118.954 97.52 117.074 102.68 113.314 110.52C109.554 118.28 105.354 126.44 100.714 135C96.1544 143.56 91.6744 152.92 87.2744 163.08C82.9544 173.24 80.3544 181.56 79.4744 188.04C78.8344 188.04 77.6744 187.72 75.9944 187.08C74.3944 186.44 73.0744 185.76 72.0344 185.04C71.0744 184.32 70.1944 183.2 69.3944 181.68C68.5944 180.16 68.1944 178.2 68.1944 175.8C68.1944 173.4 70.1544 168.48 74.0744 161.04C77.9944 153.52 83.1944 144.12 89.6744 132.84C96.2344 121.48 101.154 112.44 104.434 105.72C85.4744 108.68 73.9144 110.16 69.7544 110.16C65.6744 110.16 63.6344 107.32 63.6344 101.64C63.6344 98.68 63.9944 96.48 64.7144 95.04C74.4744 96.24 83.5144 96.84 91.8344 96.84C100.154 96.84 105.754 96.72 108.634 96.48C110.874 91.04 112.354 86.44 113.074 82.68C113.474 83 113.994 83.48 114.634 84.12C115.354 84.68 116.234 86.04 117.274 88.2Z" fill="#E7C200"/>
</svg>
