<svg width="177" height="272" viewBox="0 0 177 272" fill="none" xmlns="http://www.w3.org/2000/svg">
<rect x="0.000488281" width="177" height="272" fill="#EF4343"/>
<path d="M159.22 36.9447C166.693 42.1768 172.616 49.0211 176.999 57.0723V146.361C171.964 159.805 164.908 173.311 155.847 186.252C116.49 242.459 54.191 266.741 16.6977 240.488C9.83616 235.684 4.28095 229.52 0.024917 222.31L0 128.264C4.94606 115.751 11.6403 103.222 20.0713 91.181C59.4279 34.974 121.727 10.6916 159.22 36.9447Z" fill="white"/>
<rect x="118.013" y="96.8521" width="14.6503" height="93" transform="rotate(45 118.013 96.8521)" fill="#EF4343"/>
<circle cx="90.3101" cy="134.909" r="47.5" stroke="#EF4343" stroke-width="14"/>
<rect x="164.25" y="240.769" width="4.48487" height="26.9841" transform="rotate(45 164.25 240.769)" fill="white"/>
<circle cx="156.31" cy="251.909" r="14.5" stroke="white" stroke-width="4"/>
<rect x="28.25" y="9.76855" width="4.48487" height="26.9841" transform="rotate(45 28.25 9.76855)" fill="white"/>
<circle cx="20.3101" cy="20.9092" r="14.5" stroke="white" stroke-width="4"/>
</svg>
