<svg width="178" height="274" viewBox="0 0 178 274" fill="none" xmlns="http://www.w3.org/2000/svg">
<rect x="0.19043" y="0.59082" width="177" height="272" fill="#00B453"/>
<path d="M159.41 37.5355C166.882 42.7676 172.806 49.612 177.189 57.6631V146.952C172.154 160.396 165.098 173.901 156.037 186.843C116.68 243.05 54.3809 267.332 16.8876 241.079C10.0261 236.275 4.47089 230.111 0.214858 222.901L0.189941 128.855C5.136 116.342 11.8302 103.813 20.2612 91.7718C59.6178 35.5648 121.917 11.2824 159.41 37.5355Z" fill="white"/>
<path d="M13.4428 33.99C11.3028 33.99 9.66277 33.49 8.52277 32.49C7.40277 31.49 6.84277 30.34 6.84277 29.04C6.84277 27.72 7.29277 26.53 8.19277 25.47C9.09277 24.39 10.3428 23.54 11.9428 22.92C9.74277 21.02 8.64277 19.08 8.64277 17.1C8.64277 15.38 9.27277 14.01 10.5328 12.99C11.8128 11.95 13.4428 11.43 15.4228 11.43C17.4228 11.43 18.8728 11.86 19.7728 12.72C20.6928 13.58 21.1528 14.67 21.1528 15.99C21.1528 17.29 20.7428 18.5 19.9228 19.62C19.1228 20.74 18.0128 21.61 16.5928 22.23C17.8728 23.21 18.8628 24.17 19.5628 25.11C20.2828 26.05 20.6428 27.14 20.6428 28.38C20.6428 30.02 19.9828 31.37 18.6628 32.43C17.3428 33.47 15.6028 33.99 13.4428 33.99ZM17.2828 28.56C17.2828 28.16 17.2028 27.83 17.0428 27.57C16.9028 27.31 16.7828 27.11 16.6828 26.97C16.6028 26.81 16.4528 26.63 16.2328 26.43C16.0328 26.23 15.8728 26.07 15.7528 25.95C15.6528 25.83 15.4628 25.66 15.1828 25.44C14.9028 25.22 14.6928 25.06 14.5528 24.96C14.4328 24.86 14.2028 24.69 13.8628 24.45C13.5428 24.19 13.3228 24.01 13.2028 23.91C11.1028 25.61 10.0528 27.22 10.0528 28.74C10.0528 29.74 10.3328 30.56 10.8928 31.2C11.4528 31.82 12.2328 32.13 13.2328 32.13C14.2328 32.13 15.1528 31.81 15.9928 31.17C16.8528 30.53 17.2828 29.66 17.2828 28.56ZM15.3928 13.32C14.4128 13.32 13.5928 13.64 12.9328 14.28C12.2928 14.9 11.9728 15.67 11.9728 16.59C11.9728 17.51 12.2528 18.31 12.8128 18.99C13.3728 19.65 14.2028 20.4 15.3028 21.24C17.3028 19.64 18.3028 17.99 18.3028 16.29C18.3028 15.45 18.0628 14.75 17.5828 14.19C17.1028 13.61 16.3728 13.32 15.3928 13.32Z" fill="white"/>
<path d="M164.443 264.99C162.303 264.99 160.663 264.49 159.523 263.49C158.403 262.49 157.843 261.34 157.843 260.04C157.843 258.72 158.293 257.53 159.193 256.47C160.093 255.39 161.343 254.54 162.943 253.92C160.743 252.02 159.643 250.08 159.643 248.1C159.643 246.38 160.273 245.01 161.533 243.99C162.813 242.95 164.443 242.43 166.423 242.43C168.423 242.43 169.873 242.86 170.773 243.72C171.693 244.58 172.153 245.67 172.153 246.99C172.153 248.29 171.743 249.5 170.923 250.62C170.123 251.74 169.013 252.61 167.593 253.23C168.873 254.21 169.863 255.17 170.563 256.11C171.283 257.05 171.643 258.14 171.643 259.38C171.643 261.02 170.983 262.37 169.663 263.43C168.343 264.47 166.603 264.99 164.443 264.99ZM168.283 259.56C168.283 259.16 168.203 258.83 168.043 258.57C167.903 258.31 167.783 258.11 167.683 257.97C167.603 257.81 167.453 257.63 167.233 257.43C167.033 257.23 166.873 257.07 166.753 256.95C166.653 256.83 166.463 256.66 166.183 256.44C165.903 256.22 165.693 256.06 165.553 255.96C165.433 255.86 165.203 255.69 164.863 255.45C164.543 255.19 164.323 255.01 164.203 254.91C162.103 256.61 161.053 258.22 161.053 259.74C161.053 260.74 161.333 261.56 161.893 262.2C162.453 262.82 163.233 263.13 164.233 263.13C165.233 263.13 166.153 262.81 166.993 262.17C167.853 261.53 168.283 260.66 168.283 259.56ZM166.393 244.32C165.413 244.32 164.593 244.64 163.933 245.28C163.293 245.9 162.973 246.67 162.973 247.59C162.973 248.51 163.253 249.31 163.813 249.99C164.373 250.65 165.203 251.4 166.303 252.24C168.303 250.64 169.303 248.99 169.303 247.29C169.303 246.45 169.063 245.75 168.583 245.19C168.103 244.61 167.373 244.32 166.393 244.32Z" fill="white"/>
<path d="M85.7711 183.96C77.2111 183.96 70.6511 181.96 66.0911 177.96C61.6111 173.96 59.3711 169.36 59.3711 164.16C59.3711 158.88 61.1711 154.12 64.7711 149.88C68.3711 145.56 73.3711 142.16 79.7711 139.68C70.9711 132.08 66.5711 124.32 66.5711 116.4C66.5711 109.52 69.0911 104.04 74.1311 99.96C79.2511 95.8 85.7711 93.72 93.6911 93.72C101.691 93.72 107.491 95.44 111.091 98.88C114.771 102.32 116.611 106.68 116.611 111.96C116.611 117.16 114.971 122 111.691 126.48C108.491 130.96 104.051 134.44 98.3711 136.92C103.491 140.84 107.451 144.68 110.251 148.44C113.131 152.2 114.571 156.56 114.571 161.52C114.571 168.08 111.931 173.48 106.651 177.72C101.371 181.88 94.4111 183.96 85.7711 183.96ZM101.131 162.24C101.131 160.64 100.811 159.32 100.171 158.28C99.6111 157.24 99.1311 156.44 98.7311 155.88C98.4111 155.24 97.8111 154.52 96.9311 153.72C96.1311 152.92 95.4911 152.28 95.0111 151.8C94.6111 151.32 93.8511 150.64 92.7311 149.76C91.6111 148.88 90.7711 148.24 90.2111 147.84C89.7311 147.44 88.8111 146.76 87.4511 145.8C86.1711 144.76 85.2911 144.04 84.8111 143.64C76.4111 150.44 72.2111 156.88 72.2111 162.96C72.2111 166.96 73.3311 170.24 75.5711 172.8C77.8111 175.28 80.9311 176.52 84.9311 176.52C88.9311 176.52 92.6111 175.24 95.9711 172.68C99.4111 170.12 101.131 166.64 101.131 162.24ZM93.5711 101.28C89.6511 101.28 86.3711 102.56 83.7311 105.12C81.1711 107.6 79.8911 110.68 79.8911 114.36C79.8911 118.04 81.0111 121.24 83.2511 123.96C85.4911 126.6 88.8111 129.6 93.2111 132.96C101.211 126.56 105.211 119.96 105.211 113.16C105.211 109.8 104.251 107 102.331 104.76C100.411 102.44 97.4911 101.28 93.5711 101.28Z" fill="#00B453"/>
</svg>
