<svg width="177" height="273" viewBox="0 0 177 273" fill="none" xmlns="http://www.w3.org/2000/svg">
<rect x="0.000488281" width="177" height="272" fill="#2E2E2E"/>
<path d="M159.22 36.9449C166.693 42.177 172.616 49.0214 176.999 57.0725V146.361C171.964 159.805 164.908 173.311 155.847 186.252C116.49 242.459 54.191 266.742 16.6977 240.488C9.83616 235.684 4.28095 229.52 0.024917 222.31L0 128.265C4.94606 115.751 11.6403 103.222 20.0713 91.1812C59.4279 34.9742 121.727 10.6918 159.22 36.9449Z" fill="white"/>
<path d="M11.7075 20.8225H17.7427V22.844H11.7075V29.0842H9.67139V22.844H3.66553V20.8225H9.67139V14.553H11.7075V20.8225ZM35.8628 27.4875H32.6841V32.4094H30.355V27.4875H19.9399V25.3635L30.106 10.8762H32.6841V25.2756H35.8628V27.4875ZM30.355 25.2756V18.1565C30.355 16.76 30.4038 15.1829 30.5015 13.425H30.3843C29.9155 14.3625 29.4761 15.1389 29.0659 15.7542L22.3716 25.2756H30.355Z" fill="white"/>
<path d="M148.708 251.823H154.743V253.844H148.708V260.084H146.671V253.844H140.666V251.823H146.671V245.553H148.708V251.823ZM172.863 258.488H169.684V263.409H167.355V258.488H156.94V256.364L167.106 241.876H169.684V256.276H172.863V258.488ZM167.355 256.276V249.156C167.355 247.76 167.404 246.183 167.501 244.425H167.384C166.916 245.363 166.476 246.139 166.066 246.754L159.372 256.276H167.355Z" fill="white"/>
<rect x="13.3101" y="111.909" width="51" height="80" rx="9.5" fill="#00B453" stroke="white"/>
<rect x="46.3101" y="79.9094" width="51" height="80" rx="9.5" fill="#004FC5" stroke="white"/>
<rect x="79.3101" y="111.909" width="51" height="80" rx="9.5" fill="#EF4343" stroke="white"/>
<rect x="112.31" y="79.9094" width="51" height="80" rx="9.5" fill="#E7C200" stroke="white"/>
</svg>
