<svg width="273" height="178" viewBox="0 0 273 178" fill="none" xmlns="http://www.w3.org/2000/svg">
<rect x="0.689453" y="177.09" width="177" height="272" transform="rotate(-90 0.689453 177.09)" fill="#E7C200"/>
<path d="M37.6346 17.8705C42.8667 10.3983 49.7111 4.47525 57.7622 0.0922089H147.051C160.495 5.12707 174 12.1824 186.942 21.2441C243.149 60.6007 267.431 122.9 241.178 160.393C236.374 167.255 230.21 172.81 223 177.066L128.954 177.091C116.441 172.145 103.912 165.451 91.8709 157.02C35.6639 117.663 11.3815 55.3638 37.6346 17.8705Z" fill="white"/>
<rect x="100.951" y="57.0825" width="7" height="91" transform="rotate(-45 100.951 57.0825)" fill="#E7C200" stroke="black" stroke-width="2"/>
<circle cx="135.599" cy="86.7808" r="49.5" transform="rotate(-90 135.599 86.7808)" stroke="#E7C200" stroke-width="10"/>
<circle cx="135.599" cy="86.7808" r="53.5" transform="rotate(-90 135.599 86.7808)" stroke="black" stroke-width="2"/>
<circle cx="135.099" cy="87.2808" r="44" transform="rotate(-90 135.099 87.2808)" stroke="black" stroke-width="2"/>
<rect x="241.953" y="12.8408" width="3.78487" height="26.2841" transform="rotate(-45 241.953 12.8408)" fill="white" stroke="black" stroke-width="0.7"/>
<circle cx="252.599" cy="20.7808" r="15" transform="rotate(-90 252.599 20.7808)" stroke="white" stroke-width="3"/>
<circle cx="252.599" cy="20.7808" r="16.15" transform="rotate(-90 252.599 20.7808)" stroke="black" stroke-width="0.7"/>
<circle cx="252.599" cy="20.7808" r="13.15" transform="rotate(-90 252.599 20.7808)" stroke="black" stroke-width="0.7"/>
<rect x="10.953" y="148.841" width="3.78487" height="26.2841" transform="rotate(-45 10.953 148.841)" fill="white" stroke="black" stroke-width="0.7"/>
<circle cx="21.5986" cy="156.781" r="15" transform="rotate(-90 21.5986 156.781)" stroke="white" stroke-width="3"/>
<circle cx="21.5986" cy="156.781" r="16.15" transform="rotate(-90 21.5986 156.781)" stroke="black" stroke-width="0.7"/>
<circle cx="21.5986" cy="156.781" r="13.15" transform="rotate(-90 21.5986 156.781)" stroke="black" stroke-width="0.7"/>
</svg>
