<svg width="273" height="178" viewBox="0 0 273 178" fill="none" xmlns="http://www.w3.org/2000/svg">
<rect x="0.5" y="177.5" width="177" height="272" transform="rotate(-90 0.5 177.5)" fill="#EF4343"/>
<path d="M37.4452 18.2796C42.6773 10.8075 49.5216 4.88443 57.5728 0.501389H146.861C160.305 5.53625 173.811 12.5916 186.752 21.6533C242.959 61.0098 267.242 123.309 240.989 160.802C236.184 167.664 230.02 173.219 222.811 177.475L128.765 177.5C116.251 172.554 103.722 165.86 91.6815 157.429C35.4745 118.072 11.1921 55.773 37.4452 18.2796Z" fill="white"/>
<path d="M15.6153 167.155L8.69023 160.23L13.6554 155.265L20.5805 162.19L15.6153 167.155Z" fill="white"/>
<path d="M4.77051 151.344L17.175 152.66L6.0856 163.749L4.77051 151.344Z" fill="white"/>
<path d="M20.3192 161.929C23.0614 164.671 25.2844 166.894 25.2844 166.894C22.5422 169.636 18.0963 169.636 15.3541 166.894L20.3192 161.929Z" fill="white"/>
<path d="M16.8102 166.919L15.5822 165.691L19.1224 162.151L20.3505 163.379L16.8102 166.919Z" fill="white"/>
<path d="M28.8123 157.616L35.7374 164.542L30.7722 169.507L23.8471 162.582L28.8123 157.616Z" fill="white"/>
<path d="M39.6571 173.427L27.2526 172.112L38.342 161.023L39.6571 173.427Z" fill="white"/>
<path d="M24.1084 162.843C21.3662 160.101 19.1432 157.878 19.1432 157.878C21.8854 155.136 26.3314 155.136 29.0736 157.878L24.1084 162.843Z" fill="white"/>
<path d="M27.5624 157.86L28.7895 159.045L25.3292 162.628L24.1021 161.443L27.5624 157.86Z" fill="white"/>
<path d="M244.615 20.1548L237.69 13.2297L242.655 8.26448L249.581 15.1896L244.615 20.1548Z" fill="white"/>
<path d="M233.771 4.34401L246.175 5.6591L235.086 16.7485L233.771 4.34401Z" fill="white"/>
<path d="M249.319 14.9283C252.061 17.6705 254.284 19.8935 254.284 19.8935C251.542 22.6357 247.096 22.6357 244.354 19.8935L249.319 14.9283Z" fill="white"/>
<path d="M245.81 19.9187L244.582 18.6906L248.122 15.1504L249.35 16.3784L245.81 19.9187Z" fill="white"/>
<path d="M257.812 10.616L264.737 17.5411L259.772 22.5063L252.847 15.5812L257.812 10.616Z" fill="white"/>
<path d="M268.657 26.4268L256.253 25.1117L267.342 14.0223L268.657 26.4268Z" fill="white"/>
<path d="M253.108 15.8425C250.366 13.1003 248.143 10.8773 248.143 10.8773C250.885 8.13509 255.331 8.13509 258.074 10.8773L253.108 15.8425Z" fill="white"/>
<path d="M256.562 10.8592L257.789 12.0442L254.329 15.6274L253.102 14.4424L256.562 10.8592Z" fill="white"/>
<path d="M108.129 110.236L76.9564 79.0635L99.3068 56.7131L130.48 87.8861L108.129 110.236Z" fill="#EF4343"/>
<path d="M59.3125 39.0656L115.15 44.9854L65.2323 94.9035L59.3125 39.0656Z" fill="#EF4343"/>
<path d="M129.303 86.7098C141.647 99.0536 151.654 109.06 151.654 109.06C139.31 121.404 119.297 121.404 106.953 109.06L129.303 86.7098Z" fill="#EF4343"/>
<path d="M108.903 109.689L105.993 106.779L127.019 85.7535L129.929 88.6634L108.903 109.689Z" fill="#EF4343"/>
<path d="M167.536 67.2974L198.709 98.4703L176.358 120.821L145.185 89.6478L167.536 67.2974Z" fill="#EF4343"/>
<path d="M216.352 138.468L160.515 132.548L210.433 82.6304L216.352 138.468Z" fill="#EF4343"/>
<path d="M146.362 90.8241C134.018 78.4803 124.011 68.4737 124.011 68.4737C136.355 56.1299 156.368 56.1299 168.712 68.4737L146.362 90.8241Z" fill="#EF4343"/>
<path d="M167.181 68.2824L168.452 69.5536L147.427 90.5784L146.156 89.3072L167.181 68.2824Z" fill="#EF4343"/>
</svg>
