<svg width="275" height="178" viewBox="0 0 275 178" fill="none" xmlns="http://www.w3.org/2000/svg">
<rect x="1.28027" y="177.5" width="177" height="272" transform="rotate(-90 1.28027 177.5)" fill="#004FC5"/>
<path d="M38.2245 18.2796C43.4566 10.8075 50.3009 4.88443 58.3521 0.501389H147.641C161.085 5.53625 174.59 12.5916 187.532 21.6533C243.739 61.0098 268.021 123.309 241.768 160.802C236.964 167.664 230.8 173.219 223.59 177.475L129.544 177.5C117.031 172.554 104.501 165.86 92.4608 157.429C36.2538 118.072 11.9714 55.773 38.2245 18.2796Z" fill="white"/>
<path d="M30.2095 167.634C30.8495 167.634 31.4195 167.434 31.9195 167.034C32.4195 166.634 32.6695 166.044 32.6695 165.264C32.6695 163.644 31.8195 162.394 30.1195 161.514C28.4195 160.614 26.1795 160.054 23.3995 159.834C24.5595 161.114 25.1395 162.574 25.1395 164.214C25.1395 165.854 24.5995 167.254 23.5195 168.414C22.4395 169.574 20.9795 170.154 19.1395 170.154C17.2795 170.154 15.6495 169.524 14.2495 168.264C12.8295 166.984 12.1195 165.154 12.1195 162.774C12.1195 161.254 12.7695 159.844 14.0695 158.544C14.7095 157.904 15.5895 157.394 16.7095 157.014C17.8295 156.614 19.1795 156.414 20.7595 156.414C22.3195 156.414 23.9095 156.594 25.5295 156.954C27.1295 157.294 28.6295 157.814 30.0295 158.514C31.4295 159.214 32.5595 160.184 33.4195 161.424C34.2595 162.644 34.6795 164.044 34.6795 165.624C34.6795 167.204 34.2595 168.444 33.4195 169.344C32.5595 170.224 31.6195 170.664 30.5995 170.664C29.5595 170.664 28.6995 170.364 28.0195 169.764C27.3195 169.144 26.9695 168.294 26.9695 167.214C26.9695 166.874 27.0395 166.494 27.1795 166.074C27.9195 167.114 28.9295 167.634 30.2095 167.634ZM21.4195 159.744L20.4895 159.714C18.6295 159.714 17.1295 159.984 15.9895 160.524C14.8295 161.064 14.2495 161.924 14.2495 163.104C14.2495 164.284 14.7495 165.214 15.7495 165.894C16.7295 166.554 17.7995 166.884 18.9595 166.884C20.1195 166.884 21.0695 166.634 21.8095 166.134C22.5495 165.614 22.9195 164.854 22.9195 163.854C22.9195 162.374 22.4195 161.004 21.4195 159.744Z" fill="white"/>
<path d="M261.209 16.6344C261.849 16.6344 262.419 16.4344 262.919 16.0344C263.419 15.6344 263.669 15.0444 263.669 14.2644C263.669 12.6444 262.819 11.3944 261.119 10.5144C259.419 9.61435 257.179 9.05435 254.399 8.83435C255.559 10.1144 256.139 11.5744 256.139 13.2144C256.139 14.8544 255.599 16.2544 254.519 17.4144C253.439 18.5744 251.979 19.1544 250.139 19.1544C248.279 19.1544 246.649 18.5244 245.249 17.2644C243.829 15.9844 243.119 14.1544 243.119 11.7744C243.119 10.2544 243.769 8.84435 245.069 7.54435C245.709 6.90435 246.589 6.39435 247.709 6.01435C248.829 5.61435 250.179 5.41435 251.759 5.41435C253.319 5.41435 254.909 5.59435 256.529 5.95435C258.129 6.29436 259.629 6.81436 261.029 7.51435C262.429 8.21435 263.559 9.18436 264.419 10.4244C265.259 11.6444 265.679 13.0444 265.679 14.6244C265.679 16.2044 265.259 17.4444 264.419 18.3444C263.559 19.2244 262.619 19.6644 261.599 19.6644C260.559 19.6644 259.699 19.3644 259.019 18.7644C258.319 18.1444 257.969 17.2944 257.969 16.2144C257.969 15.8744 258.039 15.4944 258.179 15.0744C258.919 16.1144 259.929 16.6344 261.209 16.6344ZM252.419 8.74435L251.489 8.71436C249.629 8.71436 248.129 8.98435 246.989 9.52435C245.829 10.0644 245.249 10.9244 245.249 12.1044C245.249 13.2844 245.749 14.2144 246.749 14.8944C247.729 15.5544 248.799 15.8844 249.959 15.8844C251.119 15.8844 252.069 15.6344 252.809 15.1344C253.549 14.6144 253.919 13.8544 253.919 12.8544C253.919 11.3744 253.419 10.0044 252.419 8.74435Z" fill="white"/>
<path d="M166.769 105.468C169.329 105.468 171.609 104.668 173.609 103.068C175.609 101.468 176.609 99.1076 176.609 95.9876C176.609 89.5076 173.209 84.5076 166.409 80.9876C159.609 77.3876 150.649 75.1476 139.529 74.2676C144.169 79.3876 146.489 85.2276 146.489 91.7876C146.489 98.3476 144.329 103.948 140.009 108.588C135.689 113.228 129.849 115.548 122.489 115.548C115.049 115.548 108.529 113.028 102.929 107.988C97.2494 102.868 94.4094 95.5476 94.4094 86.0276C94.4094 79.9476 97.0094 74.3076 102.209 69.1076C104.769 66.5476 108.289 64.5076 112.769 62.9876C117.249 61.3876 122.649 60.5876 128.969 60.5876C135.209 60.5876 141.569 61.3076 148.049 62.7476C154.449 64.1076 160.449 66.1876 166.049 68.9876C171.649 71.7876 176.169 75.6676 179.609 80.6276C182.969 85.5076 184.649 91.1076 184.649 97.4276C184.649 103.748 182.969 108.708 179.609 112.308C176.169 115.828 172.409 117.588 168.329 117.588C164.169 117.588 160.729 116.388 158.009 113.988C155.209 111.508 153.809 108.108 153.809 103.788C153.809 102.428 154.089 100.908 154.649 99.2276C157.609 103.388 161.649 105.468 166.769 105.468ZM131.609 73.9076L127.889 73.7876C120.449 73.7876 114.449 74.8676 109.889 77.0276C105.249 79.1876 102.929 82.6276 102.929 87.3476C102.929 92.0676 104.929 95.7876 108.929 98.5076C112.849 101.148 117.129 102.468 121.769 102.468C126.409 102.468 130.209 101.468 133.169 99.4676C136.129 97.3876 137.609 94.3476 137.609 90.3476C137.609 84.4276 135.609 78.9476 131.609 73.9076Z" fill="#004FC5"/>
</svg>
