<svg width="275" height="178" viewBox="0 0 275 178" fill="none" xmlns="http://www.w3.org/2000/svg">
<rect x="1.28027" y="177.5" width="177" height="272" transform="rotate(-90 1.28027 177.5)" fill="#E7C200"/>
<path d="M38.2245 18.2799C43.4566 10.8077 50.3009 4.88468 58.3521 0.501633H147.641C161.085 5.5365 174.59 12.5918 187.532 21.6535C243.739 61.0101 268.021 123.309 241.768 160.803C236.964 167.664 230.8 173.219 223.59 177.475L129.544 177.5C117.031 172.554 104.501 165.86 92.4608 157.429C36.2538 118.072 11.9714 55.7732 38.2245 18.2799Z" fill="white"/>
<path d="M17.2495 160.307C16.3895 160.307 15.6895 160.547 15.1495 161.027C14.6095 161.487 14.3395 162.157 14.3395 163.037C14.3395 163.897 14.5795 164.567 15.0595 165.047C15.5195 165.527 16.1695 165.767 17.0095 165.767C17.8295 165.767 18.6395 165.417 19.4395 164.717C19.5395 165.077 19.5895 165.417 19.5895 165.737C19.5895 166.637 19.3195 167.347 18.7795 167.867C18.2395 168.387 17.5795 168.647 16.7995 168.647C15.4595 168.647 14.3595 168.137 13.4995 167.117C12.6195 166.077 12.1795 164.677 12.1795 162.917C12.1795 161.157 12.6795 159.787 13.6795 158.807C14.6595 157.807 15.8395 157.307 17.2195 157.307C18.2595 157.307 19.2495 157.637 20.1895 158.297C21.1095 158.957 21.8795 159.967 22.4995 161.327C22.6995 160.067 23.3095 159.037 24.3295 158.237C25.3295 157.437 26.5095 157.037 27.8695 157.037C29.6895 157.037 31.2795 157.707 32.6395 159.047C33.9995 160.387 34.6795 162.267 34.6795 164.687C34.6795 166.627 34.2095 168.137 33.2695 169.217C32.3295 170.297 31.2395 170.837 29.9995 170.837C29.0395 170.837 28.2195 170.537 27.5395 169.937C26.8395 169.317 26.4895 168.467 26.4895 167.387C26.4895 167.047 26.5595 166.667 26.6995 166.247C26.9995 166.667 27.4295 167.007 27.9895 167.267C28.5495 167.527 29.0995 167.657 29.6395 167.657C31.5795 167.657 32.5495 166.597 32.5495 164.477C32.5495 163.377 32.1695 162.427 31.4095 161.627C30.6295 160.827 29.6295 160.427 28.4095 160.427C27.1895 160.427 26.1295 160.807 25.2295 161.567C24.3095 162.307 23.7395 163.327 23.5195 164.627C23.5795 164.947 23.6495 165.377 23.7295 165.917L22.7095 166.067C22.4095 164.227 21.7195 162.807 20.6395 161.807C19.5595 160.807 18.4295 160.307 17.2495 160.307Z" fill="white"/>
<path d="M248.249 9.30726C247.389 9.30726 246.689 9.54726 246.149 10.0273C245.609 10.4873 245.339 11.1573 245.339 12.0373C245.339 12.8973 245.579 13.5673 246.059 14.0473C246.519 14.5273 247.169 14.7673 248.009 14.7673C248.829 14.7673 249.639 14.4173 250.439 13.7173C250.539 14.0773 250.589 14.4173 250.589 14.7373C250.589 15.6373 250.319 16.3473 249.779 16.8673C249.239 17.3873 248.579 17.6473 247.799 17.6473C246.459 17.6473 245.359 17.1373 244.499 16.1173C243.619 15.0773 243.179 13.6773 243.179 11.9173C243.179 10.1573 243.679 8.78726 244.679 7.80725C245.659 6.80726 246.839 6.30726 248.219 6.30726C249.259 6.30726 250.249 6.63726 251.189 7.29726C252.109 7.95726 252.879 8.96726 253.499 10.3273C253.699 9.06726 254.309 8.03726 255.329 7.23726C256.329 6.43726 257.509 6.03726 258.869 6.03726C260.689 6.03726 262.279 6.70726 263.639 8.04726C264.999 9.38726 265.679 11.2673 265.679 13.6873C265.679 15.6273 265.209 17.1373 264.269 18.2173C263.329 19.2973 262.239 19.8373 260.999 19.8373C260.039 19.8373 259.219 19.5373 258.539 18.9373C257.839 18.3173 257.489 17.4673 257.489 16.3873C257.489 16.0473 257.559 15.6673 257.699 15.2473C257.999 15.6673 258.429 16.0073 258.989 16.2673C259.549 16.5273 260.099 16.6573 260.639 16.6573C262.579 16.6573 263.549 15.5973 263.549 13.4773C263.549 12.3773 263.169 11.4273 262.409 10.6273C261.629 9.82726 260.629 9.42726 259.409 9.42726C258.189 9.42726 257.129 9.80726 256.229 10.5673C255.309 11.3073 254.739 12.3273 254.519 13.6273C254.579 13.9473 254.649 14.3773 254.729 14.9173L253.709 15.0673C253.409 13.2273 252.719 11.8073 251.639 10.8073C250.559 9.80726 249.429 9.30726 248.249 9.30726Z" fill="white"/>
<path d="M114.929 78.1585C111.489 78.1585 108.689 79.1185 106.529 81.0385C104.369 82.8785 103.289 85.5585 103.289 89.0785C103.289 92.5185 104.249 95.1985 106.169 97.1185C108.009 99.0385 110.609 99.9985 113.969 99.9985C117.249 99.9985 120.489 98.5985 123.689 95.7985C124.089 97.2385 124.289 98.5985 124.289 99.8785C124.289 103.478 123.209 106.318 121.049 108.398C118.889 110.478 116.249 111.518 113.129 111.518C107.769 111.518 103.369 109.478 99.9294 105.398C96.4095 101.238 94.6495 95.6385 94.6495 88.5985C94.6495 81.5585 96.6495 76.0785 100.649 72.1585C104.569 68.1585 109.289 66.1585 114.809 66.1585C118.969 66.1585 122.929 67.4785 126.689 70.1185C130.369 72.7585 133.449 76.7985 135.929 82.2385C136.729 77.1985 139.169 73.0785 143.249 69.8785C147.249 66.6785 151.969 65.0785 157.409 65.0785C164.689 65.0785 171.049 67.7585 176.489 73.1185C181.929 78.4785 184.649 85.9985 184.649 95.6785C184.649 103.438 182.769 109.478 179.009 113.798C175.249 118.118 170.889 120.278 165.929 120.278C162.089 120.278 158.809 119.078 156.089 116.678C153.289 114.198 151.889 110.798 151.889 106.478C151.889 105.118 152.169 103.598 152.729 101.918C153.929 103.598 155.649 104.958 157.889 105.998C160.129 107.038 162.329 107.558 164.489 107.558C172.249 107.558 176.129 103.318 176.129 94.8385C176.129 90.4385 174.609 86.6385 171.569 83.4385C168.449 80.2385 164.449 78.6385 159.569 78.6385C154.689 78.6385 150.449 80.1585 146.849 83.1985C143.169 86.1585 140.889 90.2385 140.009 95.4385C140.249 96.7185 140.529 98.4385 140.849 100.598L136.769 101.198C135.569 93.8385 132.809 88.1585 128.489 84.1585C124.169 80.1585 119.649 78.1585 114.929 78.1585Z" fill="#E7C200"/>
</svg>
