<svg width="275" height="178" viewBox="0 0 275 178" fill="none" xmlns="http://www.w3.org/2000/svg">
<rect x="1.28027" y="177.5" width="177" height="272" transform="rotate(-90 1.28027 177.5)" fill="#EF4343"/>
<path d="M38.2245 18.2796C43.4566 10.8075 50.3009 4.88443 58.3521 0.501389H147.641C161.085 5.53625 174.59 12.5916 187.532 21.6533C243.739 61.0098 268.021 123.309 241.768 160.802C236.964 167.664 230.8 173.219 223.59 177.475L129.544 177.5C117.031 172.554 104.501 165.86 92.4608 157.429C36.2538 118.072 11.9714 55.773 38.2245 18.2796Z" fill="white"/>
<path d="M27.0895 171.163C26.9295 171.163 26.8095 171.133 26.7295 171.073C19.7095 166.673 14.4595 164.103 10.9795 163.363C11.0195 163.223 11.1595 162.983 11.3995 162.643C11.6395 162.283 11.8695 161.993 12.0895 161.773C12.6295 161.233 13.2695 160.963 14.0095 160.963C14.7495 160.963 15.7595 161.333 17.0395 162.073C18.2995 162.793 19.9195 163.823 21.8995 165.163C23.8795 166.483 25.5095 167.503 26.7895 168.223C26.7695 166.643 26.6495 164.313 26.4295 161.233C24.5695 160.973 23.2195 160.843 22.3795 160.843C21.5195 160.843 20.7495 160.863 20.0695 160.903C20.0295 160.583 20.0095 160.313 20.0095 160.093C20.0095 159.373 20.2295 158.833 20.6695 158.473C21.1095 158.113 21.7195 157.933 22.4995 157.933C23.2595 157.933 24.4795 158.063 26.1595 158.323L25.9495 156.463C26.4495 156.323 26.9795 156.253 27.5395 156.253C28.7395 156.253 29.3395 157.013 29.3395 158.533V158.713C30.0795 158.773 31.0295 158.803 32.1895 158.803C33.3295 158.803 34.1795 158.743 34.7395 158.623C34.7795 159.023 34.7995 159.343 34.7995 159.583C34.7995 160.483 34.5395 161.153 34.0195 161.593C33.5195 162.033 32.8795 162.253 32.0995 162.253C31.8195 162.253 30.8795 162.093 29.2795 161.773L28.9495 170.413C28.6295 170.913 28.0095 171.163 27.0895 171.163Z" fill="white"/>
<path d="M258.089 20.1628C257.929 20.1628 257.809 20.1328 257.729 20.0728C250.709 15.6728 245.459 13.1028 241.979 12.3628C242.019 12.2228 242.159 11.9828 242.399 11.6428C242.639 11.2828 242.869 10.9928 243.089 10.7728C243.629 10.2328 244.269 9.96279 245.009 9.96279C245.749 9.96279 246.759 10.3328 248.039 11.0728C249.299 11.7928 250.919 12.8228 252.899 14.1628C254.879 15.4828 256.509 16.5028 257.789 17.2228C257.769 15.6428 257.649 13.3128 257.429 10.2328C255.569 9.97279 254.219 9.84279 253.379 9.84279C252.519 9.84279 251.749 9.86279 251.069 9.90279C251.029 9.58279 251.009 9.31279 251.009 9.09279C251.009 8.37279 251.229 7.83279 251.669 7.47279C252.109 7.11279 252.719 6.93279 253.499 6.93279C254.259 6.93279 255.479 7.06279 257.159 7.32279L256.949 5.46279C257.449 5.32279 257.979 5.25279 258.539 5.25279C259.739 5.25279 260.339 6.01279 260.339 7.53279V7.71279C261.079 7.77279 262.029 7.80279 263.189 7.80279C264.329 7.80279 265.179 7.74279 265.739 7.62279C265.779 8.02279 265.799 8.34279 265.799 8.58279C265.799 9.48279 265.539 10.1528 265.019 10.5928C264.519 11.0328 263.879 11.2528 263.099 11.2528C262.819 11.2528 261.879 11.0928 260.279 10.7728L259.949 19.4128C259.629 19.9128 259.009 20.1628 258.089 20.1628Z" fill="white"/>
<path d="M154.289 121.581C153.649 121.581 153.169 121.461 152.849 121.221C124.769 103.621 103.769 93.3413 89.8494 90.3813C90.0094 89.8213 90.5694 88.8613 91.5294 87.5013C92.4895 86.0613 93.4095 84.9013 94.2894 84.0213C96.4495 81.8613 99.0095 80.7813 101.969 80.7813C104.929 80.7813 108.969 82.2613 114.089 85.2213C119.129 88.1013 125.609 92.2213 133.529 97.5813C141.449 102.861 147.969 106.941 153.089 109.821C153.009 103.501 152.529 94.1813 151.649 81.8613C144.209 80.8213 138.809 80.3013 135.449 80.3013C132.009 80.3013 128.929 80.3813 126.209 80.5413C126.049 79.2613 125.969 78.1813 125.969 77.3013C125.969 74.4213 126.849 72.2613 128.609 70.8213C130.369 69.3813 132.809 68.6613 135.929 68.6613C138.969 68.6613 143.849 69.1813 150.569 70.2213L149.729 62.7813C151.729 62.2213 153.849 61.9413 156.089 61.9413C160.889 61.9413 163.289 64.9813 163.289 71.0613V71.7813C166.249 72.0213 170.049 72.1413 174.689 72.1413C179.249 72.1413 182.649 71.9013 184.889 71.4213C185.049 73.0213 185.129 74.3013 185.129 75.2613C185.129 78.8613 184.089 81.5413 182.009 83.3013C180.009 85.0613 177.449 85.9413 174.329 85.9413C173.209 85.9413 169.449 85.3013 163.049 84.0213L161.729 118.581C160.449 120.581 157.969 121.581 154.289 121.581Z" fill="#EF4343"/>
</svg>
