<svg width="275" height="178" viewBox="0 0 275 178" fill="none" xmlns="http://www.w3.org/2000/svg">
<rect x="1.28027" y="177.5" width="177" height="272" transform="rotate(-90 1.28027 177.5)" fill="#EF4343"/>
<path d="M38.2245 18.2796C43.4566 10.8075 50.3009 4.88443 58.3521 0.501389H147.641C161.085 5.53625 174.59 12.5916 187.532 21.6533C243.739 61.0098 268.021 123.309 241.768 160.802C236.964 167.664 230.8 173.219 223.59 177.475L129.544 177.5C117.031 172.554 104.501 165.86 92.4608 157.429C36.2538 118.072 11.9714 55.773 38.2245 18.2796Z" fill="white"/>
<path d="M34.6795 164.247C34.6795 166.387 34.1795 168.027 33.1795 169.167C32.1795 170.287 31.0295 170.847 29.7295 170.847C28.4095 170.847 27.2195 170.397 26.1595 169.497C25.0795 168.597 24.2295 167.347 23.6095 165.747C21.7095 167.947 19.7695 169.047 17.7895 169.047C16.0695 169.047 14.6995 168.417 13.6795 167.157C12.6395 165.877 12.1195 164.247 12.1195 162.267C12.1195 160.267 12.5495 158.817 13.4095 157.917C14.2695 156.997 15.3595 156.537 16.6795 156.537C17.9795 156.537 19.1895 156.947 20.3095 157.767C21.4295 158.567 22.2995 159.677 22.9195 161.097C23.8995 159.817 24.8595 158.827 25.7995 158.127C26.7395 157.407 27.8295 157.047 29.0695 157.047C30.7095 157.047 32.0595 157.707 33.1195 159.027C34.1595 160.347 34.6795 162.087 34.6795 164.247ZM29.2495 160.407C28.8495 160.407 28.5195 160.487 28.2595 160.647C27.9995 160.787 27.7995 160.907 27.6595 161.007C27.4995 161.087 27.3195 161.237 27.1195 161.457C26.9195 161.657 26.7595 161.817 26.6395 161.937C26.5195 162.037 26.3495 162.227 26.1295 162.507C25.9095 162.787 25.7495 162.997 25.6495 163.137C25.5495 163.257 25.3795 163.487 25.1395 163.827C24.8795 164.147 24.6995 164.367 24.5995 164.487C26.2995 166.587 27.9095 167.637 29.4295 167.637C30.4295 167.637 31.2495 167.357 31.8895 166.797C32.5095 166.237 32.8195 165.457 32.8195 164.457C32.8195 163.457 32.4995 162.537 31.8595 161.697C31.2195 160.837 30.3495 160.407 29.2495 160.407ZM14.0095 162.297C14.0095 163.277 14.3295 164.097 14.9695 164.757C15.5895 165.397 16.3595 165.717 17.2795 165.717C18.1995 165.717 18.9995 165.437 19.6795 164.877C20.3395 164.317 21.0895 163.487 21.9295 162.387C20.3295 160.387 18.6795 159.387 16.9795 159.387C16.1395 159.387 15.4395 159.627 14.8795 160.107C14.2995 160.587 14.0095 161.317 14.0095 162.297Z" fill="white"/>
<path d="M265.679 13.2472C265.679 15.3872 265.179 17.0272 264.179 18.1672C263.179 19.2872 262.029 19.8472 260.729 19.8472C259.409 19.8472 258.219 19.3972 257.159 18.4972C256.079 17.5972 255.229 16.3472 254.609 14.7472C252.709 16.9472 250.769 18.0472 248.789 18.0472C247.069 18.0472 245.699 17.4172 244.679 16.1572C243.639 14.8772 243.119 13.2472 243.119 11.2672C243.119 9.26717 243.549 7.81717 244.409 6.91717C245.269 5.99717 246.359 5.53717 247.679 5.53717C248.979 5.53717 250.189 5.94717 251.309 6.76717C252.429 7.56717 253.299 8.67717 253.919 10.0972C254.899 8.81717 255.859 7.82717 256.799 7.12717C257.739 6.40717 258.829 6.04717 260.069 6.04717C261.709 6.04717 263.059 6.70717 264.119 8.02717C265.159 9.34717 265.679 11.0872 265.679 13.2472ZM260.249 9.40717C259.849 9.40717 259.519 9.48717 259.259 9.64717C258.999 9.78717 258.799 9.90717 258.659 10.0072C258.499 10.0872 258.319 10.2372 258.119 10.4572C257.919 10.6572 257.759 10.8172 257.639 10.9372C257.519 11.0372 257.349 11.2272 257.129 11.5072C256.909 11.7872 256.749 11.9972 256.649 12.1372C256.549 12.2572 256.379 12.4872 256.139 12.8272C255.879 13.1472 255.699 13.3672 255.599 13.4872C257.299 15.5872 258.909 16.6372 260.429 16.6372C261.429 16.6372 262.249 16.3572 262.889 15.7972C263.509 15.2372 263.819 14.4572 263.819 13.4572C263.819 12.4572 263.499 11.5372 262.859 10.6972C262.219 9.83717 261.349 9.40717 260.249 9.40717ZM245.009 11.2972C245.009 12.2772 245.329 13.0972 245.969 13.7572C246.589 14.3972 247.359 14.7172 248.279 14.7172C249.199 14.7172 249.999 14.4372 250.679 13.8772C251.339 13.3172 252.089 12.4872 252.929 11.3872C251.329 9.38717 249.679 8.38717 247.979 8.38717C247.139 8.38717 246.439 8.62717 245.879 9.10717C245.299 9.58717 245.009 10.3172 245.009 11.2972Z" fill="white"/>
<path d="M184.649 91.9188C184.649 100.479 182.649 107.039 178.649 111.599C174.649 116.079 170.049 118.319 164.849 118.319C159.569 118.319 154.809 116.519 150.569 112.919C146.249 109.319 142.849 104.319 140.369 97.9188C132.769 106.719 125.009 111.119 117.089 111.119C110.209 111.119 104.729 108.599 100.649 103.559C96.4894 98.4388 94.4094 91.9188 94.4094 83.9988C94.4094 75.9988 96.1294 70.1988 99.5694 66.5988C103.009 62.9188 107.369 61.0788 112.649 61.0788C117.849 61.0788 122.689 62.7188 127.169 65.9988C131.649 69.1988 135.129 73.6388 137.609 79.3188C141.529 74.1988 145.369 70.2388 149.129 67.4388C152.889 64.5588 157.249 63.1188 162.209 63.1188C168.769 63.1188 174.169 65.7588 178.409 71.0388C182.569 76.3188 184.649 83.2788 184.649 91.9188ZM162.929 76.5588C161.329 76.5588 160.009 76.8788 158.969 77.5188C157.929 78.0788 157.129 78.5588 156.569 78.9588C155.929 79.2788 155.209 79.8788 154.409 80.7588C153.609 81.5588 152.969 82.1988 152.489 82.6788C152.009 83.0788 151.329 83.8388 150.449 84.9588C149.569 86.0788 148.929 86.9188 148.529 87.4788C148.129 87.9588 147.449 88.8788 146.489 90.2388C145.449 91.5188 144.729 92.3988 144.329 92.8788C151.129 101.279 157.569 105.479 163.649 105.479C167.649 105.479 170.929 104.359 173.489 102.119C175.969 99.8788 177.209 96.7588 177.209 92.7588C177.209 88.7588 175.929 85.0788 173.369 81.7188C170.809 78.2788 167.329 76.5588 162.929 76.5588ZM101.969 84.1188C101.969 88.0388 103.249 91.3188 105.809 93.9588C108.289 96.5188 111.369 97.7988 115.049 97.7988C118.729 97.7988 121.929 96.6788 124.649 94.4388C127.289 92.1988 130.289 88.8788 133.649 84.4788C127.249 76.4788 120.649 72.4788 113.849 72.4788C110.489 72.4788 107.689 73.4388 105.449 75.3588C103.129 77.2788 101.969 80.1988 101.969 84.1188Z" fill="#EF4343"/>
</svg>
