<svg width="273" height="178" viewBox="0 0 273 178" fill="none" xmlns="http://www.w3.org/2000/svg">
<rect x="0.29541" y="177.704" width="177" height="272" transform="rotate(-90 0.29541 177.704)" fill="#2E2E2E"/>
<path d="M37.2401 18.4845C42.4722 11.0123 49.3166 5.08927 57.3677 0.706223H146.656C160.1 5.74109 173.606 12.7964 186.547 21.8581C242.754 61.2147 267.037 123.514 240.784 161.007C235.979 167.869 229.815 173.424 222.606 177.68L128.56 177.705C116.046 172.759 103.517 166.065 91.4764 157.634C35.2694 118.277 10.987 55.9778 37.2401 18.4845Z" fill="white"/>
<path d="M21.1177 165.997V159.962H23.1392V165.997H29.3794V168.033H23.1392V174.039H21.1177V168.033H14.8481V165.997H21.1177ZM27.7827 141.842V145.021H32.7046V147.35H27.7827V157.765H25.6587L11.1714 147.599V145.021H25.5708V141.842H27.7827ZM25.5708 147.35H18.4517C17.0552 147.35 15.478 147.301 13.7202 147.203V147.321C14.6577 147.789 15.4341 148.229 16.0493 148.639L25.5708 155.333V147.35Z" fill="white"/>
<path d="M252.118 28.9973V22.9622H254.139V28.9973H260.379V31.0334H254.139V37.0393H252.118V31.0334H245.848V28.9973H252.118ZM258.783 4.84204V8.02075L263.705 8.02075V10.3499L258.783 10.3499V20.7649H256.659L242.171 10.5989V8.02075H256.571V4.84204H258.783ZM256.571 10.3499H249.452C248.055 10.3499 246.478 10.301 244.72 10.2034V10.3206C245.658 10.7893 246.434 11.2288 247.049 11.6389L256.571 18.3333V10.3499Z" fill="white"/>
<rect x="112.205" y="164.395" width="51" height="80" rx="9.5" transform="rotate(-90 112.205 164.395)" fill="#00B453" stroke="white"/>
<rect x="80.2046" y="131.395" width="51" height="80" rx="9.5" transform="rotate(-90 80.2046 131.395)" fill="#004FC5" stroke="white"/>
<rect x="112.205" y="98.3948" width="51" height="80" rx="9.5" transform="rotate(-90 112.205 98.3948)" fill="#EF4343" stroke="white"/>
<rect x="80.2046" y="65.3948" width="51" height="80" rx="9.5" transform="rotate(-90 80.2046 65.3948)" fill="#E7C200" stroke="white"/>
</svg>
