<svg width="273" height="178" viewBox="0 0 273 178" fill="none" xmlns="http://www.w3.org/2000/svg">
<rect x="0.485352" y="177.295" width="177" height="272" transform="rotate(-90 0.485352 177.295)" fill="#004FC5"/>
<path d="M37.4305 18.0755C42.6626 10.6034 49.507 4.68033 57.5581 0.297287H146.847C160.291 5.33215 173.796 12.3875 186.738 21.4492C242.945 60.8057 267.227 123.105 240.974 160.598C236.17 167.46 230.006 173.015 222.796 177.271L128.75 177.296C116.237 172.35 103.708 165.656 91.6668 157.225C35.4598 117.868 11.1774 55.5689 37.4305 18.0755Z" fill="white"/>
<path d="M21.3076 165.588V159.553H23.3291V165.588H29.5693V167.625H23.3291V173.63H21.3076V167.625H15.0381V165.588H21.3076ZM32.8945 142.444V156.521H30.7998L25.1309 150.881C23.3926 149.163 22.1523 148.03 21.4102 147.483C20.668 146.936 19.9453 146.526 19.2422 146.252C18.5391 145.979 17.7822 145.842 16.9717 145.842C15.8291 145.842 14.9258 146.189 14.2617 146.882C13.5879 147.576 13.251 148.538 13.251 149.768C13.251 150.657 13.3975 151.501 13.6904 152.302C13.9834 153.093 14.5156 153.977 15.2871 154.954L13.6318 156.243C11.9912 154.27 11.1709 152.122 11.1709 149.797C11.1709 147.786 11.6885 146.208 12.7236 145.066C13.749 143.923 15.1309 143.352 16.8691 143.352C18.2266 143.352 19.5693 143.733 20.8975 144.495C22.2256 145.256 23.9053 146.682 25.9365 148.772L30.5215 153.459H30.6387L30.6387 142.444H32.8945Z" fill="white"/>
<path d="M252.308 28.5884V22.5532H254.329V28.5884H260.569V30.6245H254.329V36.6304H252.308V30.6245H246.038V28.5884H252.308ZM263.895 5.44385V19.521H261.8L256.131 13.8813C254.393 12.1626 253.152 11.0298 252.41 10.4829C251.668 9.93604 250.945 9.52588 250.242 9.25244C249.539 8.979 248.782 8.84229 247.972 8.84229C246.829 8.84229 245.926 9.18896 245.262 9.88232C244.588 10.5757 244.251 11.5376 244.251 12.7681C244.251 13.6567 244.397 14.5015 244.69 15.3022C244.983 16.0933 245.516 16.9771 246.287 17.9536L244.632 19.2427C242.991 17.27 242.171 15.1216 242.171 12.7974C242.171 10.7856 242.688 9.2085 243.724 8.06592C244.749 6.92334 246.131 6.35205 247.869 6.35205C249.227 6.35205 250.569 6.73291 251.897 7.49463C253.226 8.25635 254.905 9.68213 256.937 11.772L261.521 16.4595H261.639V5.44385H263.895Z" fill="white"/>
<rect x="105.395" y="136.986" width="66" height="104" rx="9.5" transform="rotate(-90 105.395 136.986)" fill="#004FC5" stroke="#111111"/>
<rect x="64.3945" y="93.9858" width="66" height="104" rx="9.5" transform="rotate(-90 64.3945 93.9858)" fill="#004FC5" stroke="#111111"/>
</svg>
