<svg width="275" height="178" viewBox="0 0 275 178" fill="none" xmlns="http://www.w3.org/2000/svg">
<rect x="1.28027" y="177.5" width="177" height="272" transform="rotate(-90 1.28027 177.5)" fill="#004FC5"/>
<path d="M38.2245 18.2796C43.4566 10.8075 50.3009 4.88443 58.3521 0.501389H147.641C161.085 5.53625 174.59 12.5916 187.532 21.6533C243.739 61.0098 268.021 123.309 241.768 160.802C236.964 167.664 230.8 173.219 223.59 177.475L129.544 177.5C117.031 172.554 104.501 165.86 92.4608 157.429C36.2538 118.072 11.9714 55.773 38.2245 18.2796Z" fill="white"/>
<path d="M14.0695 156.252C15.3695 156.252 16.0195 156.772 16.0195 157.812C16.0195 159.152 15.7195 161.552 15.1195 165.012L21.0895 165.942C20.9895 165.362 20.9395 164.702 20.9395 163.962C20.9395 161.662 21.5495 159.832 22.7695 158.472C23.9895 157.112 25.5595 156.432 27.4795 156.432C29.3795 156.432 31.0595 157.132 32.5195 158.532C33.9595 159.932 34.6795 161.792 34.6795 164.112C34.6795 165.812 34.2795 167.242 33.4795 168.402C32.6595 169.562 31.5395 170.142 30.1195 170.142C29.1195 170.142 28.2895 169.852 27.6295 169.272C26.9495 168.672 26.6095 167.902 26.6095 166.962C26.6095 166.482 26.6395 166.092 26.6995 165.792C27.5595 166.572 28.4795 166.962 29.4595 166.962C30.4195 166.962 31.1795 166.702 31.7395 166.182C32.2795 165.662 32.5495 164.872 32.5495 163.812C32.5495 162.732 32.1395 161.802 31.3195 161.022C30.4795 160.222 29.3495 159.822 27.9295 159.822C26.4895 159.822 25.2595 160.302 24.2395 161.262C23.2195 162.202 22.7095 163.622 22.7095 165.522C22.7095 166.482 22.8395 167.532 23.0995 168.672L14.5495 167.202C14.1895 167.762 13.5695 168.082 12.6895 168.162C12.8295 167.102 12.8995 165.862 12.8995 164.442C12.8995 161.682 12.7895 159.382 12.5695 157.542L12.4495 156.522C12.8095 156.342 13.3495 156.252 14.0695 156.252Z" fill="white"/>
<path d="M245.069 5.25209C246.369 5.25209 247.019 5.77209 247.019 6.81209C247.019 8.15209 246.719 10.5521 246.119 14.0121L252.089 14.9421C251.989 14.3621 251.939 13.7021 251.939 12.9621C251.939 10.6621 252.549 8.83209 253.769 7.47209C254.989 6.11209 256.559 5.43209 258.479 5.43209C260.379 5.43209 262.059 6.13209 263.519 7.53209C264.959 8.93209 265.679 10.7921 265.679 13.1121C265.679 14.8121 265.279 16.2421 264.479 17.4021C263.659 18.5621 262.539 19.1421 261.119 19.1421C260.119 19.1421 259.289 18.8521 258.629 18.2721C257.949 17.6721 257.609 16.9021 257.609 15.9621C257.609 15.4821 257.639 15.0921 257.699 14.7921C258.559 15.5721 259.479 15.9621 260.459 15.9621C261.419 15.9621 262.179 15.7021 262.739 15.1821C263.279 14.6621 263.549 13.8721 263.549 12.8121C263.549 11.7321 263.139 10.8021 262.319 10.0221C261.479 9.22209 260.349 8.82209 258.929 8.82209C257.489 8.82209 256.259 9.30209 255.239 10.2621C254.219 11.2021 253.709 12.6221 253.709 14.5221C253.709 15.4821 253.839 16.5321 254.099 17.6721L245.549 16.2021C245.189 16.7621 244.569 17.0821 243.689 17.1621C243.829 16.1021 243.899 14.8621 243.899 13.4421C243.899 10.6821 243.789 8.38209 243.569 6.54209L243.449 5.52209C243.809 5.34209 244.349 5.25209 245.069 5.25209Z" fill="white"/>
<path d="M102.209 61.9385C107.409 61.9385 110.009 64.0185 110.009 68.1785C110.009 73.5385 108.809 83.1385 106.409 96.9785L130.289 100.699C129.889 98.3785 129.689 95.7385 129.689 92.7785C129.689 83.5785 132.129 76.2585 137.009 70.8185C141.889 65.3785 148.169 62.6585 155.849 62.6585C163.449 62.6585 170.169 65.4585 176.009 71.0585C181.769 76.6585 184.649 84.0985 184.649 93.3785C184.649 100.179 183.049 105.899 179.849 110.539C176.569 115.179 172.089 117.499 166.409 117.499C162.409 117.499 159.089 116.339 156.449 114.019C153.729 111.619 152.369 108.539 152.369 104.779C152.369 102.859 152.489 101.299 152.729 100.099C156.169 103.219 159.849 104.779 163.769 104.779C167.609 104.779 170.649 103.739 172.889 101.659C175.049 99.5785 176.129 96.4185 176.129 92.1785C176.129 87.8585 174.489 84.1385 171.209 81.0185C167.849 77.8185 163.329 76.2185 157.649 76.2185C151.889 76.2185 146.969 78.1385 142.889 81.9785C138.809 85.7385 136.769 91.4185 136.769 99.0185C136.769 102.859 137.289 107.059 138.329 111.619L104.129 105.739C102.689 107.979 100.209 109.259 96.6894 109.579C97.2494 105.339 97.5295 100.379 97.5295 94.6985C97.5295 83.6585 97.0894 74.4585 96.2094 67.0985L95.7295 63.0185C97.1694 62.2985 99.3294 61.9385 102.209 61.9385Z" fill="#004FC5"/>
</svg>
