<svg width="275" height="178" viewBox="0 0 275 178" fill="none" xmlns="http://www.w3.org/2000/svg">
<rect x="1.28027" y="177.5" width="177" height="272" transform="rotate(-90 1.28027 177.5)" fill="#EF4343"/>
<path d="M38.2245 18.2799C43.4566 10.8077 50.3009 4.88468 58.3521 0.501633H147.641C161.085 5.5365 174.59 12.5918 187.532 21.6535C243.739 61.0101 268.021 123.309 241.768 160.803C236.964 167.664 230.8 173.219 223.59 177.475L129.544 177.5C117.031 172.554 104.501 165.86 92.4608 157.429C36.2538 118.072 11.9714 55.7732 38.2245 18.2799Z" fill="white"/>
<path d="M31.0495 166.439L31.0795 165.029C29.9795 164.949 27.7795 164.709 24.4795 164.309C21.1795 163.889 18.6695 163.599 16.9495 163.439C18.2495 165.599 18.8995 166.939 18.8995 167.459C18.8995 167.959 18.5195 168.389 17.7595 168.749C16.9795 169.089 16.3195 169.259 15.7795 169.259C15.5795 168.279 15.1895 166.879 14.6095 165.059C14.0095 163.239 13.3495 161.579 12.6295 160.079C13.7095 160.079 16.4095 160.339 20.7295 160.859C25.0495 161.379 28.5295 161.699 31.1695 161.819C31.1295 159.959 30.8695 158.429 30.3895 157.229C31.7895 157.309 32.7895 157.559 33.3895 157.979C33.9695 158.399 34.2595 159.149 34.2595 160.229C34.2595 160.609 34.1695 161.439 33.9895 162.719C33.8095 163.999 33.7195 165.319 33.7195 166.679C33.7195 168.019 33.9195 169.279 34.3195 170.459C34.0395 170.459 33.6895 170.369 33.2695 170.189C32.8295 170.009 32.4695 169.789 32.1895 169.529C31.8895 169.269 31.6295 168.869 31.4095 168.329C31.1695 167.789 31.0495 167.159 31.0495 166.439Z" fill="white"/>
<path d="M262.049 15.4389L262.079 14.0289C260.979 13.9489 258.779 13.7089 255.479 13.3089C252.179 12.8889 249.669 12.5989 247.949 12.4389C249.249 14.5989 249.899 15.9389 249.899 16.4589C249.899 16.9589 249.519 17.3889 248.759 17.7489C247.979 18.0889 247.319 18.2589 246.779 18.2589C246.579 17.2789 246.189 15.8789 245.609 14.0589C245.009 12.2389 244.349 10.5789 243.629 9.07894C244.709 9.07894 247.409 9.33894 251.729 9.85894C256.049 10.3789 259.529 10.6989 262.169 10.8189C262.129 8.95893 261.869 7.42893 261.389 6.22893C262.789 6.30893 263.789 6.55893 264.389 6.97893C264.969 7.39893 265.259 8.14893 265.259 9.22894C265.259 9.60894 265.169 10.4389 264.989 11.7189C264.809 12.9989 264.719 14.3189 264.719 15.6789C264.719 17.0189 264.919 18.2789 265.319 19.4589C265.039 19.4589 264.689 19.3689 264.269 19.1889C263.829 19.0089 263.469 18.7889 263.189 18.5289C262.889 18.2689 262.629 17.8689 262.409 17.3289C262.169 16.7889 262.049 16.1589 262.049 15.4389Z" fill="white"/>
<path d="M170.129 100.685L170.249 95.0452C165.849 94.7252 157.049 93.7652 143.849 92.1652C130.649 90.4852 120.609 89.3252 113.729 88.6852C118.929 97.3252 121.529 102.685 121.529 104.765C121.529 106.765 120.009 108.485 116.969 109.925C113.849 111.285 111.209 111.965 109.049 111.965C108.249 108.045 106.689 102.445 104.369 95.1652C101.969 87.8852 99.3295 81.2452 96.4495 75.2452C100.769 75.2452 111.569 76.2852 128.849 78.3652C146.129 80.4452 160.049 81.7252 170.609 82.2052C170.449 74.7652 169.409 68.6452 167.489 63.8452C173.089 64.1652 177.089 65.1652 179.489 66.8452C181.809 68.5252 182.969 71.5252 182.969 75.8452C182.969 77.3652 182.609 80.6852 181.889 85.8052C181.169 90.9252 180.809 96.2052 180.809 101.645C180.809 107.005 181.609 112.045 183.209 116.765C182.089 116.765 180.689 116.405 179.009 115.685C177.249 114.965 175.809 114.085 174.689 113.045C173.489 112.005 172.449 110.405 171.569 108.245C170.609 106.085 170.129 103.565 170.129 100.685Z" fill="#EF4343"/>
</svg>
