<svg width="275" height="178" viewBox="0 0 275 178" fill="none" xmlns="http://www.w3.org/2000/svg">
<rect x="1.28027" y="177.5" width="177" height="272" transform="rotate(-90 1.28027 177.5)" fill="#E7C200"/>
<path d="M38.2245 18.2799C43.4566 10.8077 50.3009 4.88468 58.3521 0.501633H147.641C161.085 5.5365 174.59 12.5918 187.532 21.6535C243.739 61.0101 268.021 123.309 241.768 160.803C236.964 167.664 230.8 173.219 223.59 177.475L129.544 177.5C117.031 172.554 104.501 165.86 92.4608 157.429C36.2538 118.072 11.9714 55.7732 38.2245 18.2799Z" fill="white"/>
<path d="M14.7295 162.544C14.7295 164.124 15.7795 165.504 17.8795 166.684C19.9595 167.844 22.1695 168.424 24.5095 168.424C26.8295 168.424 28.7095 168.074 30.1495 167.374C31.5895 166.674 32.3095 165.654 32.3095 164.314C32.3095 163.214 31.8095 162.254 30.8095 161.434C28.8495 159.834 26.0095 159.034 22.2895 159.034C19.6695 159.034 17.7595 159.364 16.5595 160.024C15.3395 160.684 14.7295 161.524 14.7295 162.544ZM12.8995 160.834C12.8995 159.234 13.6395 158.004 15.1195 157.144C16.5995 156.264 18.4995 155.824 20.8195 155.824C24.2195 155.824 27.2495 156.544 29.9095 157.984C31.2495 158.684 32.3295 159.644 33.1495 160.864C33.9695 162.064 34.3795 163.494 34.3795 165.154C34.3795 166.814 33.5495 168.294 31.8895 169.594C30.2295 170.894 27.8495 171.544 24.7495 171.544C21.6295 171.544 18.9495 170.914 16.7095 169.654C14.4495 168.374 13.0095 166.684 12.3895 164.584C12.3895 164.104 12.8095 163.844 13.6495 163.804C13.1495 162.724 12.8995 161.734 12.8995 160.834Z" fill="white"/>
<path d="M245.729 11.5435C245.729 13.1235 246.779 14.5035 248.879 15.6835C250.959 16.8435 253.169 17.4235 255.509 17.4235C257.829 17.4235 259.709 17.0735 261.149 16.3735C262.589 15.6735 263.309 14.6535 263.309 13.3135C263.309 12.2135 262.809 11.2535 261.809 10.4335C259.849 8.83351 257.009 8.03351 253.289 8.03351C250.669 8.03351 248.759 8.3635 247.559 9.0235C246.339 9.68351 245.729 10.5235 245.729 11.5435ZM243.899 9.83351C243.899 8.23351 244.639 7.00351 246.119 6.14351C247.599 5.2635 249.499 4.8235 251.819 4.8235C255.219 4.8235 258.249 5.5435 260.909 6.98351C262.249 7.68351 263.329 8.64351 264.149 9.86351C264.969 11.0635 265.379 12.4935 265.379 14.1535C265.379 15.8135 264.549 17.2935 262.889 18.5935C261.229 19.8935 258.849 20.5435 255.749 20.5435C252.629 20.5435 249.949 19.9135 247.709 18.6535C245.449 17.3735 244.009 15.6835 243.389 13.5835C243.389 13.1035 243.809 12.8435 244.649 12.8035C244.149 11.7235 243.899 10.7335 243.899 9.83351Z" fill="white"/>
<path d="M104.849 85.1035C104.849 91.4235 109.049 96.9435 117.449 101.663C125.769 106.303 134.609 108.623 143.969 108.623C153.249 108.623 160.769 107.223 166.529 104.423C172.289 101.623 175.169 97.5435 175.169 92.1835C175.169 87.7835 173.169 83.9435 169.169 80.6635C161.329 74.2635 149.969 71.0635 135.089 71.0635C124.609 71.0635 116.969 72.3835 112.169 75.0235C107.289 77.6635 104.849 81.0235 104.849 85.1035ZM97.5295 78.2635C97.5295 71.8635 100.489 66.9435 106.409 63.5035C112.329 59.9835 119.929 58.2235 129.209 58.2235C142.809 58.2235 154.929 61.1035 165.569 66.8635C170.929 69.6635 175.249 73.5035 178.529 78.3835C181.809 83.1835 183.449 88.9035 183.449 95.5435C183.449 102.183 180.129 108.103 173.489 113.303C166.849 118.503 157.329 121.103 144.929 121.103C132.449 121.103 121.729 118.583 112.769 113.543C103.729 108.423 97.9694 101.663 95.4894 93.2635C95.4894 91.3435 97.1694 90.3035 100.529 90.1435C98.5294 85.8235 97.5295 81.8635 97.5295 78.2635Z" fill="#E7C200"/>
</svg>
