<svg width="273" height="178" viewBox="0 0 273 178" fill="none" xmlns="http://www.w3.org/2000/svg">
<rect x="0.766113" y="177.766" width="177" height="272" transform="rotate(-90 0.766113 177.766)" fill="#2E2E2E"/>
<path d="M37.7108 18.5458C42.9429 11.0736 49.7873 5.15055 57.8384 0.767502H147.127C160.571 5.80236 174.077 12.8577 187.018 21.9194C243.225 61.276 267.507 123.575 241.254 161.068C236.45 167.93 230.286 173.485 223.076 177.741L129.03 177.766C116.517 172.82 103.988 166.126 91.9471 157.695C35.7401 118.338 11.4577 56.0391 37.7108 18.5458Z" fill="white"/>
<path d="M187.078 21.9803C173.777 12.6641 159.897 5.41055 146.08 0.234261L137.767 85.7597L248.336 98.6108C238.952 71.3095 217.592 43.3541 187.078 21.9803Z" fill="#EF4343"/>
<path d="M223.239 177.697C230.54 173.441 236.781 167.886 241.646 161.024C254.188 143.336 255.34 120.128 247.083 96.4117L138.141 83.9117L128.008 177.722L223.239 177.697Z" fill="#004FC5"/>
<path d="M91.4558 157.545C103.497 165.976 116.034 172.658 128.563 177.582L138.978 83.1906L28.7471 71.0628C35.1049 101.296 57.3798 133.685 91.4558 157.545Z" fill="#E7C200"/>
<path d="M57.4682 1.06104C49.3661 5.51691 42.4672 11.5178 37.1784 19.0709C26.7295 33.9935 24.1236 52.7498 28.2354 72.4098L138.032 84.4436L148.488 1.13906C148.017 0.959106 147.546 0.781651 147.075 0.606674L57.4682 1.06104Z" fill="#00B453"/>
<path d="M32.1988 147.159C30.1807 145.746 28.0747 144.645 25.9782 143.86L24.7168 156.836L41.4935 158.786C40.0696 154.644 36.8288 150.402 32.1988 147.159Z" fill="#EF4343"/>
<path d="M37.6858 170.786C38.7935 170.14 39.7406 169.297 40.4788 168.256C42.3817 165.572 42.5565 162.051 41.3036 158.452L24.7739 156.555L23.2363 170.789L37.6858 170.786Z" fill="#004FC5"/>
<path d="M17.6901 167.728C19.5171 169.007 21.4194 170.021 23.3204 170.768L24.9006 156.446L8.17529 154.606C9.13998 159.193 12.5197 164.108 17.6901 167.728Z" fill="#E7C200"/>
<path d="M12.5331 143.985C11.3038 144.661 10.257 145.571 9.45453 146.717C7.86912 148.982 7.47372 151.828 8.0976 154.811L24.757 156.636L26.3436 143.997C26.2721 143.969 26.2006 143.942 26.1292 143.916L12.5331 143.985Z" fill="#00B453"/>
<path d="M258.234 8.1592C256.216 6.74564 254.11 5.64506 252.013 4.85966L250.752 17.8365L267.529 19.7864C266.105 15.6439 262.864 11.4022 258.234 8.1592Z" fill="#EF4343"/>
<path d="M263.721 31.7855C264.829 31.1398 265.776 30.2969 266.514 29.2558C268.417 26.572 268.592 23.0505 267.339 19.4521L250.809 17.5555L249.271 31.7893L263.721 31.7855Z" fill="#004FC5"/>
<path d="M243.725 28.728C245.552 30.0073 247.455 31.0212 249.356 31.7683L250.936 17.4462L234.21 15.6061C235.175 20.1933 238.555 25.1077 243.725 28.728Z" fill="#E7C200"/>
<path d="M238.568 4.9848C237.339 5.66089 236.292 6.57141 235.49 7.71745C233.904 9.98166 233.509 12.8276 234.133 15.8106L250.792 17.6365L252.379 4.99664C252.307 4.96934 252.236 4.94241 252.164 4.91586L238.568 4.9848Z" fill="#00B453"/>
</svg>
