<svg width="336" height="336" viewBox="0 0 336 336" fill="none" xmlns="http://www.w3.org/2000/svg">
<rect x="30.5908" y="256.656" width="177" height="272" transform="rotate(-90 30.5908 256.656)" fill="#004FC5"/>
<path d="M67.535 97.4354C72.7671 89.9632 79.6115 84.0402 87.6626 79.6572H176.951C190.395 84.692 203.901 91.7474 216.842 100.809C273.049 140.166 297.332 202.465 271.079 239.958C266.274 246.82 260.11 252.375 252.901 256.631L158.855 256.656C146.341 251.71 133.812 245.015 121.771 236.584C65.5643 197.228 41.2819 134.929 67.535 97.4354Z" fill="white"/>
<rect x="45.7061" y="245.604" width="8.79359" height="6.02182" transform="rotate(-135 45.7061 245.604)" fill="white" stroke="black"/>
<path d="M36.5634 241.811L35.4239 231.063L46.172 232.202L36.5634 241.811Z" fill="white" stroke="black"/>
<path d="M50.4102 241.792L50.4229 241.805L50.4386 241.82L50.4544 241.836L50.4701 241.852L50.4858 241.868L50.5016 241.883L50.5173 241.899L50.5329 241.915L50.5486 241.93L50.5643 241.946L50.5799 241.962L50.5955 241.977L50.6111 241.993L50.6267 242.008L50.6423 242.024L50.6579 242.04L50.6734 242.055L50.689 242.071L50.7045 242.086L50.72 242.102L50.7355 242.117L50.751 242.133L50.7665 242.148L50.7819 242.164L50.7973 242.179L50.8128 242.194L50.8282 242.21L50.8435 242.225L50.8589 242.241L50.8743 242.256L50.8896 242.271L50.9049 242.287L50.9202 242.302L50.9355 242.317L50.9508 242.333L50.9661 242.348L50.9813 242.363L50.9965 242.378L51.0117 242.393L51.0269 242.409L51.0421 242.424L51.0573 242.439L51.0724 242.454L51.0875 242.469L51.1026 242.484L51.1177 242.499L51.1328 242.515L51.1479 242.53L51.1629 242.545L51.1779 242.56L51.1929 242.575L51.2079 242.59L51.2229 242.605L51.2378 242.62L51.2528 242.635L51.2677 242.649L51.2826 242.664L51.2975 242.679L51.3123 242.694L51.3272 242.709L51.342 242.724L51.3568 242.739L51.3716 242.753L51.3864 242.768L51.4011 242.783L51.4159 242.798L51.4306 242.812L51.4453 242.827L51.46 242.842L51.4746 242.856L51.4893 242.871L51.5039 242.886L51.5185 242.9L51.5331 242.915L51.5477 242.929L51.5622 242.944L51.5767 242.958L51.5912 242.973L51.6057 242.987L51.6202 243.002L51.6346 243.016L51.6491 243.031L51.6635 243.045L51.6779 243.06L51.6922 243.074L51.7066 243.088L51.7209 243.103L51.7352 243.117L51.7495 243.131L51.7638 243.146L51.778 243.16L51.7923 243.174L51.8065 243.188L51.8207 243.202L51.8348 243.217L51.849 243.231L51.8631 243.245L51.8772 243.259L51.8913 243.273L51.9054 243.287L51.9194 243.301L51.9334 243.315L51.9474 243.329L51.9614 243.343L51.9753 243.357L51.9893 243.371L52.0032 243.385L52.0171 243.399L52.0309 243.413L52.0448 243.427L52.0586 243.44L52.0724 243.454L52.0862 243.468L52.1 243.482L52.1137 243.495L52.1274 243.509L52.1411 243.523L52.1548 243.536L52.1684 243.55L52.182 243.564L52.1956 243.577L52.2092 243.591L52.2228 243.605L52.2363 243.618L52.2498 243.632L52.2633 243.645L52.2768 243.658L52.2902 243.672L52.3036 243.685L52.317 243.699L52.3304 243.712L52.3437 243.725L52.357 243.739L52.3703 243.752L52.3836 243.765L52.3969 243.779L52.4101 243.792L52.4233 243.805L52.4365 243.818L52.4496 243.831L52.4628 243.845L52.4759 243.858L52.489 243.871L52.502 243.884L52.515 243.897L52.5281 243.91L52.541 243.923L52.554 243.936L52.5669 243.949L52.5798 243.962L52.5927 243.974L52.6056 243.987L52.6184 244L52.6312 244.013L52.644 244.026L52.6568 244.039L52.6695 244.051L52.6822 244.064L52.6949 244.077L52.7075 244.089L52.7202 244.102L52.7328 244.115L52.7454 244.127L52.7579 244.14L52.7704 244.152L52.7829 244.165L52.7954 244.177L52.8079 244.19L52.8203 244.202L52.8327 244.214L52.845 244.227L52.8574 244.239L52.8697 244.251L52.882 244.264L52.8943 244.276L52.9065 244.288L52.9187 244.3L52.9309 244.313L52.943 244.325L52.9552 244.337L52.9673 244.349L52.9793 244.361L52.9914 244.373L53.0034 244.385L53.0154 244.397L53.0273 244.409L53.0393 244.421L53.0512 244.433L53.0631 244.445L53.0749 244.457L53.0867 244.468L53.0985 244.48L53.1103 244.492L53.122 244.504L53.1337 244.515L53.1454 244.527L53.1571 244.539L53.1687 244.55L53.1803 244.562L53.1919 244.574L53.2034 244.585L53.2149 244.597L53.2264 244.608L53.2378 244.62L53.2493 244.631L53.2607 244.642L53.272 244.654L53.2834 244.665L53.2947 244.676L53.3059 244.688L53.3172 244.699L53.3284 244.71L53.3396 244.721L53.3507 244.732L53.3619 244.744L53.373 244.755L53.384 244.766L53.3951 244.777L53.4061 244.788L53.4171 244.799L53.428 244.81L53.4389 244.821L53.4498 244.832L53.4607 244.842L53.4715 244.853L53.4823 244.864L53.493 244.875L53.5038 244.886L53.5145 244.896L53.5251 244.907L53.5358 244.918L53.5464 244.928L53.557 244.939L53.5675 244.949L53.578 244.96L53.5885 244.97L53.599 244.981L53.6094 244.991L53.6198 245.002L53.6301 245.012L53.6404 245.022L53.6507 245.032L53.661 245.043L53.6712 245.053L53.6814 245.063L53.6916 245.073L53.7017 245.083L53.7118 245.094L53.7219 245.104L53.7319 245.114L53.7419 245.124L53.7519 245.134L53.7618 245.144L53.7717 245.153L53.7816 245.163L53.7914 245.173L53.8012 245.183L53.811 245.193L53.8207 245.202L53.8304 245.212L53.8401 245.222L53.8498 245.231L53.8594 245.241L53.8689 245.251L53.8785 245.26L53.888 245.27L53.8974 245.279L53.9069 245.289L53.9163 245.298L53.9256 245.307L53.935 245.317L53.9443 245.326L53.9535 245.335L53.9628 245.345L53.972 245.354L53.9811 245.363L53.9903 245.372L53.9994 245.381L54.0084 245.39L54.0174 245.399L54.0264 245.408L54.0354 245.417L54.0443 245.426L54.0532 245.435L54.062 245.444L54.0708 245.453L54.0796 245.461L54.0884 245.47L54.0971 245.479L54.1057 245.487L54.1144 245.496L54.123 245.505L54.1315 245.513L54.1401 245.522L54.1485 245.53L54.157 245.539L54.1654 245.547L54.1738 245.556L54.1822 245.564L54.1905 245.572L54.1987 245.58L54.207 245.589L54.2152 245.597L54.2233 245.605L54.2315 245.613L54.2396 245.621L54.2476 245.629L54.2556 245.637L54.2636 245.645L54.2716 245.653L54.2795 245.661L54.2873 245.669L54.2952 245.677L54.303 245.685L54.3107 245.692L54.3184 245.7L54.3261 245.708L54.3338 245.715L54.3414 245.723L54.3489 245.731L54.3565 245.738L54.3639 245.746L54.3714 245.753L54.3788 245.761L54.3862 245.768L54.3935 245.775L54.4008 245.783L54.4081 245.79L54.4153 245.797L54.4225 245.804L54.4297 245.811L54.4368 245.818L54.4438 245.826L54.4509 245.833L54.4579 245.84L54.4648 245.847L54.4717 245.853L54.4786 245.86L54.4854 245.867L54.4922 245.874L54.499 245.881L54.5057 245.887L54.5124 245.894L54.519 245.901L54.5256 245.907L54.5322 245.914L54.5387 245.92L54.5452 245.927L54.5516 245.933L54.558 245.94L54.5643 245.946L54.5707 245.952L54.5769 245.959L54.5832 245.965L54.5894 245.971L54.5955 245.977L54.6016 245.983L54.6077 245.989L54.6137 245.995L54.6197 246.001L54.6257 246.007L54.6316 246.013L54.6375 246.019L54.6433 246.025L54.6491 246.031L54.6548 246.037L54.6549 246.037C52.2181 248.13 48.6022 248.13 46.1654 246.037L50.4102 241.792Z" fill="white" stroke="black"/>
<rect x="46.9004" y="246.075" width="1.7367" height="5.00668" transform="rotate(-135 46.9004 246.075)" fill="white"/>
<rect x="58.9023" y="237.48" width="8.79359" height="6.02182" transform="rotate(45 58.9023 237.48)" fill="white" stroke="black"/>
<path d="M68.045 241.273L69.1845 252.021L58.4364 250.882L68.045 241.273Z" fill="white" stroke="black"/>
<path d="M54.1982 241.292L54.1855 241.279L54.1698 241.264L54.154 241.248L54.1383 241.232L54.1226 241.216L54.1068 241.201L54.0911 241.185L54.0755 241.169L54.0598 241.154L54.0441 241.138L54.0285 241.122L54.0129 241.107L53.9973 241.091L53.9817 241.076L53.9661 241.06L53.9505 241.044L53.935 241.029L53.9194 241.013L53.9039 240.998L53.8884 240.982L53.8729 240.967L53.8574 240.951L53.8419 240.936L53.8265 240.92L53.8111 240.905L53.7956 240.889L53.7802 240.874L53.7649 240.859L53.7495 240.843L53.7341 240.828L53.7188 240.813L53.7035 240.797L53.6882 240.782L53.6729 240.767L53.6576 240.751L53.6423 240.736L53.6271 240.721L53.6119 240.706L53.5967 240.691L53.5815 240.675L53.5663 240.66L53.5511 240.645L53.536 240.63L53.5209 240.615L53.5058 240.6L53.4907 240.585L53.4756 240.569L53.4605 240.554L53.4455 240.539L53.4305 240.524L53.4155 240.509L53.4005 240.494L53.3855 240.479L53.3706 240.464L53.3556 240.449L53.3407 240.435L53.3258 240.42L53.3109 240.405L53.2961 240.39L53.2812 240.375L53.2664 240.36L53.2516 240.345L53.2368 240.331L53.222 240.316L53.2073 240.301L53.1925 240.286L53.1778 240.272L53.1631 240.257L53.1484 240.242L53.1338 240.228L53.1191 240.213L53.1045 240.198L53.0899 240.184L53.0753 240.169L53.0607 240.155L53.0462 240.14L53.0317 240.126L53.0172 240.111L53.0027 240.097L52.9882 240.082L52.9737 240.068L52.9593 240.053L52.9449 240.039L52.9305 240.024L52.9161 240.01L52.9018 239.996L52.8875 239.981L52.8732 239.967L52.8589 239.953L52.8446 239.938L52.8304 239.924L52.8161 239.91L52.8019 239.896L52.7877 239.882L52.7736 239.867L52.7594 239.853L52.7453 239.839L52.7312 239.825L52.7171 239.811L52.703 239.797L52.689 239.783L52.675 239.769L52.661 239.755L52.647 239.741L52.6331 239.727L52.6191 239.713L52.6052 239.699L52.5913 239.685L52.5775 239.671L52.5636 239.657L52.5498 239.644L52.536 239.63L52.5222 239.616L52.5084 239.602L52.4947 239.589L52.481 239.575L52.4673 239.561L52.4536 239.547L52.44 239.534L52.4264 239.52L52.4128 239.507L52.3992 239.493L52.3856 239.479L52.3721 239.466L52.3586 239.452L52.3451 239.439L52.3316 239.425L52.3182 239.412L52.3048 239.399L52.2914 239.385L52.278 239.372L52.2647 239.359L52.2514 239.345L52.2381 239.332L52.2248 239.319L52.2115 239.305L52.1983 239.292L52.1851 239.279L52.1719 239.266L52.1588 239.253L52.1456 239.239L52.1325 239.226L52.1194 239.213L52.1064 239.2L52.0934 239.187L52.0803 239.174L52.0674 239.161L52.0544 239.148L52.0415 239.135L52.0286 239.122L52.0157 239.11L52.0028 239.097L51.99 239.084L51.9772 239.071L51.9644 239.058L51.9516 239.045L51.9389 239.033L51.9262 239.02L51.9135 239.007L51.9009 238.995L51.8882 238.982L51.8756 238.969L51.863 238.957L51.8505 238.944L51.838 238.932L51.8255 238.919L51.813 238.907L51.8005 238.894L51.7881 238.882L51.7757 238.87L51.7633 238.857L51.751 238.845L51.7387 238.833L51.7264 238.82L51.7141 238.808L51.7019 238.796L51.6897 238.784L51.6775 238.771L51.6654 238.759L51.6532 238.747L51.6411 238.735L51.6291 238.723L51.617 238.711L51.605 238.699L51.593 238.687L51.5811 238.675L51.5691 238.663L51.5572 238.651L51.5453 238.639L51.5335 238.627L51.5217 238.616L51.5099 238.604L51.4981 238.592L51.4864 238.58L51.4747 238.569L51.463 238.557L51.4513 238.545L51.4397 238.534L51.4281 238.522L51.4165 238.51L51.405 238.499L51.3935 238.487L51.382 238.476L51.3706 238.464L51.3591 238.453L51.3477 238.442L51.3364 238.43L51.325 238.419L51.3137 238.408L51.3025 238.396L51.2912 238.385L51.28 238.374L51.2688 238.363L51.2577 238.352L51.2465 238.34L51.2354 238.329L51.2244 238.318L51.2133 238.307L51.2023 238.296L51.1913 238.285L51.1804 238.274L51.1695 238.263L51.1586 238.252L51.1477 238.242L51.1369 238.231L51.1261 238.22L51.1154 238.209L51.1046 238.198L51.0939 238.188L51.0833 238.177L51.0726 238.166L51.062 238.156L51.0514 238.145L51.0409 238.135L51.0304 238.124L51.0199 238.114L51.0094 238.103L50.999 238.093L50.9886 238.082L50.9783 238.072L50.968 238.062L50.9577 238.052L50.9474 238.041L50.9372 238.031L50.927 238.021L50.9168 238.011L50.9067 238.001L50.8966 237.99L50.8865 237.98L50.8765 237.97L50.8665 237.96L50.8565 237.95L50.8466 237.94L50.8367 237.931L50.8268 237.921L50.817 237.911L50.8072 237.901L50.7974 237.891L50.7877 237.882L50.7779 237.872L50.7683 237.862L50.7586 237.852L50.749 237.843L50.7395 237.833L50.7299 237.824L50.7204 237.814L50.711 237.805L50.7015 237.795L50.6921 237.786L50.6828 237.777L50.6734 237.767L50.6641 237.758L50.6549 237.749L50.6456 237.739L50.6364 237.73L50.6273 237.721L50.6181 237.712L50.609 237.703L50.6 237.694L50.591 237.685L50.582 237.676L50.573 237.667L50.5641 237.658L50.5552 237.649L50.5464 237.64L50.5376 237.631L50.5288 237.623L50.52 237.614L50.5113 237.605L50.5027 237.597L50.494 237.588L50.4854 237.579L50.4769 237.571L50.4683 237.562L50.4599 237.554L50.4514 237.545L50.443 237.537L50.4346 237.528L50.4262 237.52L50.4179 237.512L50.4097 237.504L50.4014 237.495L50.3932 237.487L50.3851 237.479L50.3769 237.471L50.3688 237.463L50.3608 237.455L50.3528 237.447L50.3448 237.439L50.3368 237.431L50.3289 237.423L50.3211 237.415L50.3132 237.407L50.3054 237.399L50.2977 237.392L50.29 237.384L50.2823 237.376L50.2746 237.368L50.267 237.361L50.2595 237.353L50.2519 237.346L50.2444 237.338L50.237 237.331L50.2296 237.323L50.2222 237.316L50.2149 237.309L50.2076 237.301L50.2003 237.294L50.1931 237.287L50.1859 237.28L50.1787 237.273L50.1716 237.265L50.1646 237.258L50.1575 237.251L50.1505 237.244L50.1436 237.237L50.1367 237.231L50.1298 237.224L50.123 237.217L50.1162 237.21L50.1094 237.203L50.1027 237.197L50.096 237.19L50.0894 237.183L50.0828 237.177L50.0762 237.17L50.0697 237.164L50.0632 237.157L50.0568 237.151L50.0504 237.144L50.0441 237.138L50.0377 237.132L50.0315 237.125L50.0252 237.119L50.019 237.113L50.0129 237.107L50.0068 237.101L50.0007 237.095L49.9947 237.089L49.9887 237.083L49.9827 237.077L49.9768 237.071L49.9709 237.065L49.9651 237.059L49.9593 237.053L49.9536 237.047L49.9535 237.047C52.3903 234.954 56.0062 234.954 58.443 237.047L54.1982 241.292Z" fill="white" stroke="black"/>
<rect x="57.6523" y="237.016" width="1.70588" height="4.98128" transform="rotate(44 57.6523 237.016)" fill="white"/>
<rect x="274.706" y="98.6039" width="8.79359" height="6.02182" transform="rotate(-135 274.706 98.6039)" fill="white" stroke="black"/>
<path d="M265.563 94.8104L264.424 84.0623L275.172 85.2018L265.563 94.8104Z" fill="white" stroke="black"/>
<path d="M279.41 94.7914L279.423 94.8041L279.439 94.8199L279.454 94.8356L279.47 94.8514L279.486 94.8671L279.502 94.8828L279.517 94.8985L279.533 94.9142L279.549 94.9299L279.564 94.9455L279.58 94.9612L279.596 94.9768L279.611 94.9924L279.627 95.008L279.642 95.0236L279.658 95.0391L279.673 95.0547L279.689 95.0702L279.705 95.0858L279.72 95.1013L279.736 95.1168L279.751 95.1322L279.766 95.1477L279.782 95.1631L279.797 95.1786L279.813 95.194L279.828 95.2094L279.844 95.2248L279.859 95.2402L279.874 95.2555L279.89 95.2708L279.905 95.2862L279.92 95.3015L279.936 95.3168L279.951 95.332L279.966 95.3473L279.981 95.3625L279.997 95.3778L280.012 95.393L280.027 95.4082L280.042 95.4233L280.057 95.4385L280.072 95.4536L280.088 95.4688L280.103 95.4839L280.118 95.499L280.133 95.5141L280.148 95.5291L280.163 95.5441L280.178 95.5592L280.193 95.5742L280.208 95.5892L280.223 95.6041L280.238 95.6191L280.253 95.634L280.268 95.6489L280.283 95.6638L280.297 95.6787L280.312 95.6936L280.327 95.7084L280.342 95.7233L280.357 95.7381L280.372 95.7529L280.386 95.7676L280.401 95.7824L280.416 95.7971L280.431 95.8118L280.445 95.8265L280.46 95.8412L280.475 95.8559L280.489 95.8705L280.504 95.8852L280.519 95.8998L280.533 95.9143L280.548 95.9289L280.562 95.9435L280.577 95.958L280.591 95.9725L280.606 95.987L280.62 96.0014L280.635 96.0159L280.649 96.0303L280.663 96.0447L280.678 96.0591L280.692 96.0735L280.707 96.0878L280.721 96.1022L280.735 96.1165L280.75 96.1308L280.764 96.145L280.778 96.1593L280.792 96.1735L280.806 96.1877L280.821 96.2019L280.835 96.2161L280.849 96.2302L280.863 96.2444L280.877 96.2585L280.891 96.2725L280.905 96.2866L280.919 96.3006L280.933 96.3147L280.947 96.3287L280.961 96.3426L280.975 96.3566L280.989 96.3705L281.003 96.3844L281.017 96.3983L281.031 96.4122L281.045 96.426L281.059 96.4399L281.072 96.4537L281.086 96.4674L281.1 96.4812L281.114 96.4949L281.127 96.5087L281.141 96.5223L281.155 96.536L281.168 96.5497L281.182 96.5633L281.196 96.5769L281.209 96.5905L281.223 96.604L281.236 96.6175L281.25 96.6311L281.263 96.6445L281.277 96.658L281.29 96.6714L281.304 96.6849L281.317 96.6983L281.33 96.7116L281.344 96.725L281.357 96.7383L281.37 96.7516L281.384 96.7649L281.397 96.7781L281.41 96.7913L281.423 96.8045L281.436 96.8177L281.45 96.8309L281.463 96.844L281.476 96.8571L281.489 96.8702L281.502 96.8833L281.515 96.8963L281.528 96.9093L281.541 96.9223L281.554 96.9352L281.567 96.9482L281.58 96.9611L281.593 96.974L281.606 96.9868L281.618 96.9997L281.631 97.0125L281.644 97.0253L281.657 97.038L281.67 97.0507L281.682 97.0635L281.695 97.0761L281.708 97.0888L281.72 97.1014L281.733 97.114L281.745 97.1266L281.758 97.1392L281.77 97.1517L281.783 97.1642L281.795 97.1767L281.808 97.1891L281.82 97.2015L281.833 97.2139L281.845 97.2263L281.857 97.2386L281.87 97.251L281.882 97.2632L281.894 97.2755L281.906 97.2877L281.919 97.2999L281.931 97.3121L281.943 97.3243L281.955 97.3364L281.967 97.3485L281.979 97.3606L281.991 97.3726L282.003 97.3846L282.015 97.3966L282.027 97.4086L282.039 97.4205L282.051 97.4324L282.063 97.4443L282.075 97.4562L282.087 97.468L282.099 97.4798L282.11 97.4915L282.122 97.5033L282.134 97.515L282.145 97.5267L282.157 97.5383L282.169 97.55L282.18 97.5615L282.192 97.5731L282.203 97.5847L282.215 97.5962L282.226 97.6076L282.238 97.6191L282.249 97.6305L282.261 97.6419L282.272 97.6533L282.283 97.6646L282.295 97.6759L282.306 97.6872L282.317 97.6984L282.328 97.7097L282.34 97.7208L282.351 97.732L282.362 97.7431L282.373 97.7542L282.384 97.7653L282.395 97.7763L282.406 97.7873L282.417 97.7983L282.428 97.8093L282.439 97.8202L282.45 97.8311L282.461 97.8419L282.471 97.8527L282.482 97.8635L282.493 97.8743L282.504 97.885L282.514 97.8957L282.525 97.9064L282.536 97.917L282.546 97.9276L282.557 97.9382L282.568 97.9488L282.578 97.9593L282.589 97.9698L282.599 97.9802L282.609 97.9906L282.62 98.001L282.63 98.0114L282.64 98.0217L282.651 98.032L282.661 98.0422L282.671 98.0525L282.681 98.0627L282.692 98.0728L282.702 98.083L282.712 98.0931L282.722 98.1031L282.732 98.1132L282.742 98.1232L282.752 98.1331L282.762 98.1431L282.772 98.153L282.782 98.1628L282.791 98.1727L282.801 98.1825L282.811 98.1923L282.821 98.202L282.83 98.2117L282.84 98.2214L282.85 98.231L282.859 98.2406L282.869 98.2502L282.878 98.2597L282.888 98.2692L282.897 98.2787L282.907 98.2881L282.916 98.2975L282.926 98.3069L282.935 98.3162L282.944 98.3255L282.954 98.3348L282.963 98.344L282.972 98.3532L282.981 98.3624L282.99 98.3715L282.999 98.3806L283.008 98.3897L283.017 98.3987L283.026 98.4077L283.035 98.4166L283.044 98.4255L283.053 98.4344L283.062 98.4433L283.071 98.4521L283.08 98.4609L283.088 98.4696L283.097 98.4783L283.106 98.487L283.114 98.4956L283.123 98.5042L283.132 98.5128L283.14 98.5213L283.149 98.5298L283.157 98.5382L283.165 98.5467L283.174 98.5551L283.182 98.5634L283.19 98.5717L283.199 98.58L283.207 98.5882L283.215 98.5964L283.223 98.6046L283.231 98.6127L283.24 98.6208L283.248 98.6289L283.256 98.6369L283.264 98.6449L283.272 98.6528L283.279 98.6607L283.287 98.6686L283.295 98.6764L283.303 98.6842L283.311 98.692L283.318 98.6997L283.326 98.7074L283.334 98.715L283.341 98.7226L283.349 98.7302L283.356 98.7377L283.364 98.7452L283.371 98.7527L283.379 98.7601L283.386 98.7674L283.394 98.7748L283.401 98.7821L283.408 98.7893L283.415 98.7966L283.423 98.8038L283.43 98.8109L283.437 98.818L283.444 98.8251L283.451 98.8321L283.458 98.8391L283.465 98.8461L283.472 98.853L283.479 98.8598L283.485 98.8667L283.492 98.8735L283.499 98.8802L283.506 98.8869L283.512 98.8936L283.519 98.9003L283.526 98.9068L283.532 98.9134L283.539 98.9199L283.545 98.9264L283.552 98.9328L283.558 98.9392L283.564 98.9456L283.571 98.9519L283.577 98.9582L283.583 98.9644L283.589 98.9706L283.596 98.9768L283.602 98.9829L283.608 98.989L283.614 98.995L283.62 99.001L283.626 99.0069L283.632 99.0128L283.637 99.0187L283.643 99.0245L283.649 99.0303L283.655 99.0361L283.655 99.0361C281.218 101.129 277.602 101.129 275.165 99.0361L279.41 94.7914Z" fill="white" stroke="black"/>
<rect x="275.9" y="99.0747" width="1.7367" height="5.00668" transform="rotate(-135 275.9 99.0747)" fill="white"/>
<rect x="287.902" y="90.4791" width="8.79359" height="6.02182" transform="rotate(45 287.902 90.4791)" fill="white" stroke="black"/>
<path d="M297.045 94.2726L298.185 105.021L287.436 103.881L297.045 94.2726Z" fill="white" stroke="black"/>
<path d="M283.198 94.2916L283.186 94.2789L283.17 94.2631L283.154 94.2474L283.138 94.2316L283.123 94.2159L283.107 94.2002L283.091 94.1845L283.075 94.1688L283.06 94.1532L283.044 94.1375L283.028 94.1219L283.013 94.1062L282.997 94.0906L282.982 94.075L282.966 94.0594L282.951 94.0439L282.935 94.0283L282.919 94.0128L282.904 93.9973L282.888 93.9817L282.873 93.9662L282.857 93.9508L282.842 93.9353L282.826 93.9199L282.811 93.9044L282.796 93.889L282.78 93.8736L282.765 93.8582L282.749 93.8429L282.734 93.8275L282.719 93.8122L282.703 93.7968L282.688 93.7815L282.673 93.7662L282.658 93.751L282.642 93.7357L282.627 93.7205L282.612 93.7052L282.597 93.69L282.581 93.6748L282.566 93.6597L282.551 93.6445L282.536 93.6294L282.521 93.6142L282.506 93.5991L282.491 93.584L282.476 93.569L282.461 93.5539L282.445 93.5389L282.43 93.5238L282.415 93.5088L282.4 93.4938L282.386 93.4789L282.371 93.4639L282.356 93.449L282.341 93.4341L282.326 93.4192L282.311 93.4043L282.296 93.3894L282.281 93.3746L282.266 93.3597L282.252 93.3449L282.237 93.3301L282.222 93.3154L282.207 93.3006L282.193 93.2859L282.178 93.2712L282.163 93.2565L282.148 93.2418L282.134 93.2271L282.119 93.2125L282.104 93.1979L282.09 93.1833L282.075 93.1687L282.061 93.1541L282.046 93.1396L282.032 93.125L282.017 93.1105L282.003 93.096L281.988 93.0816L281.974 93.0671L281.959 93.0527L281.945 93.0383L281.931 93.0239L281.916 93.0095L281.902 92.9952L281.887 92.9808L281.873 92.9665L281.859 92.9522L281.845 92.938L281.83 92.9237L281.816 92.9095L281.802 92.8953L281.788 92.8811L281.774 92.8669L281.759 92.8528L281.745 92.8387L281.731 92.8246L281.717 92.8105L281.703 92.7964L281.689 92.7824L281.675 92.7683L281.661 92.7544L281.647 92.7404L281.633 92.7264L281.619 92.7125L281.605 92.6986L281.591 92.6847L281.577 92.6708L281.564 92.657L281.55 92.6431L281.536 92.6293L281.522 92.6156L281.508 92.6018L281.495 92.5881L281.481 92.5744L281.467 92.5607L281.454 92.547L281.44 92.5334L281.426 92.5197L281.413 92.5061L281.399 92.4925L281.386 92.479L281.372 92.4655L281.359 92.452L281.345 92.4385L281.332 92.425L281.318 92.4116L281.305 92.3981L281.291 92.3848L281.278 92.3714L281.265 92.358L281.251 92.3447L281.238 92.3314L281.225 92.3181L281.212 92.3049L281.198 92.2917L281.185 92.2785L281.172 92.2653L281.159 92.2521L281.146 92.239L281.133 92.2259L281.119 92.2128L281.106 92.1997L281.093 92.1867L281.08 92.1737L281.067 92.1607L281.054 92.1478L281.041 92.1348L281.029 92.1219L281.016 92.109L281.003 92.0962L280.99 92.0833L280.977 92.0705L280.964 92.0577L280.952 92.045L280.939 92.0323L280.926 92.0196L280.914 92.0069L280.901 91.9942L280.888 91.9816L280.876 91.969L280.863 91.9564L280.85 91.9438L280.838 91.9313L280.825 91.9188L280.813 91.9063L280.801 91.8939L280.788 91.8815L280.776 91.8691L280.763 91.8567L280.751 91.8444L280.739 91.8321L280.726 91.8198L280.714 91.8075L280.702 91.7953L280.69 91.7831L280.678 91.7709L280.665 91.7587L280.653 91.7466L280.641 91.7345L280.629 91.7224L280.617 91.7104L280.605 91.6984L280.593 91.6864L280.581 91.6744L280.569 91.6625L280.557 91.6506L280.545 91.6387L280.533 91.6268L280.522 91.615L280.51 91.6032L280.498 91.5915L280.486 91.5797L280.475 91.568L280.463 91.5563L280.451 91.5447L280.44 91.5331L280.428 91.5215L280.417 91.5099L280.405 91.4984L280.393 91.4868L280.382 91.4754L280.371 91.4639L280.359 91.4525L280.348 91.4411L280.336 91.4297L280.325 91.4184L280.314 91.4071L280.302 91.3958L280.291 91.3846L280.28 91.3734L280.269 91.3622L280.258 91.351L280.247 91.3399L280.235 91.3288L280.224 91.3177L280.213 91.3067L280.202 91.2957L280.191 91.2847L280.18 91.2738L280.169 91.2628L280.159 91.252L280.148 91.2411L280.137 91.2303L280.126 91.2195L280.115 91.2087L280.105 91.198L280.094 91.1873L280.083 91.1766L280.073 91.166L280.062 91.1554L280.051 91.1448L280.041 91.1342L280.03 91.1237L280.02 91.1133L280.009 91.1028L279.999 91.0924L279.989 91.082L279.978 91.0716L279.968 91.0613L279.958 91.051L279.947 91.0408L279.937 91.0305L279.927 91.0203L279.917 91.0102L279.907 91L279.897 90.9899L279.887 90.9799L279.876 90.9698L279.866 90.9598L279.857 90.9499L279.847 90.9399L279.837 90.93L279.827 90.9202L279.817 90.9103L279.807 90.9005L279.797 90.8908L279.788 90.881L279.778 90.8713L279.768 90.8616L279.759 90.852L279.749 90.8424L279.739 90.8328L279.73 90.8233L279.72 90.8138L279.711 90.8043L279.702 90.7949L279.692 90.7855L279.683 90.7761L279.673 90.7668L279.664 90.7575L279.655 90.7482L279.646 90.739L279.636 90.7298L279.627 90.7206L279.618 90.7115L279.609 90.7024L279.6 90.6934L279.591 90.6843L279.582 90.6753L279.573 90.6664L279.564 90.6575L279.555 90.6486L279.546 90.6397L279.538 90.6309L279.529 90.6221L279.52 90.6134L279.511 90.6047L279.503 90.596L279.494 90.5874L279.485 90.5788L279.477 90.5702L279.468 90.5617L279.46 90.5532L279.451 90.5448L279.443 90.5363L279.435 90.528L279.426 90.5196L279.418 90.5113L279.41 90.503L279.401 90.4948L279.393 90.4866L279.385 90.4784L279.377 90.4703L279.369 90.4622L279.361 90.4541L279.353 90.4461L279.345 90.4382L279.337 90.4302L279.329 90.4223L279.321 90.4144L279.313 90.4066L279.305 90.3988L279.298 90.3911L279.29 90.3833L279.282 90.3757L279.275 90.368L279.267 90.3604L279.259 90.3528L279.252 90.3453L279.244 90.3378L279.237 90.3304L279.23 90.3229L279.222 90.3156L279.215 90.3082L279.208 90.3009L279.2 90.2937L279.193 90.2864L279.186 90.2793L279.179 90.2721L279.172 90.265L279.165 90.2579L279.158 90.2509L279.151 90.2439L279.144 90.237L279.137 90.23L279.13 90.2232L279.123 90.2163L279.116 90.2095L279.109 90.2028L279.103 90.1961L279.096 90.1894L279.089 90.1828L279.083 90.1762L279.076 90.1696L279.07 90.1631L279.063 90.1566L279.057 90.1502L279.05 90.1438L279.044 90.1374L279.038 90.1311L279.031 90.1248L279.025 90.1186L279.019 90.1124L279.013 90.1062L279.007 90.1001L279.001 90.0941L278.995 90.088L278.989 90.082L278.983 90.0761L278.977 90.0702L278.971 90.0643L278.965 90.0585L278.959 90.0527L278.954 90.0469L278.954 90.0469C281.39 87.9536 285.006 87.9536 287.443 90.0469L283.198 94.2916Z" fill="white" stroke="black"/>
<rect x="286.652" y="90.0151" width="1.70588" height="4.98128" transform="rotate(44 286.652 90.0151)" fill="white"/>
<rect x="138.22" y="188.685" width="43.0852" height="30.6082" transform="rotate(-135 138.22 188.685)" fill="#004FC5" stroke="black"/>
<path d="M95.7099 172.966L89.9657 118.784L144.147 124.528L95.7099 172.966Z" fill="#004FC5" stroke="black"/>
<path d="M159.394 166.573L159.401 166.58L159.473 166.652L159.545 166.724L159.617 166.796L159.689 166.868L159.761 166.94L159.832 167.011L159.904 167.083L159.976 167.155L160.047 167.226L160.119 167.298L160.19 167.369L160.262 167.441L160.333 167.512L160.404 167.583L160.475 167.655L160.547 167.726L160.618 167.797L160.689 167.868L160.76 167.939L160.831 168.01L160.901 168.081L160.972 168.151L161.043 168.222L161.114 168.293L161.184 168.363L161.255 168.434L161.325 168.504L161.396 168.575L161.466 168.645L161.536 168.715L161.606 168.786L161.677 168.856L161.747 168.926L161.817 168.996L161.887 169.066L161.957 169.136L162.026 169.205L162.096 169.275L162.166 169.345L162.235 169.415L162.305 169.484L162.374 169.554L162.444 169.623L162.513 169.692L162.582 169.761L162.652 169.831L162.721 169.9L162.79 169.969L162.859 170.038L162.928 170.107L162.996 170.176L163.065 170.244L163.134 170.313L163.202 170.382L163.271 170.45L163.339 170.519L163.408 170.587L163.476 170.655L163.544 170.724L163.613 170.792L163.681 170.86L163.749 170.928L163.817 170.996L163.884 171.064L163.952 171.131L164.02 171.199L164.088 171.267L164.155 171.334L164.223 171.402L164.29 171.469L164.357 171.536L164.425 171.604L164.492 171.671L164.559 171.738L164.626 171.805L164.693 171.872L164.759 171.939L164.826 172.005L164.893 172.072L164.959 172.139L165.026 172.205L165.092 172.272L165.159 172.338L165.225 172.404L165.291 172.47L165.357 172.536L165.423 172.602L165.489 172.668L165.555 172.734L165.621 172.8L165.686 172.865L165.752 172.931L165.817 172.997L165.883 173.062L165.948 173.127L166.013 173.192L166.078 173.258L166.143 173.323L166.208 173.388L166.273 173.452L166.338 173.517L166.403 173.582L166.467 173.647L166.532 173.711L166.596 173.775L166.661 173.84L166.725 173.904L166.789 173.968L166.853 174.032L166.917 174.096L166.981 174.16L167.045 174.224L167.108 174.287L167.172 174.351L167.235 174.414L167.299 174.478L167.362 174.541L167.425 174.604L167.488 174.667L167.551 174.73L167.614 174.793L167.677 174.856L167.74 174.919L167.802 174.982L167.865 175.044L167.927 175.107L167.99 175.169L168.052 175.231L168.114 175.293L168.176 175.355L168.238 175.417L168.3 175.479L168.362 175.541L168.423 175.602L168.485 175.664L168.546 175.725L168.607 175.787L168.669 175.848L168.73 175.909L168.791 175.97L168.852 176.031L168.913 176.092L168.973 176.152L169.034 176.213L169.094 176.274L169.155 176.334L169.215 176.394L169.275 176.454L169.335 176.514L169.395 176.574L169.455 176.634L169.515 176.694L169.575 176.754L169.634 176.813L169.694 176.873L169.753 176.932L169.812 176.991L169.871 177.05L169.93 177.109L169.989 177.168L170.048 177.227L170.107 177.286L170.165 177.344L170.224 177.403L170.282 177.461L170.34 177.519L170.398 177.577L170.456 177.635L170.514 177.693L170.572 177.751L170.629 177.809L170.687 177.866L170.744 177.924L170.802 177.981L170.859 178.038L170.916 178.095L170.973 178.152L171.03 178.209L171.087 178.266L171.143 178.322L171.2 178.379L171.256 178.435L171.312 178.492L171.369 178.548L171.425 178.604L171.481 178.66L171.536 178.715L171.592 178.771L171.648 178.827L171.703 178.882L171.758 178.937L171.814 178.993L171.869 179.048L171.924 179.103L171.978 179.158L172.033 179.212L172.088 179.267L172.142 179.321L172.196 179.376L172.251 179.43L172.305 179.484L172.359 179.538L172.413 179.592L172.466 179.645L172.52 179.699L172.573 179.753L172.627 179.806L172.68 179.859L172.733 179.912L172.786 179.965L172.839 180.018L172.892 180.071L172.944 180.123L172.997 180.176L173.049 180.228L173.101 180.28L173.153 180.332L173.205 180.384L173.257 180.436L173.309 180.488L173.36 180.539L173.412 180.591L173.463 180.642L173.514 180.693L173.565 180.744L173.616 180.795L173.667 180.846L173.717 180.896L173.768 180.947L173.818 180.997L173.868 181.048L173.918 181.098L173.968 181.148L174.018 181.197L174.068 181.247L174.117 181.297L174.167 181.346L174.216 181.395L174.265 181.444L174.314 181.493L174.363 181.542L174.412 181.591L174.46 181.64L174.509 181.688L174.557 181.736L174.605 181.785L174.653 181.833L174.701 181.88L174.749 181.928L174.797 181.976L174.844 182.023L174.891 182.071L174.939 182.118L174.986 182.165L175.033 182.212L175.079 182.258L175.126 182.305L175.172 182.352L175.219 182.398L175.265 182.444L175.311 182.49L175.357 182.536L175.403 182.582L175.448 182.627L175.494 182.673L175.539 182.718L175.584 182.763L175.629 182.808L175.674 182.853L175.719 182.898L175.763 182.943L175.808 182.987L175.852 183.031L175.896 183.075L175.94 183.119L175.984 183.163L176.028 183.207L176.071 183.25L176.115 183.294L176.158 183.337L176.201 183.38L176.244 183.423L176.287 183.466L176.329 183.508L176.372 183.551L176.414 183.593L176.456 183.635L176.498 183.677L176.54 183.719L176.582 183.761L176.623 183.803L176.665 183.844L176.706 183.885L176.747 183.926L176.788 183.967L176.829 184.008L176.869 184.049L176.91 184.089L176.95 184.129L176.99 184.169L177.03 184.209L177.07 184.249L177.11 184.289L177.149 184.328L177.189 184.368L177.228 184.407L177.267 184.446L177.306 184.485L177.344 184.524L177.383 184.562L177.421 184.601L177.46 184.639L177.498 184.677L177.536 184.715L177.573 184.752L177.611 184.79L177.648 184.827L177.686 184.865L177.723 184.902L177.76 184.939L177.796 184.975L177.833 185.012L177.869 185.048L177.906 185.085L177.942 185.121L177.978 185.157L178.013 185.192L178.049 185.228L178.084 185.263L178.12 185.299L178.155 185.334L178.19 185.369L178.224 185.403L178.259 185.438L178.293 185.472L178.328 185.507L178.362 185.541L178.396 185.575L178.429 185.608L178.463 185.642L178.496 185.675L178.529 185.709L178.562 185.742L178.595 185.774L178.628 185.807L178.66 185.84L178.693 185.872L178.725 185.904L178.757 185.936L178.789 185.968L178.82 186L178.852 186.031L178.883 186.062L178.914 186.094L178.945 186.124L178.976 186.155L179.007 186.186L179.037 186.216L179.067 186.246L179.097 186.276L179.127 186.306L179.157 186.336L179.186 186.366L179.216 186.395L179.245 186.424L179.274 186.453L179.303 186.482L179.331 186.51L179.36 186.539L179.388 186.567L179.416 186.595L179.444 186.623L179.472 186.651L179.499 186.678L179.526 186.706L179.554 186.733L179.581 186.76L179.607 186.787L179.634 186.813L179.66 186.84L179.687 186.866L179.713 186.892L179.739 186.918L179.764 186.943L179.79 186.969L179.815 186.994L179.84 187.019L179.865 187.044L179.89 187.069L179.914 187.093L179.939 187.118L179.963 187.142L179.987 187.166L180.011 187.19L180.034 187.213L180.058 187.237L180.081 187.26L180.104 187.283L180.127 187.306L180.149 187.328L180.172 187.351L180.194 187.373L180.216 187.395L180.238 187.417L180.26 187.439L180.281 187.46L180.302 187.482L180.323 187.503L180.344 187.524L180.365 187.544L180.386 187.565L180.406 187.585L180.426 187.605L180.446 187.625L180.466 187.645L180.485 187.664L180.504 187.684L180.524 187.703L180.543 187.722L180.561 187.74L180.58 187.759L180.598 187.777L180.616 187.795L180.634 187.813L180.652 187.831L180.669 187.849L180.687 187.866L180.704 187.883L180.721 187.9L180.738 187.917L180.754 187.933L180.77 187.95L180.786 187.966L180.802 187.982L180.818 187.997L180.834 188.013L180.849 188.028L180.864 188.043L180.879 188.058L180.894 188.073L180.908 188.087L180.922 188.101L180.936 188.115L180.95 188.129L180.964 188.143L180.977 188.156L180.99 188.17L181.004 188.183L181.016 188.195L181.029 188.208L181.034 188.213C168.979 199.894 149.808 199.894 137.753 188.213L159.394 166.573Z" fill="#004FC5" stroke="black"/>
<rect x="138.993" y="188.845" width="4.11515" height="29.7348" transform="rotate(-135 138.993 188.845)" fill="#004FC5"/>
<rect x="197.626" y="147.16" width="43.0852" height="30.6082" transform="rotate(45 197.626 147.16)" fill="#004FC5" stroke="black"/>
<path d="M240.136 162.88L245.88 217.062L191.698 211.317L240.136 162.88Z" fill="#004FC5" stroke="black"/>
<path d="M176.452 169.273L176.445 169.266L176.373 169.194L176.301 169.122L176.229 169.05L176.157 168.978L176.085 168.906L176.013 168.834L175.942 168.763L175.87 168.691L175.799 168.619L175.727 168.548L175.656 168.476L175.584 168.405L175.513 168.334L175.442 168.262L175.37 168.191L175.299 168.12L175.228 168.049L175.157 167.978L175.086 167.907L175.015 167.836L174.944 167.765L174.874 167.694L174.803 167.624L174.732 167.553L174.662 167.482L174.591 167.412L174.521 167.341L174.45 167.271L174.38 167.201L174.309 167.13L174.239 167.06L174.169 166.99L174.099 166.92L174.029 166.85L173.959 166.78L173.889 166.71L173.819 166.64L173.75 166.57L173.68 166.501L173.61 166.431L173.541 166.362L173.471 166.292L173.402 166.223L173.333 166.153L173.263 166.084L173.194 166.015L173.125 165.946L173.056 165.877L172.987 165.808L172.918 165.739L172.849 165.67L172.781 165.601L172.712 165.533L172.643 165.464L172.575 165.396L172.506 165.327L172.438 165.259L172.37 165.19L172.301 165.122L172.233 165.054L172.165 164.986L172.097 164.918L172.029 164.85L171.961 164.782L171.893 164.714L171.826 164.647L171.758 164.579L171.691 164.511L171.623 164.444L171.556 164.377L171.488 164.309L171.421 164.242L171.354 164.175L171.287 164.108L171.22 164.041L171.153 163.974L171.086 163.907L171.02 163.84L170.953 163.774L170.886 163.707L170.82 163.641L170.753 163.574L170.687 163.508L170.621 163.442L170.555 163.375L170.489 163.309L170.423 163.243L170.357 163.177L170.291 163.112L170.225 163.046L170.159 162.98L170.094 162.915L170.028 162.849L169.963 162.784L169.898 162.718L169.832 162.653L169.767 162.588L169.702 162.523L169.637 162.458L169.572 162.393L169.508 162.328L169.443 162.264L169.378 162.199L169.314 162.135L169.249 162.07L169.185 162.006L169.121 161.942L169.057 161.878L168.993 161.814L168.929 161.75L168.865 161.686L168.801 161.622L168.737 161.558L168.674 161.495L168.61 161.431L168.547 161.368L168.484 161.305L168.42 161.241L168.357 161.178L168.294 161.115L168.231 161.052L168.169 160.989L168.106 160.927L168.043 160.864L167.981 160.802L167.918 160.739L167.856 160.677L167.794 160.615L167.732 160.552L167.67 160.49L167.608 160.429L167.546 160.367L167.484 160.305L167.423 160.243L167.361 160.182L167.3 160.12L167.238 160.059L167.177 159.998L167.116 159.937L167.055 159.876L166.994 159.815L166.933 159.754L166.872 159.693L166.812 159.633L166.751 159.572L166.691 159.512L166.631 159.451L166.57 159.391L166.51 159.331L166.45 159.271L166.391 159.211L166.331 159.152L166.271 159.092L166.212 159.032L166.152 158.973L166.093 158.914L166.034 158.854L165.975 158.795L165.916 158.736L165.857 158.677L165.798 158.619L165.739 158.56L165.681 158.501L165.622 158.443L165.564 158.385L165.506 158.326L165.448 158.268L165.39 158.21L165.332 158.152L165.274 158.095L165.216 158.037L165.159 157.979L165.101 157.922L165.044 157.865L164.987 157.808L164.93 157.75L164.873 157.693L164.816 157.637L164.759 157.58L164.702 157.523L164.646 157.467L164.59 157.41L164.533 157.354L164.477 157.298L164.421 157.242L164.365 157.186L164.309 157.13L164.254 157.075L164.198 157.019L164.143 156.964L164.087 156.908L164.032 156.853L163.977 156.798L163.922 156.743L163.867 156.688L163.813 156.633L163.758 156.579L163.704 156.524L163.649 156.47L163.595 156.416L163.541 156.362L163.487 156.308L163.433 156.254L163.379 156.2L163.326 156.147L163.272 156.093L163.219 156.04L163.166 155.987L163.113 155.933L163.06 155.881L163.007 155.828L162.954 155.775L162.902 155.722L162.849 155.67L162.797 155.618L162.745 155.565L162.693 155.513L162.641 155.461L162.589 155.41L162.537 155.358L162.486 155.306L162.434 155.255L162.383 155.204L162.332 155.153L162.281 155.102L162.23 155.051L162.179 155L162.128 154.949L162.078 154.899L162.028 154.848L161.977 154.798L161.927 154.748L161.877 154.698L161.827 154.648L161.778 154.599L161.728 154.549L161.679 154.5L161.63 154.45L161.58 154.401L161.531 154.352L161.483 154.303L161.434 154.255L161.385 154.206L161.337 154.158L161.289 154.109L161.24 154.061L161.192 154.013L161.144 153.965L161.097 153.917L161.049 153.87L161.002 153.822L160.954 153.775L160.907 153.728L160.86 153.681L160.813 153.634L160.766 153.587L160.72 153.541L160.673 153.494L160.627 153.448L160.581 153.402L160.535 153.356L160.489 153.31L160.443 153.264L160.397 153.218L160.352 153.173L160.307 153.128L160.262 153.082L160.217 153.037L160.172 152.992L160.127 152.948L160.082 152.903L160.038 152.859L159.994 152.814L159.949 152.77L159.906 152.726L159.862 152.683L159.818 152.639L159.774 152.595L159.731 152.552L159.688 152.509L159.645 152.466L159.602 152.423L159.559 152.38L159.516 152.337L159.474 152.295L159.432 152.252L159.389 152.21L159.347 152.168L159.306 152.126L159.264 152.085L159.222 152.043L159.181 152.002L159.14 151.961L159.099 151.919L159.058 151.879L159.017 151.838L158.976 151.797L158.936 151.757L158.896 151.716L158.855 151.676L158.815 151.636L158.776 151.596L158.736 151.557L158.696 151.517L158.657 151.478L158.618 151.439L158.579 151.4L158.54 151.361L158.501 151.322L158.463 151.284L158.424 151.245L158.386 151.207L158.348 151.169L158.31 151.131L158.272 151.093L158.235 151.056L158.197 151.018L158.16 150.981L158.123 150.944L158.086 150.907L158.049 150.87L158.013 150.834L157.976 150.797L157.94 150.761L157.904 150.725L157.868 150.689L157.832 150.653L157.797 150.618L157.761 150.582L157.726 150.547L157.691 150.512L157.656 150.477L157.621 150.442L157.587 150.408L157.552 150.373L157.518 150.339L157.484 150.305L157.45 150.271L157.416 150.237L157.383 150.204L157.35 150.17L157.316 150.137L157.283 150.104L157.25 150.071L157.218 150.039L157.185 150.006L157.153 149.974L157.121 149.942L157.089 149.91L157.057 149.878L157.025 149.846L156.994 149.815L156.962 149.783L156.931 149.752L156.9 149.721L156.87 149.69L156.839 149.66L156.809 149.63L156.778 149.599L156.748 149.569L156.719 149.539L156.689 149.51L156.659 149.48L156.63 149.451L156.601 149.422L156.572 149.393L156.543 149.364L156.514 149.335L156.486 149.307L156.458 149.279L156.43 149.251L156.402 149.223L156.374 149.195L156.347 149.167L156.319 149.14L156.292 149.113L156.265 149.086L156.238 149.059L156.212 149.033L156.185 149.006L156.159 148.98L156.133 148.954L156.107 148.928L156.081 148.902L156.056 148.877L156.031 148.852L156.006 148.826L155.981 148.802L155.956 148.777L155.931 148.752L155.907 148.728L155.883 148.704L155.859 148.68L155.835 148.656L155.812 148.632L155.788 148.609L155.765 148.586L155.742 148.563L155.719 148.54L155.696 148.517L155.674 148.495L155.652 148.473L155.63 148.45L155.608 148.429L155.586 148.407L155.565 148.385L155.543 148.364L155.522 148.343L155.501 148.322L155.481 148.301L155.46 148.281L155.44 148.261L155.42 148.241L155.4 148.221L155.38 148.201L155.361 148.181L155.341 148.162L155.322 148.143L155.303 148.124L155.284 148.105L155.266 148.087L155.248 148.068L155.229 148.05L155.212 148.032L155.194 148.015L155.176 147.997L155.159 147.98L155.142 147.963L155.125 147.946L155.108 147.929L155.092 147.913L155.075 147.896L155.059 147.88L155.043 147.864L155.028 147.848L155.012 147.833L154.997 147.818L154.982 147.803L154.967 147.788L154.952 147.773L154.938 147.759L154.923 147.744L154.909 147.73L154.896 147.716L154.882 147.703L154.868 147.689L154.855 147.676L154.842 147.663L154.829 147.65L154.817 147.638L154.812 147.632C166.866 135.952 186.038 135.952 198.093 147.632L176.452 169.273Z" fill="#004FC5" stroke="black"/>
<rect x="197.271" y="147.438" width="1.79781" height="29.7336" transform="rotate(45 197.271 147.438)" fill="#004FC5"/>
</svg>
