<svg width="275" height="178" viewBox="0 0 275 178" fill="none" xmlns="http://www.w3.org/2000/svg">
<rect x="1.28027" y="177.5" width="177" height="272" transform="rotate(-90 1.28027 177.5)" fill="#EF4343"/>
<path d="M38.2245 18.2796C43.4566 10.8075 50.3009 4.88443 58.3521 0.501389H147.641C161.085 5.53625 174.59 12.5916 187.532 21.6533C243.739 61.0098 268.021 123.309 241.768 160.802C236.964 167.664 230.8 173.219 223.59 177.475L129.544 177.5C117.031 172.554 104.501 165.86 92.4608 157.429C36.2538 118.072 11.9714 55.773 38.2245 18.2796Z" fill="white"/>
<path d="M16.5295 159.922C15.8695 159.922 15.3095 160.122 14.8495 160.522C14.3695 160.902 14.1295 161.522 14.1295 162.382C14.1295 163.242 14.5895 164.062 15.5095 164.842C17.1295 166.242 19.6195 167.142 22.9795 167.542C22.2795 165.962 21.9295 164.372 21.9295 162.772C21.9295 161.172 22.4695 159.812 23.5495 158.692C24.6095 157.552 25.9595 156.982 27.5995 156.982C29.7595 156.982 31.4895 157.692 32.7895 159.112C34.0695 160.532 34.7095 162.192 34.7095 164.092C34.7095 165.992 33.9395 167.632 32.3995 169.012C30.8595 170.392 28.5895 171.082 25.5895 171.082C22.1695 171.082 19.1395 170.382 16.4995 168.982C15.1795 168.282 14.1195 167.332 13.3195 166.132C12.5195 164.932 12.1195 163.562 12.1195 162.022C12.1195 160.462 12.5595 159.222 13.4395 158.302C14.3195 157.362 15.2995 156.892 16.3795 156.892C17.1195 156.892 17.7495 157.132 18.2695 157.612C18.7695 158.072 19.0195 158.752 19.0195 159.652C19.0195 160.072 18.9195 160.472 18.7195 160.852C18.2795 160.232 17.5495 159.922 16.5295 159.922ZM28.0795 160.252C26.9195 160.252 25.9795 160.572 25.2595 161.212C24.5195 161.832 24.1495 162.762 24.1495 164.002C24.1495 165.242 24.3795 166.472 24.8395 167.692H25.6195C28.9395 167.692 31.0395 167.142 31.9195 166.042C32.3595 165.482 32.5795 164.792 32.5795 163.972C32.5795 162.852 32.1195 161.952 31.1995 161.272C30.2595 160.592 29.2195 160.252 28.0795 160.252Z" fill="white"/>
<path d="M247.529 8.92154C246.869 8.92154 246.309 9.12154 245.849 9.52154C245.369 9.90154 245.129 10.5215 245.129 11.3815C245.129 12.2415 245.589 13.0615 246.509 13.8415C248.129 15.2415 250.619 16.1415 253.979 16.5415C253.279 14.9615 252.929 13.3715 252.929 11.7715C252.929 10.1715 253.469 8.81154 254.549 7.69154C255.609 6.55154 256.959 5.98154 258.599 5.98154C260.759 5.98154 262.489 6.69154 263.789 8.11154C265.069 9.53154 265.709 11.1915 265.709 13.0915C265.709 14.9915 264.939 16.6315 263.399 18.0115C261.859 19.3915 259.589 20.0815 256.589 20.0815C253.169 20.0815 250.139 19.3815 247.499 17.9815C246.179 17.2815 245.119 16.3315 244.319 15.1315C243.519 13.9315 243.119 12.5615 243.119 11.0215C243.119 9.46154 243.559 8.22154 244.439 7.30154C245.319 6.36154 246.299 5.89154 247.379 5.89154C248.119 5.89154 248.749 6.13154 249.269 6.61154C249.769 7.07154 250.019 7.75154 250.019 8.65154C250.019 9.07154 249.919 9.47154 249.719 9.85154C249.279 9.23154 248.549 8.92154 247.529 8.92154ZM259.079 9.25154C257.919 9.25154 256.979 9.57154 256.259 10.2115C255.519 10.8315 255.149 11.7615 255.149 13.0015C255.149 14.2415 255.379 15.4715 255.839 16.6915H256.619C259.939 16.6915 262.039 16.1415 262.919 15.0415C263.359 14.4815 263.579 13.7915 263.579 12.9715C263.579 11.8515 263.119 10.9515 262.199 10.2715C261.259 9.59154 260.219 9.25154 259.079 9.25154Z" fill="white"/>
<path d="M112.049 74.6163C109.409 74.6163 107.169 75.4163 105.329 77.0163C103.409 78.5363 102.449 81.0163 102.449 84.4563C102.449 87.8963 104.289 91.1763 107.969 94.2963C114.449 99.8963 124.409 103.496 137.849 105.096C135.049 98.7763 133.649 92.4163 133.649 86.0163C133.649 79.6163 135.809 74.1763 140.129 69.6963C144.369 65.1363 149.769 62.8563 156.329 62.8563C164.969 62.8563 171.889 65.6963 177.089 71.3763C182.209 77.0563 184.769 83.6963 184.769 91.2963C184.769 98.8963 181.689 105.456 175.529 110.976C169.369 116.496 160.289 119.256 148.289 119.256C134.609 119.256 122.489 116.456 111.929 110.856C106.649 108.056 102.409 104.256 99.2095 99.4563C96.0094 94.6563 94.4094 89.1763 94.4094 83.0163C94.4094 76.7763 96.1694 71.8163 99.6895 68.1363C103.209 64.3763 107.129 62.4963 111.449 62.4963C114.409 62.4963 116.929 63.4563 119.009 65.3763C121.009 67.2163 122.009 69.9363 122.009 73.5363C122.009 75.2163 121.609 76.8163 120.809 78.3363C119.049 75.8563 116.129 74.6163 112.049 74.6163ZM158.249 75.9363C153.609 75.9363 149.849 77.2163 146.969 79.7763C144.009 82.2563 142.529 85.9763 142.529 90.9363C142.529 95.8963 143.449 100.816 145.289 105.696H148.409C161.689 105.696 170.089 103.496 173.609 99.0963C175.369 96.8563 176.249 94.0963 176.249 90.8163C176.249 86.3363 174.409 82.7363 170.729 80.0163C166.969 77.2963 162.809 75.9363 158.249 75.9363Z" fill="#EF4343"/>
</svg>
