<svg width="275" height="178" viewBox="0 0 275 178" fill="none" xmlns="http://www.w3.org/2000/svg">
<rect x="1.28027" y="177.5" width="177" height="272" transform="rotate(-90 1.28027 177.5)" fill="#E7C200"/>
<path d="M38.2245 18.2796C43.4566 10.8075 50.3009 4.88443 58.3521 0.501389H147.641C161.085 5.53625 174.59 12.5916 187.532 21.6533C243.739 61.0098 268.021 123.309 241.768 160.802C236.964 167.664 230.8 173.219 223.59 177.475L129.544 177.5C117.031 172.554 104.501 165.86 92.4608 157.429C36.2538 118.072 11.9714 55.773 38.2245 18.2796Z" fill="white"/>
<path d="M10.7395 155.871C11.2595 155.591 11.8295 155.451 12.4495 155.451C13.0695 155.451 14.3595 155.921 16.3195 156.861C18.2595 157.801 20.2995 158.851 22.4395 160.011C24.5795 161.151 26.9195 162.271 29.4595 163.371C31.9995 164.451 34.0795 165.101 35.6995 165.321C35.6995 165.481 35.6195 165.771 35.4595 166.191C35.2995 166.591 35.1295 166.921 34.9495 167.181C34.7695 167.421 34.4895 167.641 34.1095 167.841C33.7295 168.041 33.2395 168.141 32.6395 168.141C32.0395 168.141 30.8095 167.651 28.9495 166.671C27.0695 165.691 24.7195 164.391 21.8995 162.771C19.0595 161.131 16.7995 159.901 15.1195 159.081C15.8595 163.821 16.2295 166.711 16.2295 167.751C16.2295 168.771 15.5195 169.281 14.0995 169.281C13.3595 169.281 12.8095 169.191 12.4495 169.011C12.7495 166.571 12.8995 164.311 12.8995 162.231C12.8995 160.151 12.8695 158.751 12.8095 158.031C11.4495 157.471 10.2995 157.101 9.35945 156.921C9.43945 156.821 9.55945 156.691 9.71945 156.531C9.85945 156.351 10.1995 156.131 10.7395 155.871Z" fill="white"/>
<path d="M241.739 4.87135C242.259 4.59135 242.829 4.45135 243.449 4.45135C244.069 4.45135 245.359 4.92135 247.319 5.86135C249.259 6.80135 251.299 7.85135 253.439 9.01135C255.579 10.1513 257.919 11.2713 260.459 12.3713C262.999 13.4513 265.079 14.1013 266.699 14.3213C266.699 14.4813 266.619 14.7713 266.459 15.1913C266.299 15.5913 266.129 15.9213 265.949 16.1813C265.769 16.4213 265.489 16.6413 265.109 16.8413C264.729 17.0413 264.239 17.1413 263.639 17.1413C263.039 17.1413 261.809 16.6513 259.949 15.6713C258.069 14.6913 255.719 13.3913 252.899 11.7713C250.059 10.1313 247.799 8.90135 246.119 8.08135C246.859 12.8213 247.229 15.7113 247.229 16.7513C247.229 17.7713 246.519 18.2813 245.099 18.2813C244.359 18.2813 243.809 18.1913 243.449 18.0113C243.749 15.5713 243.899 13.3113 243.899 11.2313C243.899 9.15135 243.869 7.75135 243.809 7.03135C242.449 6.47135 241.299 6.10135 240.359 5.92135C240.439 5.82135 240.559 5.69135 240.719 5.53135C240.859 5.35135 241.199 5.13135 241.739 4.87135Z" fill="white"/>
<path d="M88.8894 60.4156C90.9694 59.2956 93.2495 58.7356 95.7295 58.7356C98.2094 58.7356 103.369 60.6156 111.209 64.3756C118.969 68.1356 127.129 72.3356 135.689 76.9756C144.249 81.5356 153.609 86.0156 163.769 90.4156C173.929 94.7356 182.249 97.3356 188.729 98.2156C188.729 98.8556 188.409 100.016 187.769 101.696C187.129 103.296 186.449 104.616 185.729 105.656C185.009 106.616 183.889 107.496 182.369 108.296C180.849 109.096 178.889 109.496 176.489 109.496C174.089 109.496 169.169 107.536 161.729 103.616C154.209 99.6956 144.809 94.4956 133.529 88.0156C122.169 81.4556 113.129 76.5356 106.409 73.2556C109.369 92.2156 110.849 103.776 110.849 107.936C110.849 112.016 108.009 114.056 102.329 114.056C99.3694 114.056 97.1694 113.696 95.7295 112.976C96.9295 103.216 97.5295 94.1756 97.5295 85.8556C97.5295 77.5356 97.4095 71.9356 97.1694 69.0556C91.7294 66.8156 87.1294 65.3356 83.3694 64.6156C83.6894 64.2156 84.1694 63.6956 84.8095 63.0556C85.3694 62.3356 86.7294 61.4556 88.8894 60.4156Z" fill="#E7C200"/>
</svg>
