<svg width="273" height="178" viewBox="0 0 273 178" fill="none" xmlns="http://www.w3.org/2000/svg">
<rect x="0.5" y="177.5" width="177" height="272" transform="rotate(-90 0.5 177.5)" fill="#2E2E2E"/>
<path d="M37.4447 18.2799C42.6768 10.8077 49.5211 4.88468 57.5723 0.501633H146.861C160.305 5.5365 173.811 12.5918 186.752 21.6535C242.959 61.0101 267.241 123.309 240.988 160.803C236.184 167.664 230.02 173.219 222.81 177.475L128.764 177.5C116.251 172.554 103.722 165.86 91.681 157.429C35.474 118.072 11.1916 55.7732 37.4447 18.2799Z" fill="#CD2222"/>
<path d="M141.426 125.453L166.174 102.376C169.622 99.1914 173.44 97.6561 177.628 97.7701C181.8 97.8674 185.729 99.6249 189.415 103.043L190.654 104.271C194.368 108.254 196.253 112.431 196.31 116.802C196.367 121.173 194.528 125.131 190.793 128.677L165.995 151.801L161.566 147.051L186.214 124.067C188.847 121.612 190.221 118.975 190.335 116.158C190.433 113.356 189.231 110.614 186.729 107.931C184.196 105.214 181.536 103.815 178.75 103.734C175.948 103.636 173.231 104.815 170.598 107.27L145.925 130.278L141.426 125.453ZM144.675 55.967L149.174 60.7915L138.213 105.269L166.26 79.1146L170.759 83.9391L134.363 117.879L129.864 113.055L140.903 68.4106L112.731 94.6816L108.279 89.9071L144.675 55.967ZM93.5951 35.3202C97.1614 31.9945 100.837 29.6884 104.622 28.4019C108.391 27.1308 112.001 26.9425 115.452 27.8369C118.903 28.7313 121.996 30.645 124.732 33.578C127.405 36.4444 129.074 39.6385 129.741 43.1603C130.392 46.6977 129.992 50.2951 128.542 53.9526C127.06 57.609 124.619 61.0545 121.217 64.2891L118.592 66.7367C115.092 70.0002 111.434 72.2747 107.616 73.5601C103.799 74.8456 100.148 75.0405 96.6648 74.145C93.1492 73.2484 90.055 71.3669 87.382 68.5005C84.6625 65.5841 82.9775 62.3573 82.3272 58.8199C81.6446 55.2814 82.0854 51.6612 83.6496 47.9594C85.1971 44.273 87.7456 40.7748 91.2953 37.4647L93.5951 35.3202ZM95.6976 42.2859C91.3814 46.3108 88.8815 50.2621 88.1979 54.1399C87.4977 58.0331 88.6006 61.5379 91.5066 64.6543C94.3349 67.6873 97.7232 68.9987 101.671 68.5884C105.587 68.177 109.618 66.0848 113.765 62.3119L116.439 59.8177C120.622 55.917 123.098 51.9729 123.866 47.9853C124.602 43.9965 123.532 40.4606 120.657 37.3776C117.767 34.2779 114.404 32.9272 110.569 33.3253C106.717 33.7389 102.66 35.8866 98.3973 39.7683L95.6976 42.2859Z" fill="#FFB800"/>
<path d="M141.426 125.453L140.744 124.722L140.013 125.404L140.695 126.135L141.426 125.453ZM166.174 102.376L165.495 101.641L165.492 101.645L166.174 102.376ZM177.628 97.7701L177.601 98.7697L177.605 98.7698L177.628 97.7701ZM189.415 103.043L190.119 102.332L190.107 102.321L190.095 102.309L189.415 103.043ZM190.654 104.271L191.385 103.589L191.372 103.574L191.358 103.561L190.654 104.271ZM190.793 128.677L191.475 129.408L191.481 129.402L190.793 128.677ZM165.995 151.801L165.264 152.483L165.946 153.214L166.677 152.532L165.995 151.801ZM161.566 147.051L160.884 146.32L160.153 147.002L160.835 147.733L161.566 147.051ZM190.335 116.158L191.334 116.199L191.335 116.193L190.335 116.158ZM178.75 103.734L178.715 104.734L178.721 104.734L178.75 103.734ZM145.925 130.278L145.194 130.96L145.876 131.691L146.607 131.009L145.925 130.278ZM142.108 126.185L166.856 103.107L165.492 101.645L140.744 124.722L142.108 126.185ZM166.852 103.111C170.134 100.08 173.706 98.6637 177.601 98.7697L177.655 96.7704C173.174 96.6485 169.11 98.303 165.495 101.641L166.852 103.111ZM177.605 98.7698C181.485 98.8603 185.19 100.489 188.735 103.776L190.095 102.309C186.269 98.7612 182.116 96.8745 177.651 96.7703L177.605 98.7698ZM188.711 103.753L189.95 104.981L191.358 103.561L190.119 102.332L188.711 103.753ZM189.922 104.953C193.51 108.8 195.257 112.749 195.31 116.815L197.31 116.789C197.249 112.112 195.225 107.707 191.385 103.589L189.922 104.953ZM195.31 116.815C195.363 120.857 193.677 124.561 190.104 127.951L191.481 129.402C195.379 125.702 197.371 121.489 197.31 116.789L195.31 116.815ZM190.111 127.945L165.313 151.069L166.677 152.532L191.475 129.408L190.111 127.945ZM166.727 151.119L162.298 146.369L160.835 147.733L165.264 152.483L166.727 151.119ZM162.248 147.783L186.896 124.798L185.532 123.336L160.884 146.32L162.248 147.783ZM186.896 124.798C189.666 122.216 191.207 119.346 191.334 116.199L189.336 116.117C189.235 118.604 188.028 121.008 185.532 123.336L186.896 124.798ZM191.335 116.193C191.444 113.051 190.085 110.063 187.46 107.249L185.998 108.613C188.377 111.164 189.422 113.661 189.336 116.123L191.335 116.193ZM187.46 107.249C184.808 104.404 181.912 102.826 178.779 102.735L178.721 104.734C181.16 104.805 183.584 106.024 185.998 108.613L187.46 107.249ZM178.785 102.735C175.648 102.625 172.685 103.957 169.916 106.539L171.28 108.002C173.776 105.674 176.248 104.647 178.715 104.734L178.785 102.735ZM169.916 106.539L145.243 129.547L146.607 131.009L171.28 108.002L169.916 106.539ZM146.656 129.596L142.158 124.771L140.695 126.135L145.194 130.96L146.656 129.596ZM144.675 55.967L145.406 55.285L144.724 54.5536L143.993 55.2356L144.675 55.967ZM149.174 60.7915L150.145 61.0308L150.274 60.5053L149.905 60.1095L149.174 60.7915ZM138.213 105.269L137.242 105.03L136.439 108.291L138.895 106L138.213 105.269ZM166.26 79.1146L166.992 78.4326L166.31 77.7013L165.578 78.3833L166.26 79.1146ZM170.759 83.9391L171.441 84.6705L172.173 83.9885L171.491 83.2571L170.759 83.9391ZM134.363 117.879L133.632 118.561L134.314 119.293L135.045 118.611L134.363 117.879ZM129.864 113.055L128.893 112.815L128.763 113.341L129.133 113.737L129.864 113.055ZM140.903 68.4106L141.874 68.6507L142.681 65.3851L140.221 67.6793L140.903 68.4106ZM112.731 94.6816L112 95.3636L112.682 96.0949L113.413 95.4129L112.731 94.6816ZM108.279 89.9071L107.597 89.1757L106.865 89.8577L107.547 90.5891L108.279 89.9071ZM143.944 56.649L148.443 61.4735L149.905 60.1095L145.406 55.285L143.944 56.649ZM148.203 60.5522L137.242 105.03L139.184 105.508L150.145 61.0308L148.203 60.5522ZM138.895 106L166.942 79.846L165.578 78.3833L137.531 104.538L138.895 106ZM165.529 79.7966L170.028 84.6211L171.491 83.2571L166.992 78.4326L165.529 79.7966ZM170.077 83.2078L133.681 117.148L135.045 118.611L171.441 84.6705L170.077 83.2078ZM135.094 117.197L130.596 112.373L129.133 113.737L133.632 118.561L135.094 117.197ZM130.835 113.295L141.874 68.6507L139.932 68.1706L128.893 112.815L130.835 113.295ZM140.221 67.6793L112.049 93.9502L113.413 95.4129L141.585 69.142L140.221 67.6793ZM113.462 93.9996L109.01 89.2251L107.547 90.5891L112 95.3636L113.462 93.9996ZM108.961 90.6384L145.357 56.6983L143.993 55.2356L107.597 89.1757L108.961 90.6384ZM104.622 28.4019L104.303 27.4543L104.301 27.455L104.622 28.4019ZM129.741 43.1603L130.725 42.9795L130.724 42.9742L129.741 43.1603ZM128.542 53.9526L129.469 54.3283L129.472 54.3211L128.542 53.9526ZM121.217 64.2891L121.899 65.0205L121.906 65.0138L121.217 64.2891ZM96.6648 74.145L96.9138 73.1765L96.912 73.176L96.6648 74.145ZM82.3272 58.8199L83.3107 58.6391L83.3091 58.6305L82.3272 58.8199ZM83.6496 47.9594L84.5707 48.3486L84.5716 48.3464L83.6496 47.9594ZM88.1979 54.1399L89.1821 54.3169L89.1827 54.3135L88.1979 54.1399ZM101.671 68.5884L101.775 69.583L101.776 69.5829L101.671 68.5884ZM113.765 62.3119L114.438 63.0515L114.447 63.0432L113.765 62.3119ZM123.866 47.9853L124.848 48.1744L124.849 48.1667L123.866 47.9853ZM110.569 33.3253L110.466 32.3306L110.462 32.331L110.569 33.3253ZM98.3973 39.7683L97.724 39.0289L97.7153 39.037L98.3973 39.7683ZM94.277 36.0515C97.7621 32.8016 101.319 30.5808 104.944 29.3487L104.301 27.455C100.355 28.796 96.5606 31.1874 92.9131 34.5888L94.277 36.0515ZM104.942 29.3494C108.549 28.133 111.96 27.9648 115.201 28.8049L115.703 26.8689C112.042 25.9202 108.234 26.1286 104.303 27.4543L104.942 29.3494ZM115.201 28.8049C118.446 29.6458 121.378 31.4482 124 34.26L125.463 32.896C122.615 29.8418 119.361 27.8167 115.703 26.8689L115.201 28.8049ZM124 34.26C126.557 37.0015 128.13 40.0275 128.759 43.3464L130.724 42.9742C130.019 39.2495 128.252 35.8872 125.463 32.896L124 34.26ZM128.758 43.3411C129.371 46.6768 129 50.0841 127.613 53.5841L129.472 54.3211C130.984 50.5062 131.412 46.7186 130.725 42.9795L128.758 43.3411ZM127.616 53.577C126.196 57.0788 123.846 60.4095 120.528 63.5644L121.906 65.0138C125.391 61.6994 127.925 58.1392 129.469 54.3282L127.616 53.577ZM120.535 63.5578L117.91 66.0054L119.274 67.4681L121.899 65.0205L120.535 63.5578ZM117.91 66.0054C114.495 69.1897 110.957 71.3801 107.297 72.6124L107.935 74.5078C111.911 73.1692 115.689 70.8107 119.274 67.4681L117.91 66.0054ZM107.297 72.6124C103.64 73.8438 100.188 74.0182 96.9138 73.1765L96.4158 75.1135C100.109 76.0629 103.957 75.8474 107.935 74.5078L107.297 72.6124ZM96.912 73.176C93.5969 72.3305 90.6666 70.5565 88.1134 67.8185L86.6507 69.1825C89.4433 72.1772 92.7016 74.1662 96.4177 75.114L96.912 73.176ZM88.1134 67.8185C85.5093 65.026 83.9228 61.9687 83.3107 58.6391L81.3437 59.0007C82.0322 62.7458 83.8156 66.1423 86.6507 69.1825L88.1134 67.8185ZM83.3091 58.6305C82.6683 55.3087 83.0745 51.8897 84.5707 48.3486L82.7284 47.5701C81.0964 51.4328 80.6209 55.2541 81.3453 59.0093L83.3091 58.6305ZM84.5716 48.3464C86.054 44.8154 88.5094 41.4299 91.9773 38.1961L90.6133 36.7334C86.9819 40.1197 84.3402 43.7307 82.7275 47.5723L84.5716 48.3464ZM91.9773 38.1961L94.277 36.0515L92.9131 34.5888L90.6133 36.7334L91.9773 38.1961ZM95.0156 41.5545C90.6159 45.6573 87.949 49.7916 87.2131 53.9663L89.1827 54.3135C89.8139 50.7327 92.1468 46.9643 96.3796 43.0172L95.0156 41.5545ZM87.2137 53.9628C86.4528 58.1931 87.6735 62.0101 90.7753 65.3363L92.238 63.9723C89.5276 61.0658 88.5425 57.8732 89.1821 54.3169L87.2137 53.9628ZM90.7753 65.3363C93.8062 68.5866 97.4987 70.0274 101.775 69.583L101.568 67.5937C97.9477 67.97 94.8637 66.788 92.238 63.9723L90.7753 65.3363ZM101.776 69.5829C105.977 69.1416 110.198 66.909 114.438 63.0515L113.092 61.5723C109.038 65.2606 105.198 67.2124 101.567 67.5939L101.776 69.5829ZM114.447 63.0432L117.121 60.549L115.757 59.0863L113.083 61.5805L114.447 63.0432ZM117.121 60.549C121.398 56.5612 124.026 52.4395 124.848 48.1744L122.884 47.7962C122.169 51.5063 119.847 55.2729 115.757 59.0863L117.121 60.549ZM124.849 48.1667C125.645 43.8523 124.469 39.9996 121.388 36.6956L119.926 38.0596C122.595 40.9217 123.558 44.1407 122.882 47.8039L124.849 48.1667ZM121.388 36.6956C118.309 33.3929 114.646 31.8966 110.466 32.3306L110.672 34.3199C114.161 33.9577 117.224 35.163 119.926 38.0596L121.388 36.6956ZM110.462 32.331C106.319 32.776 102.071 35.0706 97.724 39.0289L99.0706 40.5077C103.249 36.7026 107.116 34.7019 110.676 34.3196L110.462 32.331ZM97.7153 39.037L95.0156 41.5545L96.3796 43.0172L99.0793 40.4997L97.7153 39.037Z" fill="black"/>
</svg>
