<svg width="273" height="178" viewBox="0 0 273 178" fill="none" xmlns="http://www.w3.org/2000/svg">
<rect x="0.5" y="177.5" width="177" height="272" transform="rotate(-90 0.5 177.5)" fill="#EF4343"/>
<path d="M37.4452 18.2796C42.6773 10.8075 49.5216 4.88443 57.5728 0.501389H146.861C160.305 5.53625 173.811 12.5916 186.752 21.6533C242.959 61.0098 267.242 123.309 240.989 160.802C236.184 167.664 230.02 173.219 222.811 177.475L128.765 177.5C116.251 172.554 103.722 165.86 91.6815 157.429C35.4745 118.072 11.1921 55.773 37.4452 18.2796Z" fill="white"/>
<rect x="97.3516" y="59.4868" width="14.6503" height="93" transform="rotate(-45 97.3516 59.4868)" fill="#EF4343"/>
<circle cx="135.409" cy="87.1899" r="47.5" transform="rotate(-90 135.409 87.1899)" stroke="#EF4343" stroke-width="14"/>
<rect x="241.269" y="13.25" width="4.48487" height="26.9841" transform="rotate(-45 241.269 13.25)" fill="white"/>
<circle cx="252.409" cy="21.1899" r="14.5" transform="rotate(-90 252.409 21.1899)" stroke="white" stroke-width="4"/>
<rect x="10.2686" y="149.25" width="4.48487" height="26.9841" transform="rotate(-45 10.2686 149.25)" fill="white"/>
<circle cx="21.4092" cy="157.19" r="14.5" transform="rotate(-90 21.4092 157.19)" stroke="white" stroke-width="4"/>
</svg>
