<svg width="275" height="178" viewBox="0 0 275 178" fill="none" xmlns="http://www.w3.org/2000/svg">
<rect x="1.28027" y="177.5" width="177" height="272" transform="rotate(-90 1.28027 177.5)" fill="#E7C200"/>
<path d="M38.2245 18.2799C43.4566 10.8077 50.3009 4.88468 58.3521 0.501633H147.641C161.085 5.5365 174.59 12.5918 187.532 21.6535C243.739 61.0101 268.021 123.309 241.768 160.803C236.964 167.664 230.8 173.219 223.59 177.475L129.544 177.5C117.031 172.554 104.501 165.86 92.4608 157.429C36.2538 118.072 11.9714 55.7732 38.2245 18.2799Z" fill="white"/>
<path d="M20.1895 166.41C20.1895 167.45 19.8895 168.27 19.2895 168.87C18.6695 169.47 17.9295 169.77 17.0695 169.77C15.7695 169.77 14.6195 169.23 13.6195 168.15C12.6195 167.05 12.1195 165.55 12.1195 163.65C12.1195 161.73 12.5995 160.14 13.5595 158.88C14.4995 157.6 15.9495 156.96 17.9095 156.96C19.8495 156.96 22.0095 157.85 24.3895 159.63C26.7495 161.41 28.9695 163.94 31.0495 167.22V166.41C31.0495 161.81 30.7295 158.7 30.0895 157.08C31.4095 157.16 32.4395 157.53 33.1795 158.19C33.8995 158.83 34.2595 159.65 34.2595 160.65C34.2595 160.93 34.1695 161.87 33.9895 163.47C33.8095 165.07 33.7195 166.68 33.7195 168.3C33.7195 169.92 33.9195 171.43 34.3195 172.83C33.8795 172.83 33.4395 172.68 32.9995 172.38C32.1995 171.84 31.6395 171.1 31.3195 170.16C30.6195 169.34 30.1395 168.78 29.8795 168.48C29.6195 168.16 29.0995 167.57 28.3195 166.71C27.5195 165.85 26.8895 165.21 26.4295 164.79C25.9495 164.37 25.3095 163.83 24.5095 163.17C23.7095 162.49 22.9895 161.99 22.3495 161.67C20.6895 160.79 19.2595 160.35 18.0595 160.35C16.8395 160.35 15.8995 160.67 15.2395 161.31C14.5795 161.95 14.2495 162.71 14.2495 163.59C14.2495 164.45 14.5195 165.17 15.0595 165.75C15.5795 166.33 16.3295 166.62 17.3095 166.62C18.2895 166.62 19.2195 166.24 20.0995 165.48C20.1595 165.78 20.1895 166.09 20.1895 166.41Z" fill="white"/>
<path d="M251.189 15.4102C251.189 16.4502 250.889 17.2702 250.289 17.8702C249.669 18.4702 248.929 18.7702 248.069 18.7702C246.769 18.7702 245.619 18.2302 244.619 17.1502C243.619 16.0502 243.119 14.5502 243.119 12.6502C243.119 10.7302 243.599 9.14022 244.559 7.88022C245.499 6.60022 246.949 5.96022 248.909 5.96022C250.849 5.96022 253.009 6.85022 255.389 8.63022C257.749 10.4102 259.969 12.9402 262.049 16.2202V15.4102C262.049 10.8102 261.729 7.70022 261.089 6.08022C262.409 6.16022 263.439 6.53022 264.179 7.19022C264.899 7.83022 265.259 8.65022 265.259 9.65022C265.259 9.93022 265.169 10.8702 264.989 12.4702C264.809 14.0702 264.719 15.6802 264.719 17.3002C264.719 18.9202 264.919 20.4302 265.319 21.8302C264.879 21.8302 264.439 21.6802 263.999 21.3802C263.199 20.8402 262.639 20.1002 262.319 19.1602C261.619 18.3402 261.139 17.7802 260.879 17.4802C260.619 17.1602 260.099 16.5702 259.319 15.7102C258.519 14.8502 257.889 14.2102 257.429 13.7902C256.949 13.3702 256.309 12.8302 255.509 12.1702C254.709 11.4902 253.989 10.9902 253.349 10.6702C251.689 9.79022 250.259 9.35022 249.059 9.35022C247.839 9.35022 246.899 9.67022 246.239 10.3102C245.579 10.9502 245.249 11.7102 245.249 12.5902C245.249 13.4502 245.519 14.1702 246.059 14.7502C246.579 15.3302 247.329 15.6202 248.309 15.6202C249.289 15.6202 250.219 15.2402 251.099 14.4802C251.159 14.7802 251.189 15.0902 251.189 15.4102Z" fill="white"/>
<path d="M126.689 100.57C126.689 104.73 125.489 108.01 123.089 110.41C120.609 112.81 117.649 114.01 114.209 114.01C109.009 114.01 104.409 111.85 100.409 107.53C96.4094 103.13 94.4094 97.1303 94.4094 89.5303C94.4094 81.8503 96.3294 75.4903 100.169 70.4503C103.929 65.3303 109.729 62.7703 117.569 62.7703C125.329 62.7703 133.969 66.3303 143.489 73.4503C152.929 80.5703 161.809 90.6903 170.129 103.81V100.57C170.129 82.1703 168.849 69.7303 166.289 63.2503C171.569 63.5703 175.689 65.0503 178.649 67.6903C181.529 70.2503 182.969 73.5303 182.969 77.5303C182.969 78.6503 182.609 82.4103 181.889 88.8103C181.169 95.2103 180.809 101.65 180.809 108.13C180.809 114.61 181.609 120.65 183.209 126.25C181.449 126.25 179.689 125.65 177.929 124.45C174.729 122.29 172.489 119.33 171.209 115.57C168.409 112.29 166.489 110.05 165.449 108.85C164.409 107.57 162.329 105.21 159.209 101.77C156.009 98.3303 153.489 95.7703 151.649 94.0903C149.729 92.4103 147.169 90.2503 143.969 87.6103C140.769 84.8903 137.889 82.8903 135.329 81.6103C128.689 78.0903 122.969 76.3303 118.169 76.3303C113.289 76.3303 109.529 77.6103 106.889 80.1703C104.249 82.7303 102.929 85.7703 102.929 89.2903C102.929 92.7303 104.009 95.6103 106.169 97.9303C108.249 100.25 111.249 101.41 115.169 101.41C119.089 101.41 122.809 99.8903 126.329 96.8503C126.569 98.0503 126.689 99.2903 126.689 100.57Z" fill="#E7C200"/>
</svg>
